SplineFontDB: 3.0
FontName: AbhayaLibre-ExtraBold
FullName: AbhayaLibre
FamilyName: AbhayaLibre
Weight: ExtraBold
Copyright: Copyright (c) 1997-2015 Pushpananda Ekanayake (http://isiwara.lk), Copyright (c) 2015 mooniak (http://mooniak.com)\n
UComments: "2015-2-15: Created with FontForge (http://fontforge.org) The  Free Font Editor"
Version: 1.0
ItalicAngle: 0
UnderlinePosition: -102
UnderlineWidth: 51
Ascent: 819
Descent: 205
InvalidEm: 0
UFOAscent: 819
UFODescent: -205
LayerCount: 3
Layer: 0 0 "Back" 1
Layer: 1 0 "Fore" 0
Layer: 2 0 "Back 2" 1
PreferredKerning: 4
FSType: 0
OS2Version: 0
OS2_WeightWidthSlopeOnly: 0
OS2_UseTypoMetrics: 0
CreationTime: 1429518268
ModificationTime: 1438681644
PfmFamily: 16
TTFWeight: 400
TTFWidth: 5
LineGap: 94
VLineGap: 0
OS2TypoAscent: 819
OS2TypoAOffset: 0
OS2TypoDescent: -205
OS2TypoDOffset: 0
OS2TypoLinegap: 94
OS2WinAscent: 918
OS2WinAOffset: 0
OS2WinDescent: 205
OS2WinDOffset: 0
HheadAscent: 918
HheadAOffset: 0
HheadDescent: -205
HheadDOffset: 0
OS2CapHeight: 0
OS2XHeight: 0
OS2Vendor: 'PfEd'
OS2UnicodeRanges: 00000002.00000000.00000000.00000000
Lookup: 4 0 0 "'abvs' Above Base Substitutions in Sinhala lookup 2" { "'abvs' Above Base Substitutions in Sinhala lookup 2-1"  } ['abvs' ('sinh' <'dflt' > ) ]
Lookup: 1 0 0 "'ordn' Ordinals lookup 1" { "'ordn' Ordinals lookup 1-1"  } ['ordn' ('DFLT' <'dflt' > 'hani' <'dflt' > 'latn' <'dflt' > 'sinh' <'dflt' > ) ]
Lookup: 4 0 1 "'liga' Standard Ligatures lookup 1" { "'liga' Standard Ligatures lookup 1-1"  } ['liga' ('DFLT' <'dflt' > 'hani' <'dflt' > 'latn' <'dflt' > ) ]
Lookup: 258 0 0 "'kern' Horizontal Kerning lookup 0" { "'kern' Horizontal Kerning lookup 0-1" [153,15,0] } ['kern' ('DFLT' <'dflt' > 'hani' <'dflt' > 'latn' <'dflt' > ) ]
MarkAttachClasses: 1
DEI: 91125
KernClass2: 7 7 "'kern' Horizontal Kerning lookup 0-1"
 1 A
 7 T Y P F
 9 f r v w y
 1 L
 3 W V
 0 
 7 W V T Y
 12 period comma
 17 a e s o q d c g u
 1 A
 5 w v t
 15 semicolon colon

StartChar: anusvara
Encoding: 65536 -1 0
Width: 1024
VWidth: 893
Flags: M
LayerCount: 3
Back
SplineSet
1220.97070312 486 m 0
 1161.97070312 486 l 0
 1161.97070312 564 l 0
 1161.97070312 732 l 0
 1220.97070312 718 l 0
 1220.97070312 574 l 0
 1220.97070312 486 l 0
EndSplineSet
Fore
Layer: 2
EndChar

StartChar: si_NnI
Encoding: 237 -1 1
Width: 1024
VWidth: 893
LayerCount: 3
Back
SplineSet
1055.97070312 498 m 0
 951.970703125 498 l 0
 964.41796875 517.34375 967.970703125 553.9375 967.970703125 576 c 0
 967.970703125 628 988.633789062 704 913.970703125 704 c 0
 836.62890625 704 776.970703125 671.231445312 776.970703125 636 c 0
 776.970703125 577.78125 785.970703125 568 785.970703125 568 c 1
 683.970703125 568 l 1
 667.970703125 588 662.970703125 619.814453125 662.970703125 646 c 0
 662.970703125 769.171875 783.970703125 808 913.970703125 808 c 0
 1038.17285156 808 1079.97070312 711 1079.97070312 586 c 0
 1079.97070312 548.223632812 1066.54589844 507.360351562 1055.97070312 498 c 0
EndSplineSet
Fore
Layer: 2
EndChar

StartChar: uni0D85
Encoding: 2 3461 2
Width: 573
VWidth: 1000
Flags: HW
LayerCount: 3
Back
Fore
SplineSet
430 198 m 4
 481 198 529 225 529 281 c 4
 529 359 445 369 445 403 c 4
 445 414 451 418 457 421 c 5
 438 418 l 4
 420 403 l 5
 419.681640625 400.931640625 419.451171875 394.934570312 419.451171875 393 c 4
 419.451171875 376 424 362 435 346 c 4
 446.78870115 328.852798327 452 314 452 291 c 4
 452 256 434 231 407 231 c 4
 396 231 391 232 384 235 c 13
 384 203 l 21
 397 200 411 198 430 198 c 4
464 424 m 5
 439 435 l 5
 419 429.666666667 398.125818599 417.514105747 383 400 c 4
 364 378 356 350 356 313 c 4
 356 137 356 -39 356 -215 c 5
 388 -215 l 5
 388 311 l 6
 388 350 393 394 464 424 c 5
523 51 m 5
 523 85 l 5
 480 52 418 35 335 35 c 4
 242 35 187 88 187 164 c 4
 187 200 201 285 309 285 c 6
 344 285 l 5
 344.014648438 286.002929688 344.0234375 289.002929688 344.0234375 290 c 4
 344.0234375 382 295 433 211 433 c 4
 154 433 106 410 106 369 c 4
 106 344.66015625 126 328 148 328 c 4
 176 328 190.188476562 344.376953125 197 358 c 4
 203 370 211 387 244 387 c 4
 284 387 310 348 311 309 c 5
 202 309 l 6
 94 309 33 248 33 160 c 4
 33 62 118 -4 282 -4 c 4
 386 -4 472 17 523 51 c 5
EndSplineSet
Layer: 2
EndChar

StartChar: uni0DA0
Encoding: 26 3488 3
Width: 597
VWidth: 1000
Flags: HW
LayerCount: 3
Back
Fore
SplineSet
319 274 m 1
 271 274 l 2
 216 274 184 266 161 254 c 0
 132.712890625 239.241210938 128 220 128 207 c 0
 128 158 208 140 298 140 c 0
 451 140 517 218 517 329 c 0
 517 442 437.498046875 551 303 551 c 0
 223.666992188 551 163 522 119 470 c 1
 84 470 l 1
 132.666992188 540 205 577 303 577 c 0
 463.151367188 577 575 443 575 274 c 0
 575 114 478 0 295 0 c 0
 174 0 64 46 64 165 c 0
 64 195.720344964 73.7752888432 227.83117189 97 248 c 0
 113.127026077 262.005048961 132 273 158 278 c 1
 191.760742188 290.19921875 232.875230528 302 270 302 c 2
 284 302 l 1
 284.08203125 304.041015625 284.0859375 306.041015625 284.0859375 308 c 0
 284.0859375 358 252 389 220 389 c 128
 186 389 173 371 167.5 355 c 128
 160.951171875 335.948242188 150 320 121 320 c 0
 101 320 83 333.368164062 83 359 c 0
 83 406 133 431.5 188 431.5 c 0
 276 431.5 319.146484375 376 319.146484375 290 c 0
 319.146484375 286.721679688 319.100585938 277.387695312 319 274 c 1
148 274 m 2
 77 273 29 269.666992188 13 267 c 1
 13 302 l 1
 282 302 l 1
 315 274 l 1
 148 274 l 2
EndSplineSet
Layer: 2
EndChar

StartChar: uni0D89
Encoding: 6 3465 4
Width: 593
VWidth: 1000
Flags: HW
LayerCount: 3
Back
Fore
SplineSet
273.107421875 15.4248046875 m 0
 289.881835938 15.4248046875 304.879882812 13.3076171875 322.408203125 13.3076171875 c 0
 420 13.3076171875 471 87 471 162 c 0
 471 248 408 322 285 322 c 0
 174 322 108.419921875 273 108.419921875 190.134765625 c 0
 108.419921875 144 150 82.98046875 235.573242188 82.98046875 c 0
 275 82.98046875 310 92 326 111 c 1
 315 102 299.454101562 97.978515625 285.064453125 97.978515625 c 0
 241 97.978515625 206 132.5703125 206 173 c 0
 206 219.263671875 240 254.68359375 286.35546875 254.68359375 c 0
 343.78515625 254.68359375 378 218 378 164 c 0
 378 84 310 54 220 54 c 0
 113 54 32.769301342 116.842503605 32.769301342 220.978179218 c 0
 32.769301342 356.900041772 148 432.229789777 284.186584566 432.229789777 c 0
 437 432.229789777 544.072655356 353.230064025 544.072655356 198.289822617 c 0
 544.072655356 92.3992805878 472.804973932 9.9053684654 384 -6 c 1
 417.360050834 -12.0654637881 439.019305478 -35.5646106219 439.019305478 -74.6171329825 c 0
 439.019305478 -134.43844808 364.215441002 -160.272357038 298.362581423 -160.272357038 c 0
 236.041211731 -160.272357038 172.567829085 -139.055521608 172.567829085 -75.6591555653 c 0
 172.567829085 -50.1902726369 191.396484375 -38.45703125 208 -38.45703125 c 0
 223 -38.45703125 239 -47.7724609375 239 -65 c 0
 239 -70.548828125 235.331054688 -81.8984375 235.331054688 -94 c 0
 235.331054688 -114 247 -135.407226562 300.489257812 -135.407226562 c 0
 339.3828125 -135.407226562 362.052734375 -116 362.052734375 -83.3779296875 c 0
 362.052734375 -44 334.405273438 -14.646484375 267.46875 -14.646484375 c 0
 258.713867188 -14.646484375 258.543945312 -15.0908203125 249 -16 c 1
 249 14 l 1
 260.678710938 14.9736328125 262.404296875 15.4248046875 273.107421875 15.4248046875 c 0
288 225 m 0
 260.409179688 225 238 202.654296875 238 176 c 0
 238 148.345703125 261.333007812 127 288 127 c 0
 315.590820312 127 338 149.345703125 338 176 c 0
 338 203.654296875 314.666992188 225 288 225 c 0
EndSplineSet
Layer: 2
EndChar

StartChar: uni0DC0
Encoding: 54 3520 5
Width: 597
VWidth: 1000
Flags: HW
LayerCount: 3
Back
Fore
SplineSet
292 277 m 5
 211 277 l 6
 137 277 101 250 101 213 c 4
 101 151 196 140 270 140 c 4
 423 140 491 211 491 317 c 4
 491 436 410.498046875 551 276 551 c 4
 196.666992188 551 136 522 92 470 c 5
 57 470 l 5
 105.666666667 540 178 577 276 577 c 4
 436.151392369 577 548 443 548 274 c 4
 548 114 450 0 267 0 c 4
 146 0 33 46 33 165 c 4
 33 250 98 304 199 304 c 6
 256 304 l 5
 256.08203125 306.041015625 256.0859375 306.041015625 256.0859375 308 c 4
 256.0859375 358 224 387 191 387 c 132
 157 387 146 371 140.5 355 c 132
 133.951171875 335.948242188 122 319 96 319 c 4
 73 319 56 333.368164062 56 359 c 4
 56 406 106 431.5 161 431.5 c 4
 249 431.5 292.146076529 376 292.146076529 290.0000267 c 4
 292.146076529 286.721575577 292.100585938 280.387695312 292 277 c 5
EndSplineSet
Layer: 2
EndChar

StartChar: uni0D8A
Encoding: 7 3466 6
Width: 528
VWidth: 1000
Flags: HW
LayerCount: 3
Back
Fore
SplineSet
410.416015625 468.34375 m 4
 410.416015625 447.78125 427.090820312 431.106445312 447.653320312 431.106445312 c 4
 468.215820312 431.106445312 484.890625 447.78125 484.890625 468.34375 c 4
 484.890625 488.90625 468.215820312 505.581054688 447.653320312 505.581054688 c 4
 427.090820312 505.581054688 410.416015625 488.90625 410.416015625 468.34375 c 4
382.01953125 468 m 4
 382.01953125 504.245117188 411.408203125 533.633789062 447.653320312 533.633789062 c 4
 483.8984375 533.633789062 513.287109375 504.245117188 513.287109375 468 c 4
 513.287109375 431.754882812 483.8984375 402.366210938 447.653320312 402.366210938 c 4
 411.408203125 402.366210938 382.01953125 431.754882812 382.01953125 468 c 4
145.416015625 538.34375 m 4
 145.416015625 517.78125 162.090820312 501.106445312 182.653320312 501.106445312 c 4
 203.215820312 501.106445312 219.890625 517.78125 219.890625 538.34375 c 4
 219.890625 558.90625 203.215820312 575.581054688 182.653320312 575.581054688 c 4
 162.090820312 575.581054688 145.416015625 558.90625 145.416015625 538.34375 c 4
117.01953125 538 m 4
 117.01953125 574.245117188 146.408203125 603.633789062 182.653320312 603.633789062 c 4
 218.8984375 603.633789062 248.287109375 574.245117188 248.287109375 538 c 4
 248.287109375 501.754882812 218.8984375 472.366210938 182.653320312 472.366210938 c 4
 146.408203125 472.366210938 117.01953125 501.754882812 117.01953125 538 c 4
170 422 m 4
 223.263083971 449.696803665 256 482 285 518 c 4
 316.623205551 557.256742977 338 629 388 629 c 4
 414 629 430 611 430 594 c 4
 430 574 407.640543289 549.698339844 359 509 c 4
 326.333007812 481.666992188 294 462 247 436 c 5
 252 437 253.262695312 437 262 437 c 4
 333 437 388 413 429.5 366.5 c 132
 465.350590935 326.33006076 482 281.003971989 482 225 c 4
 482 102 383.523302632 0 248 0 c 4
 123.953919804 0 31 89.1821923439 31 213 c 4
 31 322.52211473 94.1602958814 382.563353858 170 422 c 4
79 256 m 4
 79 198 119.981445312 138 228 138 c 4
 333 138 406 191 406 291 c 4
 406 362 351.594726562 411 260 411 c 4
 182 411 79 352 79 256 c 4
EndSplineSet
Layer: 2
EndChar

StartChar: uni0D8B
Encoding: 8 3467 7
Width: 651
VWidth: 1000
Flags: HW
LayerCount: 3
Back
Fore
SplineSet
539 268 m 5
 539.048828125 269.674804688 539.074783684 274.341975608 539.074783684 275.999995706 c 4
 539.074783684 370 468.871700649 431.5 376 431.5 c 4
 313 431.5 267 410 267 365 c 4
 267 345.182366328 281 324 313 324 c 4
 340 324 354.454101562 342.049804688 362 354.5 c 132
 375.69921875 377.104492188 396 383 416 383 c 4
 456 383 501 346 504 296 c 5
 264 296 l 6
 121 296 32 210 32 99 c 4
 32 -62 177 -161 328 -161 c 4
 480 -161 603 -64 603 69 c 5
 571 69 l 5
 571 -34 476 -98 394 -98 c 4
 279 -98 187 -23 187 117 c 4
 187 210.638671875 231 268 355 268 c 6
 539 268 l 5
EndSplineSet
Layer: 2
EndChar

StartChar: uni0DA7
Encoding: 33 3495 8
Width: 603
VWidth: 1000
Flags: HW
LayerCount: 3
Back
Fore
SplineSet
97.904296875 261.756835938 m 4
 97.904296875 321 154 362.3515625 234 362.3515625 c 4
 266 362.3515625 293.88671875 355.911132812 321 343 c 13
 321 375 l 21
 291.655125054 386.085841646 259 391.378618529 232.000003444 391.378618529 c 4
 126.170095138 391.378618529 31.5960301257 322.618280415 31.5960301257 207.869486361 c 4
 31.5960301257 80.6392374287 132.917850402 -1.15398720145 285.242387952 -1.15398720145 c 4
 447.244413075 -1.15398720145 557.006697374 115.25051458 557.006697374 271.182978806 c 4
 557.006697374 433.236971394 446.243363388 577.079858394 273.087127664 577.079858394 c 4
 176.649876667 577.079858394 103.927953012 539.371756626 57 470 c 13
 93 470 l 21
 135 523 194.708007812 551.084960938 275.440429688 551.084960938 c 4
 418 551.084960938 489.0859375 430 489.0859375 325.66015625 c 4
 489.0859375 201 401 140 278 140 c 4
 188 140 97.904296875 174 97.904296875 261.756835938 c 4
EndSplineSet
Layer: 2
EndChar

StartChar: uni0D91
Encoding: 14 3473 9
Width: 595
VWidth: 1000
Flags: HW
LayerCount: 3
Back
Fore
SplineSet
496 301 m 4
 496 351 484 387 471 410 c 5
 456 379 426 359 383 359 c 4
 319.844284656 359 283 414 283 480 c 4
 283 530 298 566 325 597 c 5
 386 564 456.96484375 492.2421875 493 430 c 4
 531.783203125 363.01171875 545 315 545 245 c 4
 545 117 459 0 276 0 c 4
 155 0 45 46 45 165 c 4
 45 195.720703125 54.775390625 227.831054688 78 248 c 4
 94.126953125 262.004882812 113 273 139 278 c 5
 172.760742188 290.19921875 213.875 302 251 302 c 6
 261 302 l 5
 261.08203125 304.041015625 261.0859375 306.041015625 261.0859375 308 c 4
 261.0859375 356 230 389 193 389 c 132
 170 389 152.745215065 371.085326199 147.5 355 c 132
 140 332 128 321 102 321 c 4
 84 321 64 333.368164062 64 359 c 4
 64 406 114 431.5 169 431.5 c 4
 257 431.5 295.146484375 363 295.146484375 290 c 4
 295.146484375 286.721679688 295.100585938 278.387695312 295 275 c 5
 233 275 l 6
 188.559570312 275 158.28515625 267.553710938 135 253 c 4
 119 243 108 227 108 207 c 4
 108 149 199 140 279 140 c 4
 432 140 496 210 496 301 c 4
129 275 m 6
 58 274 32 270.666992188 16 268 c 5
 16 302 l 5
 259 302 l 5
 291 275 l 5
 129 275 l 6
449 441 m 5
 419 485 372 529 334 557 c 5
 326 540 317 518 317 488 c 4
 317 438.666992188 350 406 394 406 c 4
 413 406 439 416 449 441 c 5
EndSplineSet
Layer: 2
EndChar

StartChar: uni0D94
Encoding: 17 3476 10
Width: 636
VWidth: 1000
Flags: HW
LayerCount: 3
Back
Fore
SplineSet
274.940429688 361 m 4
 274.940429688 335.51953125 295.51953125 314.940429688 321 314.940429688 c 4
 346.48046875 314.940429688 367.059570312 335.51953125 367.059570312 361 c 4
 367.059570312 386.48046875 346.48046875 407.059570312 321 407.059570312 c 4
 295.51953125 407.059570312 274.940429688 386.48046875 274.940429688 361 c 4
388 331 m 5
 383 316 362 285 318 285 c 4
 271.34375 285 243 322 243 360 c 260
 243 402 274 434 322 434 c 4
 384 434 420 389 420 330 c 4
 420 265 367 225 296 225 c 4
 222 225 170 264 170 339 c 4
 170 344.219726562 170.275390625 362.934570312 170.275390625 372 c 4
 170.275390625 392 164 403 145 403 c 4
 98 403 74 329 74 279 c 4
 74 198 126 138 204 138 c 4
 273 138 291 171.666992188 291 205 c 6
 291 208 l 5
 319 208 l 5
 319 204 l 6
 319 171 342 139 403 139 c 4
 498.55859375 139 531 230 531 323 c 4
 531 437 458 553 298 553 c 4
 199 553 142 522 96 466 c 5
 62 466 l 5
 107 531 173 579 300 579 c 4
 488 579 590 431.114542606 590 254 c 4
 590 126.500578052 543 0 406 0 c 4
 365 0 321 16 305 55 c 5
 283 15 246 0 196 0 c 4
 78 0 30 127 30 224 c 4
 30 332 74 431.5 148 431.5 c 4
 167.006835938 431.5 175 428 182 423 c 4
 192.609375 415.421875 200.873046875 401 200.873046875 371 c 4
 200.873046875 357 201 340.014648438 201 337 c 4
 201 284 240 256 295 256 c 4
 348 256 389 281 389 326 c 4
 389 327 389 329 388 331 c 5
EndSplineSet
Layer: 2
EndChar

StartChar: uni0D9A
Encoding: 20 3482 11
Width: 746
VWidth: 1000
Flags: HW
LayerCount: 3
Back
Fore
SplineSet
113 323 m 0
 104.732279418 305.545923216 87 297 72 297 c 128
 35 297 29 328 29 340 c 0
 29 394.098632812 79.3632281498 433 136 433 c 0
 188.347731079 433 220 399 220 358 c 0
 220 352 220 349 219 341 c 1
 278 396 366 434 453 434 c 0
 603 434 701.000000002 328 701 192 c 0
 700.999999999 109.999777824 659 0 553 -1 c 0
 543.000444969 -1.09433542483 521 1 504 12 c 1
 504 40 l 1
 518 33 531 30 543 30 c 0
 584 30 597 77 597 123 c 0
 597 288 469 348 358 348 c 0
 294 348 244 330 214 304 c 1
 244 312 277.666992188 314 305 314 c 0
 425 314 515 250 515 126 c 0
 515 67.8472233203 482 -1 397 -1 c 0
 351 -1 317.333333333 20.3333333333 296 63 c 1
 278.666666667 21.6666666667 246.021148364 -1 204 -1 c 0
 117 -1 120 73 87 73 c 0
 64.6748046875 73 52 51 49 11 c 1
 21 22 l 1
 28.6966338402 91.2697045622 74.4524773728 184.16496867 109 232 c 0
 135 268 148 280 171 304 c 1
 180 314 193 331 193 352 c 0
 193 371 182 386 158 386 c 0
 144 386 128.438133087 378.533465805 124 363 c 0
 118 342 122 342 113 323 c 0
180 268 m 1
 162.666992188 253.333007812 146.522390704 234.996134377 131 212 c 0
 104 172 101 163 91 143 c 1
 103 153 115 160 129 160 c 0
 161 160 172 140 212 140 c 0
 258 140 280 157 280 214 c 0
 280 216.208984375 280.041015625 214.3046875 280 216 c 1
 308 216 l 1
 307.963867188 214.6640625 308 216.330078125 308 215 c 0
 308 154 332 140 377 140 c 0
 418 140 443 169 443 204 c 0
 443 246 402 287 301 287 c 0
 244.333007812 287 204.666992188 280 180 268 c 1
EndSplineSet
Layer: 2
EndChar

StartChar: uni0DB1
Encoding: 43 3505 12
Width: 806
VWidth: 1000
Flags: HW
LayerCount: 3
Back
Fore
SplineSet
269 297 m 5
 294.869140625 306.341796875 317.103110119 308.102003375 345.043984241 308.102003375 c 4
 428.954738746 308.102003375 498.167706599 248.943565796 498.167706599 168.852729339 c 4
 498.167706599 52.8253283098 398.034743185 -1.12218963832 276.065197429 -1.12218963832 c 4
 136 -1.12218963832 24 65 24 176 c 5
 32 167 50 160.127929688 67 160.127929688 c 4
 130 160.127929688 131 206 208 279 c 5xb7
 221 292 222.818359375 309.123046875 222.818359375 322 c 4
 222.818359375 356 204 379.551757812 180.461914062 379.551757812 c 4
 160 379.551757812 146 370 143.747070312 345 c 4
 141.766601562 323.01953125 131 294 99 294 c 4
 82 294 55.1414577919 304 55.1414577919 338.999999066 c 4
 55.1414577919 384.002988141 89.0173697483 431 154 431 c 4xaf
 219.024722972 431 253.021412916 387 253.021412916 320.000003596 c 4
 253.021412916 319.004857764 253.014776925 318.004830877 253 317 c 5
 303.120666674 374.7809841 400.63630409 432.778158251 505.999705561 432.778158251 c 4
 646 432.778158251 760 335.012578119 760 183 c 4
 760 62.6098238798 677 -1.2216796875 593 -1.2216796875 c 4
 562 -1.2216796875 540 4 528 9 c 5
 528 38 l 5
 538 34 551 31.3466796875 566 31.3466796875 c 4
 606 31.3466796875 635 78 635 137 c 4
 635 274 532 347 418 347 c 4
 365 347 304 329 269 297 c 5
334 281 m 4
 190 281 189 190 125 147 c 5
 153.727224532 138.227602737 190.042916095 133 248 133 c 4
 360 133 418 177 418 225 c 4
 418 259 390 281 334 281 c 4
EndSplineSet
Layer: 2
EndChar

StartChar: uni0D9B
Encoding: 21 3483 13
Width: 630
VWidth: 1000
Flags: HW
LayerCount: 3
Back
Fore
SplineSet
93.333984375 73 m 4
 93.333984375 49.0869140625 113.086914062 29.333984375 137 29.333984375 c 4
 160.913085938 29.333984375 180.666015625 49.0869140625 180.666015625 73 c 4
 180.666015625 96.9130859375 160.913085938 116.666015625 137 116.666015625 c 4
 113.086914062 116.666015625 93.333984375 96.9130859375 93.333984375 73 c 4
73 106 m 5
 82 132 107 148 137 148 c 4
 179 148 212 120 212 74 c 4
 212 37 182 -1 141 -1 c 4
 56 -1 32 108 32 183 c 4
 32 322 123.838867188 396 240 396 c 4
 333 396 413 343.14453125 413 258 c 4
 413 201 388 172 381 161 c 5
 384.333007812 161.666992188 387.333007812 162 390 162 c 4
 419 162 410 136 444 136 c 4
 504 136 532 215 532 318 c 4
 532 455 445 574 294 574 c 4
 205 574 140 540 99 470 c 5
 64 470 l 5
 108.666666667 553.333333333 186 601 298 601 c 4
 464 601 584 473 584 286 c 4
 584 150 524 0 416 0 c 4
 352 0 348 54 321 54 c 260
 308 54 284 34 242 -21 c 5
 202 -18 l 5
 215.333007812 -4.6669921875 244.0859375 34.025390625 286 84 c 4
 338 146 347 180 347 200 c 4
 347 235 328 275 236 275 c 4
 149 275 70 225 70 140 c 4
 70 128 70 118 73 106 c 5
EndSplineSet
Layer: 2
EndChar

StartChar: uni0DB4
Encoding: 45 3508 14
Width: 616
VWidth: 1000
Flags: HW
LayerCount: 3
Back
Fore
SplineSet
438.844851469 433.118522656 m 0
 505 433.118522656 541.018818118 392.966132064 541.018818118 354.00000109 c 0
 541.018818118 334 532.547911667 316.666882281 514 303 c 1
 554.33230994 279.472819202 574.005875264 240.742748716 574.005875264 186.451529958 c 0
 574.005875264 55.5619188946 447.644682871 -7.1054273576e-15 307 0 c 0
 158.589562849 0 31.3313942639 45.9203100819 31.3313942639 183.554236057 c 0
 31.3313942639 274.623686336 99.2296726839 326.928127469 206.999992832 326.928127469 c 0
 220 326.928127469 229.208007812 326.2890625 242 325 c 1
 242.4609375 328.82421875 242.681640625 332.491210938 242.681640625 336 c 0
 242.681640625 376 217 390.274414062 194 390.274414062 c 0
 166 390.274414062 151.787512786 376.43949242 145.653320312 358 c 0
 139 338 122 326.073242188 97 326.073242188 c 0
 76 326.073242188 55.3251953125 337 55.3251953125 367 c 0
 55.3251953125 408 103 433.625654084 158.189212207 433.625654084 c 0
 230.547628845 433.625654084 274.869626667 401 274.869626667 334.000351519 c 0
 274.869626667 322.637138529 273.631835938 309.303710938 271 296 c 1
 253.180664062 298.375976562 218.23046875 299.717773438 217 299.717773438 c 0
 144 299.717773438 96 274 96 231 c 0
 96 158 206 140 307 140 c 0
 404 140 507 166 507 239 c 0
 507 276 468 301.612304688 394 301.612304688 c 0
 370.819335938 301.612304688 346.926757812 299.168945312 324 295 c 1
 322.072265625 305.923828125 321.143157328 318.266754681 321.143157328 327.99999265 c 0
 321.143157328 397 365.956884184 433.118522656 438.844851469 433.118522656 c 0
487 315 m 1
 498.33203125 325.703125 502.478515625 338.485351562 502.478515625 351 c 0
 502.478515625 380 479 402.637695312 432 402.637695312 c 0
 390 402.637695312 355.184570312 381 355.184570312 336 c 0
 355.184570312 332.227539062 355.462890625 328.864257812 356 325 c 1
 372.955078125 327.0546875 387.344972512 328.097600692 402.999995377 328.097600692 c 0
 436 328.097600692 462.459960938 323.764648438 487 315 c 1
EndSplineSet
Layer: 2
EndChar

StartChar: uni0D9C
Encoding: 22 3484 15
Width: 636
VWidth: 1000
Flags: HW
LayerCount: 3
Back
Fore
SplineSet
233 405 m 5
 233 431 l 5
 228.954101562 431.25 223.953128016 431.5 220 431.5 c 4
 109 431.5 34 330 34 207 c 4
 34 96 97 -2 208 -2 c 4
 295 -2 352 56 352 136 c 4
 352 202 320 246 270 246 c 4
 263.333007812 246 256 244 250 241 c 5
 257 277 292 320 363 320 c 4
 461 320 498 255 498 175 c 4
 498 110 466 27 362 27 c 4
 354 27 346 28 338 29 c 5
 338 1 l 5
 348.666666667 -0.333333333333 359 -1 369 -1 c 4
 500.052817527 -1 586 95 586 217 c 4
 586 332 522 431.5 410 431.5 c 4
 288 431.5 225 321 216 194 c 5
 244 194 l 5
 244 197.333007812 245 208 246 214 c 5
 251 217 258 220 269 220 c 4
 276 220 294 216 294 191 c 4
 294 164 270 140 211 140 c 4
 142 140 88 186 88 258 c 4
 88 329 138 405.450195312 222 405.450195312 c 4
 225.310546875 405.450195312 229.64453125 405.284179688 233 405 c 5
EndSplineSet
Layer: 2
EndChar

StartChar: uni0D9D
Encoding: 23 3485 16
Width: 677
VWidth: 1000
Flags: HW
LayerCount: 3
Back
Fore
SplineSet
200 0 m 4
 109.173828125 0 51 76 51 154 c 4
 51 226 92 267 144 283 c 5
 177.760742188 295.19921875 232 308 269 308 c 6
 278 308 l 5
 278.08203125 310.041015625 278.0859375 310.041015625 278.0859375 312 c 4
 278.0859375 355 250 387 213 387 c 132
 190 387 175.573242188 374.8046875 168.5 355 c 132
 161 334 147 320 121 320 c 4
 98 320 82 333.368164062 82 359 c 4
 82 406 132 431.5 187 431.5 c 4
 275 431.5 313.146484375 369 313.146484375 293 c 4
 313.146484375 289.721679688 313.100585938 283.387695312 313 280 c 5
 224 280 l 6
 164 280 112 245 112 201 c 4
 112 157 146.083709717 138 182 138 c 4
 213.294921875 138 233 142 241 149 c 5
 241 156 242.451171875 163.723632812 245.16796875 173 c 4
 256.532226562 211.807617188 290.032226562 232 332 232 c 4
 373.967773438 232 407.467808359 211.807637325 418.831859094 173.000012663 c 4
 421.548385035 163.723222056 423 156 423 149 c 5
 431 142 450.705078125 138 482 138 c 4
 526 138 569 164 569 214 c 4
 569 251 535 288 448 288 c 4
 412 288 386 286 353 279 c 5
 352.814453125 282.706054688 352.717070236 287.374324769 352.717070236 290.99999647 c 4
 352.717070236 375 400 432 478 432 c 4
 532 432 579 405 579 351 c 4
 579 329.666992188 569 308 550 297 c 5
 597.333333333 273.666666667 628 221.08203125 628 166 c 4
 628 58 555.929102634 0 464 0 c 4
 440 0 411.666992188 4 381 12 c 5
 378 16 377 40.3330078125 377 47 c 4
 377 84 392 95 392 134 c 4
 392 171 376 200 332 200 c 4
 288 200 272 171 272 134 c 4
 272 95 287 84 287 47 c 4
 287 40.3330078125 286 16 283 12 c 5
 252.333007812 4 224 0 200 0 c 4
147 280 m 6
 76 279 21 275.666992188 5 273 c 5
 5 308 l 5
 276 308 l 5
 309 280 l 5
 147 280 l 6
385 310 m 5
 398 314 419 316 445 316 c 4
 479 316 507 312 521 307 c 5
 530 314 537 326 537 344 c 260
 537 376 500 390 471 390 c 4
 419 390 389.666992188 364.666992188 385 310 c 5
EndSplineSet
Layer: 2
EndChar

StartChar: uni0DA2
Encoding: 28 3490 17
Width: 598
VWidth: 1000
Flags: HW
LayerCount: 3
Back
Fore
SplineSet
485 220 m 4
 485 161 398 140 292 140 c 4
 189.23046875 140 95 157 95 215 c 4
 95 242 110 287 229 287 c 4
 238 287 250 286 262 285 c 5
 264.666992188 298.333007812 266 314 266 326 c 4
 266 393.392270225 220.892617187 432 154 432 c 4
 106.897999968 432 56 408.774178159 56 360 c 4
 56 334.666666667 72 320 97 320 c 4
 120 320 132 330 143 354 c 4
 149.896484375 369.047851562 164.990234375 386 187 386 c 4
 224 386 235 354 235 331 c 4
 235 324.333007812 234.333007812 317.666992188 233 311 c 5
 225 312 226.110770276 312 208 312 c 4
 96 312 33 249.202148438 33 170 c 4
 33 44 160.148102377 0 298 0 c 4
 423.685369974 0 549 45 549 168 c 4
 549 283 447 311 356 311 c 4
 343 311 335 310 327 309 c 5
 325 318.333007812 324 326.666992188 324 334 c 4
 324 374 344 406 415 406 c 4
 459 406 489 387.990914009 489 355 c 260
 489 328.515699661 468 311 439 311 c 4
 409 311 392 337 392 370 c 4
 392 436 432 485 464 507 c 4
 521.688476562 546.661132812 568 555 568 587 c 4
 568 600 562 618 533 618 c 4
 514 618 481 605 451 577 c 4
 407.380859375 536.2890625 363 460 363 369 c 4
 363 331 384 285 438 285 c 4
 503 285 520 324.446289062 520 353 c 4
 520 412 460 434 419 434 c 4
 350 434 293 409 293 331 c 4
 293 316.333333333 295.333333333 301 300 285 c 5
 314 286 333 288 355 288 c 4
 470 288 485 244 485 220 c 4
EndSplineSet
Layer: 2
EndChar

StartChar: uni0DA1
Encoding: 27 3489 18
Width: 598
VWidth: 1000
Flags: HW
LayerCount: 3
Back
Fore
SplineSet
473 291 m 4xefe0
 516.536132812 270.959960938 549 228 549 168 c 4
 549 45 423.685369974 0 298 0 c 4
 160.148102377 0 33 44 33 170 c 4
 33 249.202148438 96 312 208 312 c 4
 212.336087379 312 221.870117188 311.823242188 225.5 311.25 c 5
 226.833007812 317.916992188 227.5 323.333007812 227.5 330 c 4
 227.5 363.457336426 211.072265625 384.5 183.5 384.5 c 4
 161.490234375 384.5 150.396854266 376.047682035 143.5 361 c 4
 132.5 337 120.279296875 320.25 93.25 320.25 c 4
 74.25 320.25 53 334.666992188 53 360 c 4
 53 408.774414062 100.8984375 432 148 432 c 4
 214.892578125 432 258 393.392578125 258 326 c 4
 258 314 256.666992188 299.083007812 254 285.75 c 5
 245.322265625 286.9765625 238 287.75 229 287.75 c 4
 110 287.75 92.75 237.721472502 92.75 216.75 c 4
 92.75 156.727539062 189.23046875 137.25 292 137.25 c 4
 398 137.25 491 154.857421875 491 210.25 c 4xf7d0
 491 243.897460938 470 286.75 355 286.75 c 4
 333 286.75 298 283.75 284 282.75 c 5
 282 289.75 279 308 279 319 c 4
 279 401 336 435 406 435 c 4
 478 435 532 388.21318996 532 309.5 c 4
 532 267.432846047 506 186 433 186 c 4
 373 186 348.514648438 232.230295524 348.514648438 293 c 4
 348.514648438 411.788085317 382.770618555 510.635927388 434 569 c 4
 468.549080442 608.360714159 503.948579941 617.25 530.5 617.25 c 4
 557.690515555 617.25 573.5 602.009765625 573.5 584 c 4
 573.5 530.693359375 499.998308945 560.198621776 442 491 c 4
 408.202013147 450.675132748 378.017578125 391 378.017578125 292 c 4
 378.017578125 252.731748179 388 214.5 435 214.5 c 4
 478 214.5 502 271.775351251 502 307.5 c 4
 502 373.053165784 464 407.75 402 407.75 c 4
 358 407.75 308 386.294189453 308 324 c 4
 308 319 308 314 309 310 c 5
 316 311 334 312.319335938 350 312.319335938 c 4
 388 312.319335938 433.868164062 309.013671875 473 291 c 4xefe0
EndSplineSet
Layer: 2
EndChar

StartChar: uni0DAA
Encoding: 36 3498 19
Width: 647
VWidth: 1000
Flags: HW
LayerCount: 3
Back
Fore
SplineSet
359 603 m 1
 473 558 597.987304688 402 597.987304688 256.221679688 c 0
 597.987304688 110 547.007371766 -0.0251311659364 427.655553183 -0.0251311659364 c 0
 363.027670828 -0.0251311659364 334.630436238 28.5207489381 313 59 c 1
 283.406198924 21.686076905 250 0 199 0 c 0
 97.9838045205 0 45.8804869702 81.1902905721 45.8804869702 161.999997835 c 0
 45.8804869702 212 71.048828125 261.198242188 125 285 c 1
 15 285 l 1
 15 315 l 1
 256 315 l 1
 255 354 229 388.267578125 197 388.267578125 c 0
 188 388.267578125 169.203125 387.365234375 154 360 c 0
 144 342 129 335.263671875 113 335.263671875 c 0
 89 335.263671875 73.2109375 351 73.2109375 373.122070312 c 0
 73.2109375 413 121.100585938 432.166992188 163.279296875 432.166992188 c 0
 242 432.166992188 293 382 293 285 c 1
 224 285 l 2
 130.95703125 285 109.391601562 234 109.391601562 210 c 0
 109.391601562 164 149.990234375 140 203 140 c 0
 267 140 297 161 297 200 c 2
 297 221 l 1
 328 221 l 1
 328 200 l 2
 328 164 353 140 414 140 c 0
 489 140 537.143554688 200 537.143554688 293.217773438 c 0
 537.143554688 336.219195791 525.755101251 377.126501552 508.312621615 413.660617889 c 1
 491.339240053 388.06413444 464.798528494 363 422 363 c 0
 356 363 318 411 318 477 c 0
 318 541 348 586 359 603 c 1
491.289546094 445.027555455 m 1
 456.370107738 502.288664331 408.575753914 544.995530862 374 562 c 1
 361 547 350 510 350 481 c 0
 350 424 378 396 424 396 c 0
 454.905156443 396.000000003 477.872955309 420.14279595 491.289546094 445.027555455 c 1
EndSplineSet
Layer: 2
EndChar

StartChar: uni0DAB
Encoding: 37 3499 20
Width: 963
VWidth: 1000
Flags: HW
LayerCount: 3
Back
Fore
SplineSet
337 129 m 0x47fc80
 455 129 492 204 492 270 c 0
 492 316 460 404 355 404 c 0
 271 404 202 366 202 297 c 0
 202 222 268 199 322 199 c 1x4bfc80
 405 194 l 1
 384 180 362 170 321 170 c 0x13fc80
 232 170 170 216.993164062 170 292 c 0
 170 384 253 433 359 433 c 0
 440 433 584 390 584 213 c 0
 584 114 520 0 365 0 c 0
 167 0 180 179 99 179 c 0
 71 179 54 166 33 152 c 1
 22 178 l 1
 232 322 505 453 660 501 c 0
 720.723632812 519.8046875 762 528 805 528 c 0
 844 528 863 506 863 485 c 0
 863 469.666992188 854.226173597 447.019386308 819 444 c 0
 784 441 679.610306533 433.21303925 600 416 c 0
 415 376 247 288 116 206 c 1
 177 206 195 129 337 129 c 0x47fc80
265.606445312 264 m 0
 265.606445312 311.858398438 305.141601562 351.393554688 353 351.393554688 c 0
 400.858398438 351.393554688 440.393554688 311.858398438 440.393554688 264 c 0
 440.393554688 216.141601562 400.858398438 176.606445312 353 176.606445312 c 0
 305.141601562 176.606445312 265.606445312 216.141601562 265.606445312 264 c 0
295.698242188 264 m 0
 295.698242188 233.088867188 321.088867188 207.698242188 352 207.698242188 c 0
 382.911132812 207.698242188 408.301757812 233.088867188 408.301757812 264 c 0
 408.301757812 294.911132812 382.911132812 320.301757812 352 320.301757812 c 0
 321.088867188 320.301757812 295.698242188 294.911132812 295.698242188 264 c 0
548.840820312 161 m 0
 548.840820312 229.840820312 591.45703125 285.5703125 645 285.5703125 c 0
 678.23261322 285.5703125 702.61930344 273.658323614 718.51845908 251.456882252 c 1
 722.611564195 300.383927548 751.161184096 347.787109386 812 347.787109375 c 0
 882 347.787109375 915.36328125 264.7578125 915.36328125 168 c 0
 915.36328125 73 883 -0.787109375 800 -0.787109375 c 0
 748.10533203 -0.787109375 718.595375908 33.0143837606 713.721124729 67.7436353538 c 1
 697.390407373 47.7453010704 674.144597409 36.4296875 645 36.4296875 c 0
 591.45703125 36.4296875 548.840820312 92.1591796875 548.840820312 161 c 0
578.721679688 162 m 0
 578.721679688 110.8359375 606.653320312 69.41796875 643 69.41796875 c 0
 684.411132812 69.41796875 708.278320312 106.259765625 708.278320312 162 c 0
 708.278320312 220.711914062 687.125976562 254.58203125 643 254.58203125 c 0
 606.653320312 254.58203125 578.721679688 213.1640625 578.721679688 162 c 0
739.438610732 191.222474034 m 0
 740.587875926 181.781343792 741.159179688 171.697138665 741.159179688 161 c 0
 741.159179688 144.658372384 739.489985643 129.524027854 736.247989567 115.846684876 c 0
 736.093703588 112.27601075 736.00000012 108.677216247 736 105 c 0
 736 58 768 50 778 50 c 0
 814 50 821 95 821 169 c 0
 821 245 810 286 780 286 c 0
 755.762538785 286 742.000947035 252.96071938 739.438610732 191.222474034 c 0
EndSplineSet
Layer: 2
SplineSet
337 129 m 0
 455 129 492 204 492 270 c 0
 492 298.058403381 480.094155005 341.743228319 446.9778325 371.551981476 c 1
 425.037547386 363.607845397 403.458957545 355.142725061 382.282344792 346.265381172 c 1
 415.972108989 334.087060959 440.39355465 301.61422489 440.393554688 264 c 0
 440.393554688 228.723947295 418.528168453 198.27952322 389.525877443 184.729351133 c 0
 372.398681279 175.791204959 352.20098471 170.000000541 321 170 c 0
 252.708171256 170 200.313564401 197.668916901 179.628814645 244.432013946 c 1
 157.576936198 231.611462581 136.342368167 218.733390761 116 206 c 1
 177 206 195 129 337 129 c 0
643 69.41796875 m 0
 684.411132812 69.41796875 708.278320312 106.259765625 708.278320312 162 c 0
 708.278320312 220.711914062 687.125976562 254.58203125 643 254.58203125 c 0
 615.568464776 254.58203125 592.930144188 230.990314982 583.475006268 197.422266158 c 0
 582.722154934 186.23215146 578.732243217 168 578.732243217 163.721841459 c 0
 578.732243217 108 606.260786293 69.41796875 643 69.41796875 c 0
295.698242188 264 m 0
 295.698242188 233.088867188 321.088867188 207.698242188 352 207.698242188 c 0
 382.911132812 207.698242188 408.301757812 233.088867188 408.301757812 264 c 0
 408.301757812 294.911132812 382.911132812 320.301757812 352 320.301757812 c 0
 321.088867188 320.301757812 295.698242188 294.911132812 295.698242188 264 c 0
448.507593306 417.109682716 m 1
 529.055695844 454.081598456 602.614851496 483.229115301 660 501 c 0
 720.723632812 519.8046875 762 528 805 528 c 0
 844 528 863 506 863 485 c 0
 863 469.666992188 854.226173597 447.019386308 819 444 c 0
 784 441 679.610306533 433.21303925 600 416 c 0
 566.47301648 408.750922482 533.504367411 399.925371218 501.213094257 389.844758157 c 1
 539.982716439 362.446843432 571.715781711 319.52090245 581.14253069 254.354142431 c 1
 598.062239741 273.783060346 620.375569675 285.570312496 645 285.5703125 c 0
 678.23261322 285.5703125 702.61930344 273.658323614 718.51845908 251.456882252 c 1
 722.611564195 300.383927548 751.161184096 347.787109386 812 347.787109375 c 0
 882 347.787109375 915.36328125 264.7578125 915.36328125 168 c 0
 915.36328125 73 883 -0.787109375 800 -0.787109375 c 0
 748.10533203 -0.787109375 718.595375908 33.0143837606 713.721124729 67.7436353538 c 1
 697.390407373 47.7453010704 674.144597409 36.4296875 645 36.4296875 c 0
 606.510462726 36.4296875 573.667327548 65.2279025706 558.242193809 106.993073331 c 1
 526.628783301 47.0744461114 464.602876721 -1.42108547152e-14 365 0 c 0
 167 0 180 179 99 179 c 0
 71 179 54 166 33 152 c 1
 22 178 l 1
 69.3135081149 210.443548422 119.824970587 242.2272015 171.464359787 272.550396063 c 1
 170.496480038 278.80020421 170 285.287938969 170 292 c 0
 170 384 253 433 359 433 c 0
 384.698073677 433 416.737350283 428.671877366 448.507593306 417.109682716 c 1
202.178736137 290.340961173 m 1
 269.866328098 329.017453684 338.772102724 364.951895095 404.331612518 396.379029629 c 1
 390.043529577 401.215813768 373.676569305 404 355 404 c 0
 271 404 202 366 202 297 c 0
 202 294.733080794 202.060296693 292.513668074 202.178736137 290.340961173 c 1
208.201737876 260.742532119 m 1
 221.988792597 224.480827274 256.782882678 207.1948743 292.362139011 201.366285966 c 1
 275.909033368 217.307164363 265.606445312 239.569092531 265.606445312 264 c 0
 265.606445312 274.700070869 267.582688772 284.984087915 271.186351623 294.503228403 c 1
 249.596117221 283.462158391 228.583257038 272.160022139 208.201737876 260.742532119 c 1
739.438610732 191.222474034 m 0
 740.587875926 181.781343792 741.159179688 171.697138665 741.159179688 161 c 0
 741.159179688 144.658372384 739.489985643 129.524027854 736.247989567 115.846684876 c 0
 736.093703588 112.27601075 736.00000012 108.677216247 736 105 c 0
 736 58 768 50 778 50 c 0
 814 50 821 95 821 169 c 0
 821 245 810 286 780 286 c 0
 755.762538785 286 742.000947035 252.96071938 739.438610732 191.222474034 c 0
EndSplineSet
EndChar

StartChar: uni0DAC
Encoding: 38 3500 21
Width: 731
VWidth: 1000
Flags: HW
LayerCount: 3
Back
Fore
SplineSet
160.2109375 373.122070312 m 0
 160.2109375 413 208.100585938 432.166992188 250.279296875 432.166992188 c 0
 329 432.166992188 382 384 382 285 c 1
 311 285 l 2
 217.95703125 285 196.391601562 234 196.391601562 210 c 0
 196.391601562 164 243.990234375 140 297 140 c 0
 357 140 384 161 384 200 c 2
 384 221 l 1
 415 221 l 1
 415 200 l 2
 415 164 440 140 501 140 c 0
 576 140 626.143554688 200 626.143554688 293.217773438 c 0
 626.143554688 422 547 555.08984375 385.46484375 555.08984375 c 0
 304.965820312 555.08984375 241 522 196 468 c 1
 160 468 l 1
 214.2578125 545.93359375 296.737304688 582.020507812 391.119140625 582.020507812 c 0
 565.635742188 582.020507812 684.987304688 444 684.987304688 258.221679688 c 0
 684.987304688 110 634.0078125 -0.025390625 514.655273438 -0.025390625 c 0
 450.02734375 -0.025390625 421.630859375 28.5205078125 400 59 c 1
 370.40625 21.6865234375 337 0 286 0 c 0
 184.983398438 0 132.880859375 81.1904296875 132.880859375 162 c 0
 132.880859375 212 158.048828125 261.198242188 212 285 c 1
 102 285 l 1
 102 315 l 1
 345 315 l 1
 343 350 318 388.267578125 284 388.267578125 c 0
 275 388.267578125 256.203125 387.365234375 241 360 c 0
 231 342 216 335.263671875 200 335.263671875 c 0
 176 335.263671875 160.2109375 351 160.2109375 373.122070312 c 0
293 427 m 1
 272 416 195 404 178 398 c 1
 106 381 59 319.267578125 59 218 c 0
 59 137.333007812 86 78 135 34 c 1
 135 0 l 1
 68.5828449348 33.2085775326 27 120.069879655 27 221 c 0
 27 352.699751668 99.7561968728 433 239 433 c 0
 248 433 271 433 293 427 c 1
EndSplineSet
Layer: 2
EndChar

StartChar: uni0DAD
Encoding: 39 3501 22
Width: 704
VWidth: 1000
Flags: HW
LayerCount: 3
Back
Fore
SplineSet
165 313 m 5
 172 321 177.959960938 332 177.959960938 346 c 4
 177.959960938 372 166 385 152 385 c 4
 135.319335938 385 124.702148438 374.211914062 124 353.5 c 132
 123 324 113 293 78 293 c 4
 49 293 37 316.58246164 37 342 c 4
 37 392 78 433 127 433 c 4
 177.34375 433 206.099996048 400 206.099996048 353.000004068 c 4
 206.099996048 351.354874105 206.063701524 349.688090391 206 348 c 5
 272 420 359 435 423 435 c 4
 562 435 664 334 664 185 c 4
 664 82 610 -1 510 -1 c 4
 483 -1 463 6 454 11 c 5
 454 41 l 5
 462 38 472 35 489 35 c 4
 534 35 553 98 553 145 c 4
 553 292 458 356 339 356 c 4
 299 356 234 344 200 305 c 5
 221.333007812 314.333007812 249 320 281 320 c 4
 382 320 459 268 459 162 c 4
 459 70 392 -2 282 -2 c 4
 134 -2 140 79 89 79 c 4
 65 79 54.6669921875 53 46 9 c 5
 22 25 l 5
 35 130 104 245 165 313 c 5
159 259 m 5
 127.500976562 220.500976562 114 194 95 156 c 5
 104 163 116.666992188 165 128 165 c 4
 165 165 195 140 263 140 c 4
 338 140 389 161 389 217 c 4
 389 256 352 294 283 294 c 4
 233.649414062 294 191 282 159 259 c 5
EndSplineSet
Layer: 2
EndChar

StartChar: uni0DA9
Encoding: 35 3497 23
Width: 647
VWidth: 1000
Flags: HW
LayerCount: 3
Back
Fore
SplineSet
73.2109375 373.122070312 m 4
 73.2109375 351 89 335.263671875 113 335.263671875 c 0
 129 335.263671875 144 342 154 360 c 0
 169.203125 387.365234375 188 388.267578125 197 388.267578125 c 0
 231 388.267578125 256 350 258 315 c 1
 15 315 l 1
 15 285 l 1
 125 285 l 1
 71.048828125 261.198242188 45.8804869702 212 45.8804869702 161.999997835 c 0
 45.8804869702 81.1902905721 97.9838045205 0 199 0 c 0
 250 0 283.406198924 21.686076905 313 59 c 1
 334.630436238 28.5207489381 363.027670828 -0.0251311659364 427.655553183 -0.0251311659364 c 0
 547.007371766 -0.0251311659364 597.987304688 110 597.987304688 258.221679688 c 0
 597.987304688 444 478.635692634 582.020255488 304.118964686 582.020255488 c 0
 209.737496069 582.020255488 127.257569341 545.9335996 73 468 c 1
 109 468 l 1
 154 522 217.965820312 555.08984375 298.46484375 555.08984375 c 0
 460 555.08984375 539.143554688 422 539.143554688 293.217773438 c 0
 539.143554688 200 489 140 414 140 c 0
 353 140 328 164 328 200 c 2
 328 221 l 1
 297 221 l 1
 297 200 l 2
 297 161 267 140 203 140 c 0
 149.990234375 140 109.391601562 164 109.391601562 210 c 0
 109.391601562 234 130.95703125 285 224 285 c 2
 295 285 l 1
 295 384 242 432.166992188 163.279296875 432.166992188 c 0
 121.100585938 432.166992188 73.2109375 413 73.2109375 373.122070312 c 4
EndSplineSet
Layer: 2
EndChar

StartChar: uni0DAE
Encoding: 40 3502 24
Width: 614
VWidth: 1000
Flags: HW
LayerCount: 3
Back
Fore
SplineSet
514 317 m 4
 514 351 509 380 492 417 c 5
 477.333007812 384.333007812 448 367 405 367 c 4
 341.844726562 367 305 422 305 488 c 4
 305 538 320 574 347 605 c 5
 408 572 478.964640054 500.242069569 515 438 c 4
 553.783203125 371.01171875 566 322 566 252 c 4
 566 102.630859375 450 -1 295 -1 c 4
 150.697265625 -1 33 92.060546875 33 235 c 4
 33 344.829101562 134 430 245 430 c 5
 245 403 l 5
 162 403 87 347 87 265 c 4
 87 169 191 140 305 140 c 4
 427 140 514 213 514 317 c 4
471 448 m 5
 441 494 395 536 357 564 c 5
 345 546 337 526.666992188 337 492 c 4
 337 442.666992188 355 405 412 405 c 4
 436 405 460.763671875 414.140625 471 448 c 5
EndSplineSet
Layer: 2
EndChar

StartChar: uni0DC4
Encoding: 58 3524 25
Width: 653
VWidth: 1000
Flags: HW
LayerCount: 3
Back
Fore
SplineSet
264 186 m 5
 270.75390625 207.010742188 282 215.412109375 296 215.412109375 c 4
 307 215.412109375 318 208 318 190 c 4
 318 152 250 138.86328125 212 138.86328125 c 4
 158 138.86328125 94 158 94 211 c 4
 94 243 125 278.020507812 205 278.020507812 c 4
 215.953125 278.020507812 227.3203125 277.352539062 239 276 c 5
 239 360.299987793 197.349468601 432.033407495 118.454977226 432.033407495 c 4
 61.7023205405 432.033407495 33.0236931219 394.207779183 33.0236931219 364.000000718 c 4
 33.0236931219 336 52 323 74 323 c 4
 90 323 105.84375 332.063476562 114 352 c 4
 123 374 137 378 152 378 c 4
 180 378 204 342 204 303 c 5
 199.958984375 303.223632812 197.957701716 303.35267071 194.00000399 303.35267071 c 4
 100 303.35267071 32.955072243 246 32.955072243 155.113004833 c 4
 32.955072243 61.0614182824 103.482897226 -0.762226007727 201.033156494 -0.762226007727 c 4
 295.501309239 -0.762226007727 366.162675468 52.9926813027 366.162675468 145.349815118 c 4
 366.162675468 199.139276778 342 242.169921875 301 242.169921875 c 4
 291.633789062 242.169921875 282.834960938 240.532226562 273 235 c 5
 282 264 299 314 374 314 c 4
 464 314 497 230 497 166 c 4
 497 112 477 28.205078125 388 28.205078125 c 4
 376.353515625 28.205078125 364.328125 29.0869140625 352 31 c 5
 352 2 l 5
 365.993045889 -0.266479263683 379.685193513 -1.30330825989 392.999994701 -1.30330825989 c 4
 516 -1.30330825989 605.018348624 92.0044933398 605.018348624 210.961535223 c 4
 605.018348624 328.650705644 542.17352523 432.009345794 430.301685736 432.009345794 c 4
 329.087366383 432.009345794 248 320 239 195 c 5
 264 186 l 5
EndSplineSet
Layer: 2
EndChar

StartChar: si_DdIi
Encoding: 224 -1 27
Width: 647
VWidth: 1000
Flags: HW
LayerCount: 3
Back
Fore
SplineSet
258 315 m 1
 256 350 231 388.267578125 197 388.267578125 c 0
 188 388.267578125 169.203125 387.365234375 154 360 c 0
 144 342 129 335.263671875 113 335.263671875 c 0
 89 335.263671875 73.2109375 351 73.2109375 373.122070312 c 0
 73.2109375 413 121.100585938 432.166992188 163.279296875 432.166992188 c 0
 242 432.166992188 295 384 295 285 c 1
 224 285 l 2
 130.95703125 285 109.391601562 234 109.391601562 210 c 0
 109.391601562 164 151.990234375 140 205 140 c 0
 263 140 297 161 297 200 c 2
 297 221 l 1
 328 221 l 1
 328 200 l 2
 328 164 353 140 414 140 c 0
 489 140 539.143554688 200 539.143554688 293.217773438 c 0
 539.143554688 424 442 453 324 458 c 0
 184.995534454 463.890019727 77 458 77 554 c 0
 77 639 175 670 307 670 c 0
 444 670 561 643 561 544 c 0
 561 503 534 466 482 460 c 1
 553.215820312 426.765625 598 347 598 241 c 0
 598 111 547.007371766 -0.0251311659364 427.655553183 -0.0251311659364 c 0
 363.027670828 -0.0251311659364 334.630436238 28.5207489381 313 59 c 1
 283.406198924 21.686076905 250 0 199 0 c 0
 97.9838045205 0 45.8804869702 81.1902905721 45.8804869702 161.999997835 c 0
 45.8804869702 212 71.048828125 261.198242188 125 285 c 1
 15 285 l 1
 15 315 l 1
 258 315 l 1
411 525 m 0
 411 502 431 484 463 484 c 0
 495 484 517 498 517 522 c 0
 517 553 489 567 462 567 c 0
 429 567 411 547 411 525 c 0
408 479 m 1
 385 489 377 514 377 526 c 0
 377 544.666992188 381 560 394 574 c 1
 360.666992188 577.333007812 324.333007812 580 287 580 c 0
 225 580 138 568 138 528 c 0
 138 504 156 492 273 489 c 0
 314.997914998 487.923130385 374 486 408 479 c 1
EndSplineSet
Layer: 2
EndChar

StartChar: uni0DB5
Encoding: 46 3509 29
Width: 583
VWidth: 1000
Flags: HW
LayerCount: 3
Back
Fore
SplineSet
484 301 m 4
 484 351 472 387 459 410 c 5
 444 379 414 359 371 359 c 4
 307.844726562 359 271 414 271 480 c 4
 271 530 286 566 313 597 c 5
 374 564 444.96484375 492.2421875 481 430 c 4
 519.783203125 363.01171875 533 315 533 245 c 4
 533 117 447 0 264 0 c 4
 143 0 33 46 33 165 c 4
 33 195.720703125 40.0923103005 239.720058563 80.75 270.5 c 4
 125.824180749 304.623450054 186.055393796 309 236.75 309 c 6
 246.75 309 l 5
 246.83203125 311.041015625 246.8359375 313.041015625 246.8359375 315 c 4
 246.8359375 357.472417829 216.116210938 389 181 389 c 132
 158 389 140.745117188 371.084960938 135.5 355 c 132
 128 332 116 321 90 321 c 4
 72 321 52 333.368164062 52 359 c 4
 52 406 102 431.5 157 431.5 c 4
 245 431.5 280.896484375 364.15705951 280.896484375 297 c 4
 280.896484375 293.721679688 280.850585938 285.387695312 280.75 282 c 5
 219.5 282 l 6
 154.762695312 282 101 261.955908042 101 213 c 4
 101 158 187 140 267 140 c 4
 420 140 484 210 484 301 c 4
437 441 m 5
 407 485 360 529 322 557 c 5
 314 540 305 518 305 488 c 4
 305 438.666992188 338 406 382 406 c 4
 401 406 427 416 437 441 c 5
EndSplineSet
Layer: 2
EndChar

StartChar: uni0DD0
Encoding: 63 3536 31
Width: 334
VWidth: 1000
Flags: HW
LayerCount: 3
Back
Fore
SplineSet
3 339 m 5
 249 339 l 21
 248.333007812 337 247.083007812 329.166992188 245.75 320.5 c 5
 192.970703125 238.489257812 178 169 178 90 c 4
 178 12.189453125 213.009765625 -83.306640625 302 -86.25 c 5
 306 -106 l 5
 278.666992188 -136.666992188 238.75 -147 197.75 -147 c 4
 112.75 -147 50 -83.2431640625 50 18.25 c 4
 50 154.791015625 148.532226562 247.412109375 208.25 311.25 c 5
 3 311.25 l 5
 3 339 l 5
EndSplineSet
Layer: 2
EndChar

StartChar: uni0D82
Encoding: 0 3458 32
Width: 364
VWidth: 1000
Flags: HW
LayerCount: 3
Back
Fore
SplineSet
82.373046875 192 m 4
 82.373046875 143.8828125 122.939453125 104.891601562 173 104.891601562 c 4
 223.060546875 104.891601562 263.626953125 143.8828125 263.626953125 192 c 4
 263.626953125 240.1171875 223.060546875 279.108398438 173 279.108398438 c 4
 122.939453125 279.108398438 82.373046875 240.1171875 82.373046875 192 c 4
28.462890625 165 m 4
 28.462890625 242.8828125 93.560546875 306.704101562 173 306.704101562 c 4
 252.439453125 306.704101562 317.537109375 242.8828125 317.537109375 165 c 4
 317.537109375 87.1171875 252.439453125 23.2958984375 173 23.2958984375 c 4
 93.560546875 23.2958984375 28.462890625 87.1171875 28.462890625 165 c 4
EndSplineSet
Layer: 2
EndChar

StartChar: uni0D83
Encoding: 1 3459 33
Width: 248
VWidth: 1000
Flags: HW
LayerCount: 3
Back
Fore
SplineSet
63.1865234375 111 m 4
 63.1865234375 82.21484375 86.21484375 59.1865234375 115 59.1865234375 c 4
 143.78515625 59.1865234375 166.813476562 82.21484375 166.813476562 111 c 4
 166.813476562 139.78515625 143.78515625 162.813476562 115 162.813476562 c 4
 86.21484375 162.813476562 63.1865234375 139.78515625 63.1865234375 111 c 4
31 110 m 4
 31 156 69 194 115 194 c 4
 161 194 199 156 199 110 c 4
 199 64 161 26 115 26 c 4
 69 26 31 64 31 110 c 4
63.1865234375 313 m 4
 63.1865234375 284.21484375 86.21484375 261.186523438 115 261.186523438 c 4
 143.78515625 261.186523438 166.813476562 284.21484375 166.813476562 313 c 4
 166.813476562 341.78515625 143.78515625 364.813476562 115 364.813476562 c 4
 86.21484375 364.813476562 63.1865234375 341.78515625 63.1865234375 313 c 4
31 312 m 4
 31 358 69 396 115 396 c 4
 161 396 199 358 199 312 c 4
 199 266 161 228 115 228 c 4
 69 228 31 266 31 312 c 4
EndSplineSet
Layer: 2
EndChar

StartChar: uni0D86
Encoding: 3 3462 34
Width: 861
VWidth: 1000
Flags: HW
LayerCount: 3
Back
Fore
SplineSet
677 201 m 4
 677 311.459960938 652.036132812 338 630 338 c 4
 619.780273438 338 594.75 331.393554688 594.75 284.830078125 c 4
 594.75 279.443359375 595.083007812 274.393554688 595.75 269.6796875 c 5
 568 269.6796875 l 5
 567.333007812 277.0859375 567 284.494140625 567 291.900390625 c 4
 567 360.728515625 619 403 678 403 c 4
 769 403 815 329.26953125 815 201 c 4
 815 72.73046875 769 -1 678 -1 c 4
 610.587890625 -1 567 41.271484375 567 110.099609375 c 4
 567 117.506835938 567.333007812 124.9140625 568 132.3203125 c 5
 595.75 132.3203125 l 5
 595.083007812 127.606445312 594.75 122.556640625 594.75 117.169921875 c 4
 594.75 70.4501953125 618.486328125 66 630 66 c 4
 652.64453125 66 677 90.5400390625 677 201 c 4
430 198 m 4
 481 198 529 225 529 281 c 4
 529 359 445 369 445 403 c 4
 445 414 451 418 457 421 c 5
 438 418 l 4
 420 403 l 5
 419.681640625 400.931640625 419.451171875 394.934570312 419.451171875 393 c 4
 419.451171875 376 424 362 435 346 c 4
 446.78870115 328.852798327 452 314 452 291 c 4
 452 256 434 231 407 231 c 4
 396 231 391 232 384 235 c 13
 384 203 l 21
 397 200 411 198 430 198 c 4
464 424 m 5
 439 435 l 5
 419 429.666666667 398.125818599 417.514105747 383 400 c 4
 364 378 356 350 356 313 c 4
 356 137 356 -39 356 -215 c 5
 388 -215 l 5
 388 311 l 6
 388 350 393 394 464 424 c 5
523 51 m 5
 523 85 l 5
 480 52 418 35 335 35 c 4
 242 35 187 88 187 164 c 4
 187 200 201 285 309 285 c 6
 344 285 l 5
 344.014648438 286.002929688 344.0234375 289.002929688 344.0234375 290 c 4
 344.0234375 382 295 433 211 433 c 4
 154 433 106 410 106 369 c 4
 106 344.66015625 126 328 148 328 c 4
 176 328 190.188476562 344.376953125 197 358 c 4
 203 370 211 387 244 387 c 4
 284 387 310 348 311 309 c 5
 202 309 l 6
 94 309 33 248 33 160 c 4
 33 62 118 -4 282 -4 c 4
 386 -4 472 17 523 51 c 5
EndSplineSet
Layer: 2
EndChar

StartChar: uni0D87
Encoding: 4 3463 35
Width: 878
VWidth: 1000
Flags: HW
LayerCount: 3
Back
Fore
SplineSet
547 339 m 5
 793 339 l 21
 792.333007812 337 791.083007812 329.166992188 789.75 320.5 c 5
 736.970703125 238.489257812 722 169 722 90 c 4
 722 12.189453125 757.009765625 -83.306640625 846 -86.25 c 5
 850 -106 l 5
 822.666992188 -136.666992188 782.75 -147 741.75 -147 c 4
 656.75 -147 594 -83.2431640625 594 18.25 c 4
 594 154.791015625 692.532226562 247.412109375 752.25 311.25 c 5
 547 311.25 l 5
 547 339 l 5
430 198 m 4
 481 198 529 225 529 281 c 4
 529 359 445 369 445 403 c 4
 445 414 451 418 457 421 c 5
 438 418 l 4
 420 403 l 5
 419.681640625 400.931640625 419.451171875 394.934570312 419.451171875 393 c 4
 419.451171875 376 424 362 435 346 c 4
 446.78870115 328.852798327 452 314 452 291 c 4
 452 256 434 231 407 231 c 4
 396 231 391 232 384 235 c 13
 384 203 l 21
 397 200 411 198 430 198 c 4
464 424 m 5
 439 435 l 5
 419 429.666666667 398.125818599 417.514105747 383 400 c 4
 364 378 356 350 356 313 c 4
 356 137 356 -39 356 -215 c 5
 388 -215 l 5
 388 311 l 6
 388 350 393 394 464 424 c 5
523 51 m 5
 523 85 l 5
 480 52 418 35 335 35 c 4
 242 35 187 88 187 164 c 4
 187 200 201 285 309 285 c 6
 344 285 l 5
 344.014648438 286.002929688 344.0234375 289.002929688 344.0234375 290 c 4
 344.0234375 382 295 433 211 433 c 4
 154 433 106 410 106 369 c 4
 106 344.66015625 126 328 148 328 c 4
 176 328 190.188476562 344.376953125 197 358 c 4
 203 370 211 387 244 387 c 4
 284 387 310 348 311 309 c 5
 202 309 l 6
 94 309 33 248 33 160 c 4
 33 62 118 -4 282 -4 c 4
 386 -4 472 17 523 51 c 5
EndSplineSet
Layer: 2
EndChar

StartChar: uni0D88
Encoding: 5 3464 36
Width: 878
VWidth: 1000
Flags: HW
LayerCount: 3
Back
Fore
SplineSet
545 339 m 5
 790 339 l 5
 790 317 l 5
 663 223 l 5
 813 223 l 5
 813 200.5 l 5
 767.4375 165.33984375 729 118.344726562 729 36 c 4
 729 -28.8525390625 767.107421875 -99.75 847 -99.75 c 5
 847 -126.75 l 5
 813.6484375 -141.067382812 778.3515625 -148 748.25 -148 c 4
 657.658203125 -148 596.75 -100.616210938 596.75 -18 c 4
 596.75 96.337890625 700.166992188 155.98046875 768.5 196.5 c 5
 613 196.5 l 5
 613 221.25 l 5
 738.75 312.5 l 5
 545 312.5 l 5
 545 339 l 5
430 198 m 4
 481 198 529 225 529 281 c 4
 529 359 445 369 445 403 c 4
 445 414 451 418 457 421 c 5
 438 418 l 4
 420 403 l 5
 419.681640625 400.931640625 419.451171875 394.934570312 419.451171875 393 c 4
 419.451171875 376 424 362 435 346 c 4
 446.78870115 328.852798327 452 314 452 291 c 4
 452 256 434 231 407 231 c 4
 396 231 391 232 384 235 c 13
 384 203 l 21
 397 200 411 198 430 198 c 4
464 424 m 5
 439 435 l 5
 419 429.666666667 398.125818599 417.514105747 383 400 c 4
 364 378 356 350 356 313 c 4
 356 137 356 -39 356 -215 c 5
 388 -215 l 5
 388 311 l 6
 388 350 393 394 464 424 c 5
523 51 m 5
 523 85 l 5
 480 52 418 35 335 35 c 4
 242 35 187 88 187 164 c 4
 187 200 201 285 309 285 c 6
 344 285 l 5
 344.014648438 286.002929688 344.0234375 289.002929688 344.0234375 290 c 4
 344.0234375 382 295 433 211 433 c 4
 154 433 106 410 106 369 c 4
 106 344.66015625 126 328 148 328 c 4
 176 328 190.188476562 344.376953125 197 358 c 4
 203 370 211 387 244 387 c 4
 284 387 310 348 311 309 c 5
 202 309 l 6
 94 309 33 248 33 160 c 4
 33 62 118 -4 282 -4 c 4
 386 -4 472 17 523 51 c 5
EndSplineSet
Layer: 2
EndChar

StartChar: uni0D8C
Encoding: 9 3468 37
Width: 991
VWidth: 1000
Flags: HW
LayerCount: 3
Back
Fore
SplineSet
656.25 428 m 5
 620 428 l 5
 599 404 583 369.666992188 583 321 c 4
 583 261.448242188 616.29296875 212 671.75 212 c 4
 722.243164062 212 751 237.916015625 751 288 c 4
 751 312 738 332.833007812 714 345.5 c 5
 713.86328125 347.884765625 713.861328125 350.21875 713.861328125 352.5 c 4
 713.861328125 381.922851562 734.153320312 389 748.5 389 c 4
 777.099609375 389 802 343.736328125 802 238 c 4
 802 111.57421875 784.3515625 63 743 63 c 4
 721.959960938 63 695.25 75.693359375 695.25 125 c 4
 695.25 135.666992188 696.25 146.333007812 698.25 157 c 5
 671 157 l 5
 668.333007812 144.333007812 667 132 667 120 c 4
 667 53.9697265625 701.486328125 -2 783.5 -2 c 4
 897.71484375 -2 943 101 943 220 c 4
 943 315.586914062 904.4375 432.25 785 432.25 c 4
 724.8203125 432.25 685.138671875 398 685.138671875 349 c 4
 685.138671875 344.20703125 685.43359375 342.20703125 686 337 c 5
 699.333007812 323 706 307.333007812 706 290 c 4
 706 261.458007812 690.388671875 246.5 666.5 246.5 c 4
 635.360351562 246.5 613.75 276.290039062 613.75 322 c 4
 613.75 374.666992188 634.25 410 656.25 428 c 5
539 268 m 5
 539.048828125 269.674804688 539.074783684 274.341975608 539.074783684 275.999995706 c 4
 539.074783684 370 468.871700649 431.5 376 431.5 c 4
 313 431.5 267 410 267 365 c 4
 267 345.182366328 281 324 313 324 c 4
 340 324 354.454101562 342.049804688 362 354.5 c 132
 375.69921875 377.104492188 396 383 416 383 c 4
 456 383 501 346 504 296 c 5
 264 296 l 6
 121 296 32 210 32 99 c 4
 32 -62 177 -161 328 -161 c 4
 480 -161 603 -64 603 69 c 5
 571 69 l 5
 571 -34 476 -98 394 -98 c 4
 279 -98 187 -23 187 117 c 4
 187 210.638671875 231 268 355 268 c 6
 539 268 l 5
EndSplineSet
Layer: 2
EndChar

StartChar: uni0D8D
Encoding: 10 3469 38
Width: 894
VWidth: 1000
Flags: HW
LayerCount: 3
Back
Fore
SplineSet
642.75 242 m 5xbc
 616.5 242 l 5
 616.41796875 244.677734375 616.381835938 246.344726562 616.381835938 249 c 4
 616.381835938 329 651.549804688 393 731.25 393 c 4
 818.146484375 393 854.25 313.77734375 854.25 203 c 4xba
 854.25 144 837.25 52.4365234375 837.25 23 c 4
 837.25 15.6669921875 837.583007812 9 838.25 3 c 5
 763.5 3 l 5
 760.833007812 12.3330078125 755.833007812 17 748.5 17 c 4x7c
 736.346679688 17 728.146484375 -1 699.25 -1 c 4
 640.25 -1 616.5 65.5634765625 616.5 106 c 4
 616.5 153.333007812 638.5078125 188.315429688 682.5 207 c 4
 704.74609375 216.448242188 729.578125 220.008789062 737 220.5 c 5
 737 310.5 728.036132812 340 699.5 340 c 4
 665.903320312 340 642.703125 308 642.703125 246 c 4
 642.703125 244.333007812 642.713867188 243.666015625 642.75 242 c 5xbc
737 192 m 5
 733.467773438 192 714.653320312 187.953125 706.5 185.5 c 4
 670.198242188 174.578125 647.75 150.544921875 647.75 107 c 4
 647.75 76.3349609375 661.620117188 29.5 701.25 29.5 c 4xba
 728.1484375 29.5 730.500976562 40.626953125 744.75 42 c 5
 736.642578125 47.1435546875 736 75.8330078125 736 113.5 c 4x7c
 736 144.87890625 737.157226562 165 737.157226562 183 c 4
 737.157226562 185.99609375 737.111328125 189.663085938 737 192 c 5
440 0 m 4
 375.333007812 0 332 31 313 82 c 5
 292 30 251 -1 183 -1 c 4
 88 -1 31 76 31 154 c 4
 31 228.588963747 70.470334053 316 203.5 316 c 4
 219.645570473 316 245.821272949 313.495018544 260 310 c 5
 260.08203125 312.041015625 260.0859375 311.041015625 260.0859375 313 c 4
 260.0859375 355.183227539 226.923828125 388.75 196.5 388.75 c 4
 158.484375 388.75 150.5 368.5 145 352.5 c 4
 138.451171875 333.448242188 124.166992188 321 99.75 321 c 4
 79.1435546875 321 61.5 333.368164062 61.5 359 c 4
 61.5 404.1953125 112 431.5 167 431.5 c 4
 255 431.5 293.146484375 369 293.146484375 296 c 4
 293.146484375 292.721679688 293.069461638 286.456295288 293 279.25 c 5
 259.298168502 285.734583193 230.666624814 288 201.75 288 c 4xd7f0
 145.223632812 288 98 266.473632812 98 213 c 4
 98 176.825195312 131.995117188 140 205 140 c 4
 260.764648438 140 301 156.653320312 301 197.5 c 6
 301 213.75 l 5
 328 213.75 l 5
 328 197.5 l 6
 328 156.6015625 362.237304688 140 423.5 140 c 4
 495.775390625 140 541 168.034179688 541 217 c 4
 541 249.401203156 519.759765625 288 430 288 c 4xcff0
 398 288 371 286 333 279 c 5
 332.814453125 282.706054688 332.716796875 287.374023438 332.716796875 291 c 4
 332.716796875 375 380.57421875 432 456 432 c 4
 510 432 559 408 559 350 c 4
 559 328.666992188 543.110717773 305.042663574 530.5 297.75 c 5
 580.433278874 275.6264631 608 221.08203125 608 166 c 4
 608 58 538 0 440 0 c 4
365 310 m 5
 376 313 401 316 425 316 c 4xcff0
 459 316 480 314.25 502 307.25 c 5
 510.51171875 315.827148438 516.5 328.05078125 516.5 342.5 c 260
 516.5 370.6015625 486.477539062 384.75 450 384.75 c 4
 398 384.75 368.588867188 355.908203125 365 310 c 5
EndSplineSet
Layer: 2
EndChar

StartChar: uni0D8E
Encoding: 11 3470 39
Width: 1140
VWidth: 1000
Flags: HW
HStem: -1 72<115.441 265.558 362.772 526.09> -1 29<676.905 773.11 922.905 1019.11> 17 26<748.146 788.775 994.146 1034.78> 195 27<697.639 787 943.639 1033> 291 25<145.793 262.114 362.861 501.37> 358 35<673.521 754.434 919.521 1000.43> 395 36.5<148.714 235.691 394.052 504.635>
VStem: 31 38<119.848 232.056> 62 74.5<326.244 384.946> 263 30.1465<310 362.631> 301 27<112.711 182> 520 39<306.344 379.751> 571 37<118.439 237.102> 617 30<58.5464 155.33 242 326.823> 786 45<40.6339 194.498> 787.158 60.8425<40.9876 195 222 319.732> 863 30<58.5465 155.33 242 326.823> 1032 45<40.6339 194.498> 1033.16 60.8428<40.9875 195 222 319.732>
LayerCount: 3
Back
Fore
SplineSet
894.75 242 m 5xbc
 868.5 242 l 5
 868.41796875 244.677734375 868.381835938 246.344726562 868.381835938 249 c 4
 868.381835938 329 903.549804688 393 983.25 393 c 4
 1070.14648438 393 1106.25 313.77734375 1106.25 203 c 4xba
 1106.25 144 1089.25 52.4365234375 1089.25 23 c 4
 1089.25 15.6669921875 1089.58300781 9 1090.25 3 c 5
 1015.5 3 l 5
 1012.83300781 12.3330078125 1007.83300781 17 1000.5 17 c 4x7c
 988.346679688 17 980.146484375 -1 951.25 -1 c 4
 892.25 -1 868.5 65.5634765625 868.5 106 c 4
 868.5 153.333007812 890.5078125 188.315429688 934.5 207 c 4
 956.74609375 216.448242188 981.578125 220.008789062 989 220.5 c 5
 989 310.5 980.036132812 340 951.5 340 c 4
 917.903320312 340 894.703125 308 894.703125 246 c 4
 894.703125 244.333007812 894.713867188 243.666015625 894.75 242 c 5xbc
989 192 m 5
 985.467773438 192 966.653320312 187.953125 958.5 185.5 c 4
 922.198242188 174.578125 899.75 150.544921875 899.75 107 c 4
 899.75 76.3349609375 913.620117188 29.5 953.25 29.5 c 4xba
 980.1484375 29.5 982.500976562 40.626953125 996.75 42 c 5
 988.642578125 47.1435546875 988 75.8330078125 988 113.5 c 4x7c
 988 144.87890625 989.157226562 165 989.157226562 183 c 4
 989.157226562 185.99609375 989.111328125 189.663085938 989 192 c 5
642.75 242 m 1xbc
 616.5 242 l 1
 616.41796875 244.677734375 616.381835938 246.344726562 616.381835938 249 c 0
 616.381835938 329 651.549804688 393 731.25 393 c 0
 818.146484375 393 854.25 313.77734375 854.25 203 c 0xba
 854.25 144 837.25 52.4365234375 837.25 23 c 0
 837.25 15.6669921875 837.583007812 9 838.25 3 c 1
 763.5 3 l 1
 760.833007812 12.3330078125 755.833007812 17 748.5 17 c 0x7c
 736.346679688 17 728.146484375 -1 699.25 -1 c 0
 640.25 -1 616.5 65.5634765625 616.5 106 c 0
 616.5 153.333007812 638.5078125 188.315429688 682.5 207 c 0
 704.74609375 216.448242188 729.578125 220.008789062 737 220.5 c 1
 737 310.5 728.036132812 340 699.5 340 c 0
 665.903320312 340 642.703125 308 642.703125 246 c 0
 642.703125 244.333007812 642.713867188 243.666015625 642.75 242 c 1xbc
737 192 m 1
 733.467773438 192 714.653320312 187.953125 706.5 185.5 c 0
 670.198242188 174.578125 647.75 150.544921875 647.75 107 c 0
 647.75 76.3349609375 661.620117188 29.5 701.25 29.5 c 0xba
 728.1484375 29.5 730.500976562 40.626953125 744.75 42 c 1
 736.642578125 47.1435546875 736 75.8330078125 736 113.5 c 0x7c
 736 144.87890625 737.157226562 165 737.157226562 183 c 0
 737.157226562 185.99609375 737.111328125 189.663085938 737 192 c 1
440 0 m 0
 375.333007812 0 332 31 313 82 c 1
 292 30 251 -1 183 -1 c 0
 88 -1 31 76 31 154 c 0
 31 228.588963747 70.470334053 316 203.5 316 c 0
 219.645570473 316 245.821272949 313.495018544 260 310 c 1
 260.08203125 312.041015625 260.0859375 311.041015625 260.0859375 313 c 0
 260.0859375 355.183227539 226.923828125 388.75 196.5 388.75 c 0
 158.484375 388.75 150.5 368.5 145 352.5 c 0
 138.451171875 333.448242188 124.166992188 321 99.75 321 c 0
 79.1435546875 321 61.5 333.368164062 61.5 359 c 0
 61.5 404.1953125 112 431.5 167 431.5 c 0
 255 431.5 293.146484375 369 293.146484375 296 c 0
 293.146484375 292.721679688 293.069461638 286.456295288 293 279.25 c 1
 259.298168502 285.734583193 230.666624814 288 201.75 288 c 0xd7f0
 145.223632812 288 98 266.473632812 98 213 c 0
 98 176.825195312 131.995117188 140 205 140 c 0
 260.764648438 140 301 156.653320312 301 197.5 c 2
 301 213.75 l 1
 328 213.75 l 1
 328 197.5 l 2
 328 156.6015625 362.237304688 140 423.5 140 c 0
 495.775390625 140 541 168.034179688 541 217 c 0
 541 249.401203156 519.759765625 288 430 288 c 0xcff0
 398 288 371 286 333 279 c 1
 332.814453125 282.706054688 332.716796875 287.374023438 332.716796875 291 c 0
 332.716796875 375 380.57421875 432 456 432 c 0
 510 432 559 408 559 350 c 0
 559 328.666992188 543.110717773 305.042663574 530.5 297.75 c 1
 580.433278874 275.6264631 608 221.08203125 608 166 c 0
 608 58 538 0 440 0 c 0
365 310 m 1
 376 313 401 316 425 316 c 0xcff0
 459 316 480 314.25 502 307.25 c 1
 510.51171875 315.827148438 516.5 328.05078125 516.5 342.5 c 256
 516.5 370.6015625 486.477539062 384.75 450 384.75 c 0
 398 384.75 368.588867188 355.908203125 365 310 c 1
EndSplineSet
Layer: 2
EndChar

StartChar: uni0D8F
Encoding: 12 3471 40
Width: 820
VWidth: 1000
Flags: HW
LayerCount: 3
Back
Fore
SplineSet
689.259765625 53 m 4
 689.259765625 66.4453125 678.6953125 77.009765625 665.25 77.009765625 c 4
 651.8046875 77.009765625 641.240234375 66.4453125 641.240234375 53 c 4
 641.240234375 39.5546875 651.8046875 28.990234375 665.25 28.990234375 c 4
 678.6953125 28.990234375 689.259765625 39.5546875 689.259765625 53 c 4
665.5 104.75 m 4
 682.580078125 104.75 698.82421875 98.908203125 708.5 80 c 5
 729.15234375 115.103515625 739.75 187.75 739.75 239.75 c 4
 739.75 344.395507812 701.530273438 449.5 633.5 449.5 c 4
 625.361328125 449.5 615 447.084405658 615 432 c 4
 615 420 619.748873263 407.358981071 632 389 c 5
 619.04296875 397.963867188 595.709960938 421.403320312 588 424 c 5
 582.578125 430.529296875 582 439.666992188 582 445 c 4
 582 467.208984375 597.873046875 481 630 481 c 260
 716.6328125 481 773 378.197265625 773 240 c 4
 773 147.280273438 741.7890625 1.25 665.5 1.25 c 4
 636.333984375 1.25 613.5 23.4150390625 613.5 53.25 c 132
 613.5 78.56640625 632.803710938 104.75 665.5 104.75 c 4
114.740234375 53 m 4
 114.740234375 39.5546875 125.3046875 28.990234375 138.75 28.990234375 c 4
 152.1953125 28.990234375 162.759765625 39.5546875 162.759765625 53 c 4
 162.759765625 66.4453125 152.1953125 77.009765625 138.75 77.009765625 c 4
 125.3046875 77.009765625 114.740234375 66.4453125 114.740234375 53 c 4
138.5 104.75 m 4
 171.196517944 104.75 190.5 78.56640625 190.5 53.25 c 132
 190.5 23.4150390625 167.666015625 1.25 138.5 1.25 c 4
 62.2109375 1.25 31 147.279786257 31 240 c 4
 31 378.197199519 87.3675312996 481 174 481 c 260
 206.126953125 481 222 467.208926439 222 445 c 4
 222 439.666992188 221.421875 432.529296875 216 426 c 5
 208.290039062 423.403320312 185.70703125 412.963867188 172.75 404 c 5
 181.727539062 413.703125 189.25 424 189.25 436 c 4
 189.25 445.247954607 178.638671875 449.5 170.5 449.5 c 4
 102.469726562 449.5 64.25 344.395979865 64.25 239.75 c 4
 64.25 187.75 74.847946167 115.103820801 95.5 80 c 5
 105.17578125 98.908203125 121.419517071 104.75 138.5 104.75 c 4
540.338867188 433.118164062 m 4
 606.494140625 433.118164062 642.512695312 392.965820312 642.512695312 354 c 4
 642.512695312 334 634.041992188 316.666992188 615.494140625 303 c 5
 655.826171875 279.47265625 675.5 240.743164062 675.5 186.451171875 c 4
 675.5 55.5615234375 549.138671875 0 408.494140625 0 c 4
 260.083984375 0 132.825195312 45.919921875 132.825195312 183.5546875 c 4
 132.825195312 274.624023438 200.723632812 326.927734375 308.494140625 326.927734375 c 4
 321.494140625 326.927734375 330.702148438 326.2890625 343.494140625 325 c 5
 343.955078125 328.82421875 344.17578125 332.491210938 344.17578125 336 c 4
 344.17578125 376 318.494140625 390.274414062 295.494140625 390.274414062 c 4
 267.494140625 390.274414062 253.28125 376.439453125 247.147460938 358 c 4
 240.494140625 338 223.494140625 326.073242188 198.494140625 326.073242188 c 4
 177.494140625 326.073242188 156.819335938 337 156.819335938 367 c 4
 156.819335938 408 204.494140625 433.625976562 259.68359375 433.625976562 c 4
 332.041992188 433.625976562 376.36328125 401 376.36328125 334 c 4
 376.36328125 322.63671875 375.125976562 309.303710938 372.494140625 296 c 5
 354.674804688 298.375976562 319.724609375 299.717773438 318.494140625 299.717773438 c 4
 245.494140625 299.717773438 197.494140625 274 197.494140625 231 c 4
 197.494140625 158 307.494140625 140 408.494140625 140 c 4
 505.494140625 140 608.494140625 166 608.494140625 239 c 4
 608.494140625 276 569.494140625 301.612304688 495.494140625 301.612304688 c 4
 472.313476562 301.612304688 448.420898438 299.168945312 425.494140625 295 c 5
 423.56640625 305.923828125 422.637695312 318.266601562 422.637695312 328 c 4
 422.637695312 397 467.451171875 433.118164062 540.338867188 433.118164062 c 4
588.494140625 315 m 5
 599.826171875 325.703125 603.97265625 338.485351562 603.97265625 351 c 4
 603.97265625 380 580.494140625 402.637695312 533.494140625 402.637695312 c 4
 491.494140625 402.637695312 456.678710938 381 456.678710938 336 c 4
 456.678710938 332.227539062 456.95703125 328.864257812 457.494140625 325 c 5
 474.44921875 327.0546875 488.838867188 328.09765625 504.494140625 328.09765625 c 4
 537.494140625 328.09765625 563.954101562 323.764648438 588.494140625 315 c 5
EndSplineSet
Layer: 2
EndChar

StartChar: uni0D90
Encoding: 13 3472 41
Width: 1203
VWidth: 1000
Flags: HW
LayerCount: 3
Back
Fore
SplineSet
869.25 428 m 5
 833 428 l 5
 812 404 796 369.666992188 796 321 c 4
 796 261.448242188 829.29296875 212 884.75 212 c 4
 935.243164062 212 964 237.916015625 964 288 c 4
 964 312 951 332.833007812 927 345.5 c 5
 926.86328125 347.884765625 926.861328125 350.21875 926.861328125 352.5 c 4
 926.861328125 381.922851562 947.153320312 389 961.5 389 c 4
 990.099609375 389 1015 343.736328125 1015 238 c 4
 1015 111.57421875 997.3515625 63 956 63 c 4
 934.959960938 63 908.25 75.693359375 908.25 125 c 4
 908.25 135.666992188 909.25 146.333007812 911.25 157 c 5
 884 157 l 5
 881.333007812 144.333007812 880 132 880 120 c 4
 880 53.9697265625 914.486328125 -2 996.5 -2 c 4
 1110.71484375 -2 1156 101 1156 220 c 4
 1156 315.586914062 1117.4375 432.25 998 432.25 c 4
 937.8203125 432.25 898.138671875 398 898.138671875 349 c 4
 898.138671875 344.20703125 898.43359375 342.20703125 899 337 c 5
 912.333007812 323 919 307.333007812 919 290 c 4
 919 261.458007812 903.388671875 246.5 879.5 246.5 c 4
 848.360351562 246.5 826.75 276.290039062 826.75 322 c 4
 826.75 374.666992188 847.25 410 869.25 428 c 5
689.259765625 53 m 4
 689.259765625 66.4453125 678.6953125 77.009765625 665.25 77.009765625 c 4
 651.8046875 77.009765625 641.240234375 66.4453125 641.240234375 53 c 4
 641.240234375 39.5546875 651.8046875 28.990234375 665.25 28.990234375 c 4
 678.6953125 28.990234375 689.259765625 39.5546875 689.259765625 53 c 4
665.5 104.75 m 4
 682.580078125 104.75 698.82421875 98.908203125 708.5 80 c 5
 729.15234375 115.103515625 739.75 187.75 739.75 239.75 c 4
 739.75 344.395507812 701.530273438 449.5 633.5 449.5 c 4
 625.361328125 449.5 615 447.084405658 615 432 c 4
 615 420 619.748873263 407.358981071 632 389 c 5
 619.04296875 397.963867188 595.709960938 421.403320312 588 424 c 5
 582.578125 430.529296875 582 439.666992188 582 445 c 4
 582 467.208984375 597.873046875 481 630 481 c 260
 716.6328125 481 773 378.197265625 773 240 c 4
 773 147.280273438 741.7890625 1.25 665.5 1.25 c 4
 636.333984375 1.25 613.5 23.4150390625 613.5 53.25 c 132
 613.5 78.56640625 632.803710938 104.75 665.5 104.75 c 4
114.740234375 53 m 4
 114.740234375 39.5546875 125.3046875 28.990234375 138.75 28.990234375 c 4
 152.1953125 28.990234375 162.759765625 39.5546875 162.759765625 53 c 4
 162.759765625 66.4453125 152.1953125 77.009765625 138.75 77.009765625 c 4
 125.3046875 77.009765625 114.740234375 66.4453125 114.740234375 53 c 4
138.5 104.75 m 4
 171.196517944 104.75 190.5 78.56640625 190.5 53.25 c 132
 190.5 23.4150390625 167.666015625 1.25 138.5 1.25 c 4
 62.2109375 1.25 31 147.279786257 31 240 c 4
 31 378.197199519 87.3675312996 481 174 481 c 260
 206.126953125 481 222 467.208926439 222 445 c 4
 222 439.666992188 221.421875 432.529296875 216 426 c 5
 208.290039062 423.403320312 185.70703125 412.963867188 172.75 404 c 5
 181.727539062 413.703125 189.25 424 189.25 436 c 4
 189.25 445.247954607 178.638671875 449.5 170.5 449.5 c 4
 102.469726562 449.5 64.25 344.395979865 64.25 239.75 c 4
 64.25 187.75 74.847946167 115.103820801 95.5 80 c 5
 105.17578125 98.908203125 121.419517071 104.75 138.5 104.75 c 4
540.338867188 433.118164062 m 4
 606.494140625 433.118164062 642.512695312 392.965820312 642.512695312 354 c 4
 642.512695312 334 634.041992188 316.666992188 615.494140625 303 c 5
 655.826171875 279.47265625 675.5 240.743164062 675.5 186.451171875 c 4
 675.5 55.5615234375 549.138671875 0 408.494140625 0 c 4
 260.083984375 0 132.825195312 45.919921875 132.825195312 183.5546875 c 4
 132.825195312 274.624023438 200.723632812 326.927734375 308.494140625 326.927734375 c 4
 321.494140625 326.927734375 330.702148438 326.2890625 343.494140625 325 c 5
 343.955078125 328.82421875 344.17578125 332.491210938 344.17578125 336 c 4
 344.17578125 376 318.494140625 390.274414062 295.494140625 390.274414062 c 4
 267.494140625 390.274414062 253.28125 376.439453125 247.147460938 358 c 4
 240.494140625 338 223.494140625 326.073242188 198.494140625 326.073242188 c 4
 177.494140625 326.073242188 156.819335938 337 156.819335938 367 c 4
 156.819335938 408 204.494140625 433.625976562 259.68359375 433.625976562 c 4
 332.041992188 433.625976562 376.36328125 401 376.36328125 334 c 4
 376.36328125 322.63671875 375.125976562 309.303710938 372.494140625 296 c 5
 354.674804688 298.375976562 319.724609375 299.717773438 318.494140625 299.717773438 c 4
 245.494140625 299.717773438 197.494140625 274 197.494140625 231 c 4
 197.494140625 158 307.494140625 140 408.494140625 140 c 4
 505.494140625 140 608.494140625 166 608.494140625 239 c 4
 608.494140625 276 569.494140625 301.612304688 495.494140625 301.612304688 c 4
 472.313476562 301.612304688 448.420898438 299.168945312 425.494140625 295 c 5
 423.56640625 305.923828125 422.637695312 318.266601562 422.637695312 328 c 4
 422.637695312 397 467.451171875 433.118164062 540.338867188 433.118164062 c 4
588.494140625 315 m 5
 599.826171875 325.703125 603.97265625 338.485351562 603.97265625 351 c 4
 603.97265625 380 580.494140625 402.637695312 533.494140625 402.637695312 c 4
 491.494140625 402.637695312 456.678710938 381 456.678710938 336 c 4
 456.678710938 332.227539062 456.95703125 328.864257812 457.494140625 325 c 5
 474.44921875 327.0546875 488.838867188 328.09765625 504.494140625 328.09765625 c 4
 537.494140625 328.09765625 563.954101562 323.764648438 588.494140625 315 c 5
EndSplineSet
Layer: 2
EndChar

StartChar: uni0D92
Encoding: 15 3474 42
Width: 595
VWidth: 1000
Flags: HW
LayerCount: 3
Back
Fore
SplineSet
440.5 444 m 5
 440.5 694 l 5
 494.5 652 592 647 592 555 c 4
 592 511 557.19140625 481 514 481 c 4
 499.333007812 481 484.333007812 484.333007812 469 491 c 5
 469 427 l 5
 440.5 444 l 5
469.10546875 649.586914062 m 5
 469.10546875 517.2734375 l 5
 477.599609375 512.69921875 488.381835938 510.413085938 501.448242188 510.413085938 c 4
 533.454101562 510.413085938 547 534.915039062 547 558.4375 c 4
 547 599.6015625 515.169921875 619.203125 469.10546875 649.586914062 c 5
496 301 m 4
 496 351 484 369.25 471 392.25 c 5
 456 361.25 426 341.25 383 341.25 c 4
 319.844726562 341.25 283 396.25 283 462.25 c 4
 283 512.25 298 548.25 325 579.25 c 5
 386 546.25 456.96484375 474.4921875 493 412.25 c 4
 531.783203125 345.26171875 545 315 545 245 c 4
 545 117 459 0 276 0 c 4
 155 0 45 46 45 165 c 4
 45 195.720703125 54.775390625 227.831054688 78 248 c 4
 94.126953125 262.004882812 113 273 139 278 c 5
 172.760742188 290.19921875 207.875 302 245 302 c 6
 255 302 l 5
 255.08203125 304.041015625 255.0859375 306.041015625 255.0859375 308 c 4
 255.0859375 348.790208399 230 383.25 193 383.25 c 132
 170 383.25 152.745117188 365.334960938 147.5 349.25 c 132
 140 326.25 128.75 315.25 102.75 315.25 c 4
 84.75 315.25 64 327.618164062 64 353.25 c 4
 64 400.25 109.25 425.75 164.25 425.75 c 4
 252.25 425.75 289.146484375 363 289.146484375 290 c 4
 289.146484375 286.721679688 289.100585938 278.387695312 289 275 c 5
 233 275 l 6
 188.559570312 275 158.28515625 267.553710938 135 253 c 4
 119 243 108 227 108 207 c 4
 108 149 199 140 279 140 c 4
 432 140 496 210 496 301 c 4
129 275 m 6
 58 274 32 270.666992188 16 268 c 5
 16 302 l 5
 253 302 l 5
 285 275 l 5
 129 275 l 6
449 423.25 m 5
 419 467.25 372 511.25 334 539.25 c 5
 326 522.25 317 500.25 317 470.25 c 4
 317 420.916992188 350 388.25 394 388.25 c 4
 413 388.25 439 398.25 449 423.25 c 5
EndSplineSet
Layer: 2
EndChar

StartChar: uni0D93
Encoding: 16 3475 43
Width: 1178
VWidth: 1000
Flags: HW
LayerCount: 3
Back
Fore
SplineSet
1081 301 m 4
 1081 351 1069 387 1056 410 c 5
 1041 379 1011 359 968 359 c 4
 904.844726562 359 868 414 868 480 c 4
 868 530 883 566 910 597 c 5
 971 564 1041.96484375 492.2421875 1078 430 c 4
 1116.78320312 363.01171875 1130 315 1130 245 c 4
 1130 117 1044 0 861 0 c 4
 740 0 630 46 630 165 c 4
 630 195.720703125 639.775390625 227.831054688 663 248 c 4
 679.126953125 262.004882812 698 273 724 278 c 5
 757.760742188 290.19921875 798.875 302 836 302 c 6
 846 302 l 5
 846.08203125 304.041015625 846.0859375 306.041015625 846.0859375 308 c 4
 846.0859375 356 815 389 778 389 c 132
 755 389 737.745117188 371.084960938 732.5 355 c 132
 725 332 713 321 687 321 c 4
 669 321 649 333.368164062 649 359 c 4
 649 406 699 431.5 754 431.5 c 4
 842 431.5 880.146484375 363 880.146484375 290 c 4
 880.146484375 286.721679688 880.100585938 278.387695312 880 275 c 5
 818 275 l 6
 773.559570312 275 743.28515625 267.553710938 720 253 c 4
 704 243 693 227 693 207 c 4
 693 149 784 140 864 140 c 4
 1017 140 1081 210 1081 301 c 4
714 275 m 6
 643 274 617 270.666992188 601 268 c 5
 601 302 l 5
 844 302 l 5
 876 275 l 5
 714 275 l 6
1034 441 m 5
 1004 485 957 529 919 557 c 5
 911 540 902 518 902 488 c 4
 902 438.666992188 935 406 979 406 c 4
 998 406 1024 416 1034 441 c 5
220.549804688 276 m 4
 220.549804688 250.751953125 245.299804688 229.544921875 275 229.544921875 c 4
 304.700195312 229.544921875 329.450195312 250.751953125 329.450195312 276 c 4
 329.450195312 301.248046875 304.700195312 322.455078125 275 322.455078125 c 4
 245.299804688 322.455078125 220.549804688 301.248046875 220.549804688 276 c 4
584 206 m 5
 553 206 l 5
 534.421875 321.7578125 430 401.5 301 401.5 c 4
 187.17578125 401.5 106 344.137829781 106 264 c 4
 106 197.009990692 163.286132812 137 269 137 c 4
 358 137 417 179.166015625 417 243.5 c 4
 417 275.496359751 393.476813078 311.27989006 344.25 322.5 c 5
 357.150631845 310.589205205 364.25 291.5 364.25 275.5 c 4
 364.25 231.434570312 320.099609375 199.75 275.25 199.75 c 4
 230.303710938 199.75 185.75 231.25 185.75 275.25 c 260
 185.75 322.265113831 230.716796875 354.5 289.75 354.5 c 4
 399.51171875 354.5 491 292.002780139 491 176.75 c 4
 491 80.4303454757 412 0 269 0 c 4
 134 0 33 83.6284822101 33 212 c 4
 33 346.856925545 160.549331826 432 301 432 c 4
 448.707025307 432 571.822206459 339.955728948 584 206 c 5
EndSplineSet
Layer: 2
EndChar

StartChar: uni0D95
Encoding: 18 3477 44
Width: 636
VWidth: 1000
Flags: HW
LayerCount: 3
Back
Fore
SplineSet
160 508 m 5
 193 514 232.674804688 519 279 519 c 4
 387 519 472.076171875 489.188476562 527.5 425.25 c 5
 494.6171875 535.950195312 400 574.25 284 574.25 c 4
 212 574.25 144 557.5390625 144 538 c 4
 144 526 163 526 163 515 c 4
 163 513 162 510 160 508 c 5
42 440 m 13
 42 473 l 21
 74 485 123.5 499 123.5 508 c 4
 123.5 520 95.5 520.303710938 95.5 546 c 4
 95.5 583 163 629 278 629 c 4
 486 629 560 490 572 356 c 5
 581.458648682 333.488208771 590 295.283487696 590 250 c 5
 532.75 286.75 l 5
 532.75 294.75 532.576171875 290.75 532.576171875 294.75 c 4
 532.576171875 410.151231721 445 491.75 276 491.75 c 4
 200 491.75 123 478 42 440 c 13
274.940429688 361 m 4
 274.940429688 335.51953125 295.51953125 314.940429688 321 314.940429688 c 4
 346.48046875 314.940429688 367.059570312 335.51953125 367.059570312 361 c 4
 367.059570312 386.48046875 346.48046875 407.059570312 321 407.059570312 c 4
 295.51953125 407.059570312 274.940429688 386.48046875 274.940429688 361 c 4
388 331 m 5
 383 316 362 285 318 285 c 4
 271.34375 285 243 322 243 360 c 260
 243 402 274 434 322 434 c 4
 384 434 420 389 420 330 c 4
 420 265 367 225 296 225 c 4
 222 225 170 264 170 339 c 4
 170 344.219726562 170.275390625 362.934570312 170.275390625 372 c 4
 170.275390625 392 164 403 145 403 c 4
 98 403 74 329 74 279 c 4
 74 198 126 138 204 138 c 4
 273 138 291 171.666992188 291 205 c 6
 291 208 l 5
 319 208 l 5
 319 204 l 6
 319 171 342 139 403 139 c 4
 498.55859375 139 532.5 220.0390625 532.5 300.5 c 5
 549.787109375 282.509765625 567.326950817 290.327025488 590 254 c 5
 590 126.500578052 543 0 406 0 c 4
 365 0 321 16 305 55 c 5
 283 15 246 0 196 0 c 4
 78 0 30 127 30 224 c 4
 30 332 74 431.5 148 431.5 c 4
 167.006835938 431.5 175 428 182 423 c 4
 192.609375 415.421875 200.873046875 401 200.873046875 371 c 4
 200.873046875 357 201 340.014648438 201 337 c 4
 201 284 240 256 295 256 c 4
 348 256 389 281 389 326 c 4
 389 327 389 329 388 331 c 5
EndSplineSet
Layer: 2
EndChar

StartChar: uni0D96
Encoding: 19 3478 45
Width: 1034
VWidth: 1000
Flags: HW
LayerCount: 3
Back
Fore
SplineSet
698.25 428 m 5
 662 428 l 5
 641 404 625 369.666992188 625 321 c 4
 625 261.448242188 658.29296875 212 713.75 212 c 4
 764.243164062 212 793 237.916015625 793 288 c 4
 793 312 780 332.833007812 756 345.5 c 5
 755.86328125 347.884765625 755.861328125 350.21875 755.861328125 352.5 c 4
 755.861328125 381.922851562 776.153320312 389 790.5 389 c 4
 819.099609375 389 844 343.736328125 844 238 c 4
 844 111.57421875 826.3515625 63 785 63 c 4
 763.959960938 63 737.25 75.693359375 737.25 125 c 4
 737.25 135.666992188 738.25 146.333007812 740.25 157 c 5
 713 157 l 5
 710.333007812 144.333007812 709 132 709 120 c 4
 709 53.9697265625 743.486328125 -2 825.5 -2 c 4
 939.71484375 -2 985 101 985 220 c 4
 985 315.586914062 946.4375 432.25 827 432.25 c 4
 766.8203125 432.25 727.138671875 398 727.138671875 349 c 4
 727.138671875 344.20703125 727.43359375 342.20703125 728 337 c 5
 741.333007812 323 748 307.333007812 748 290 c 4
 748 261.458007812 732.388671875 246.5 708.5 246.5 c 4
 677.360351562 246.5 655.75 276.290039062 655.75 322 c 4
 655.75 374.666992188 676.25 410 698.25 428 c 5
274.940429688 361 m 4
 274.940429688 335.51953125 295.51953125 314.940429688 321 314.940429688 c 4
 346.48046875 314.940429688 367.059570312 335.51953125 367.059570312 361 c 4
 367.059570312 386.48046875 346.48046875 407.059570312 321 407.059570312 c 4
 295.51953125 407.059570312 274.940429688 386.48046875 274.940429688 361 c 4
388 331 m 5
 383 316 362 285 318 285 c 4
 271.34375 285 243 322 243 360 c 260
 243 402 274 434 322 434 c 4
 384 434 420 389 420 330 c 4
 420 265 367 225 296 225 c 4
 222 225 170 264 170 339 c 4
 170 344.219726562 170.275390625 362.934570312 170.275390625 372 c 4
 170.275390625 392 164 403 145 403 c 4
 98 403 74 329 74 279 c 4
 74 198 126 138 204 138 c 4
 273 138 291 171.666992188 291 205 c 6
 291 208 l 5
 319 208 l 5
 319 204 l 6
 319 171 342 139 403 139 c 4
 498.55859375 139 531 230 531 323 c 4
 531 437 458 553 298 553 c 4
 199 553 142 522 96 466 c 5
 62 466 l 5
 107 531 173 579 300 579 c 4
 488 579 590 431.114542606 590 254 c 4
 590 126.500578052 543 0 406 0 c 4
 365 0 321 16 305 55 c 5
 283 15 246 0 196 0 c 4
 78 0 30 127 30 224 c 4
 30 332 74 431.5 148 431.5 c 4
 167.006835938 431.5 175 428 182 423 c 4
 192.609375 415.421875 200.873046875 401 200.873046875 371 c 4
 200.873046875 357 201 340.014648438 201 337 c 4
 201 284 240 256 295 256 c 4
 348 256 389 281 389 326 c 4
 389 327 389 329 388 331 c 5
EndSplineSet
Layer: 2
EndChar

StartChar: uni0D9E
Encoding: 24 3486 46
Width: 617
VWidth: 1000
Flags: HW
LayerCount: 3
Back
Fore
SplineSet
89.060546875 346.602539062 m 4
 89.060546875 320.07421875 112.50390625 298.482421875 141.5 298.482421875 c 4
 170.49609375 298.482421875 193.939453125 320.07421875 193.939453125 346.602539062 c 4
 193.939453125 373.130859375 170.49609375 394.72265625 141.5 394.72265625 c 4
 112.50390625 394.72265625 89.060546875 373.130859375 89.060546875 346.602539062 c 4
51 140.25 m 4
 51 212.25 108.784179688 259.5 179 259.5 c 4
 215 259.5 244.5 252.75 279.5 252.75 c 4
 325.5 252.75 341.25 277.272354126 341.25 309.75 c 4
 341.25 381.358398438 263.404418945 409.461914062 213.75 409.461914062 c 4
 199.418945312 409.461914062 192.041015625 408.421875 184 407.25 c 5
 203 397.25 222.5 379.75522422 222.5 345.25 c 4
 222.5 309.180664062 189.25 271.75 141.25 271.75 c 4
 100.252929688 271.75 60.5 302.727191925 60.5 345.75 c 4
 60.5 401.989155545 119.234549455 434 207.5 434 c 4
 310.5 434 372 378.705702066 372 306.25 c 4
 372 265.25 347.614257812 223.5 280.25 223.5 c 4
 238.93359375 223.5 224 230.5 181 230.5 c 4
 131.791992188 230.5 118 204.8359375 118 188.75 c 4
 118 162.739006996 142.360772991 139.999987657 201 140 c 4
 228.915132405 140.000005876 284 142.412109375 284 190.25 c 6
 284 196 l 5
 311 196 l 5
 311 190.25 l 6
 311 144.034179688 353.991210938 140 386.25 140 c 4
 459.725585938 140 497 208.701366425 497 315 c 4
 497 425.766601562 424.647460938 555.5 278 555.5 c 4
 198.666992188 555.5 133.379202479 526.159666725 80.25 468 c 5
 46 468 l 5
 105.333007812 544 183.666992188 582 281 582 c 4
 440.94921875 582 570 445 570 260 c 4
 570 114 516 0 416 0 c 4
 354.286132812 0 329.342773438 21.388671875 298 59 c 5
 267.333007812 20.3330078125 233 0 188 0 c 4
 106.568359375 0 51 60.353515625 51 140.25 c 4
EndSplineSet
Layer: 2
EndChar

StartChar: uni0D9F
Encoding: 25 3487 47
Width: 749
VWidth: 1000
Flags: HW
LayerCount: 3
Back
Fore
SplineSet
350 405 m 5
 346.64453125 405.284179688 342.310546875 405.450195312 339 405.450195312 c 4
 255 405.450195312 205 329 205 258 c 4
 205 186 259 140 328 140 c 4
 387 140 411 164 411 191 c 4
 411 216 393 220 386 220 c 4
 375 220 368 217 363 214 c 5
 362 208 361 197.333007812 361 194 c 5
 333 194 l 5
 342 321 405 431.5 527 431.5 c 4
 639 431.5 703 332 703 217 c 4
 703 95 617.052734375 -1 486 -1 c 4
 476 -1 465.666992188 -0.3330078125 455 1 c 5
 455 29 l 5
 463 28 471 27 479 27 c 4
 583 27 615 110 615 175 c 4
 615 255 578 320 480 320 c 4
 409 320 374 277 367 241 c 5
 373 244 380.333007812 246 387 246 c 4
 437 246 469 202 469 136 c 4
 469 56 412 -2 325 -2 c 4
 214 -2 151 96 151 207 c 4
 151 330 226 431.5 337 431.5 c 4
 340.953125 431.5 345.954101562 431.25 350 431 c 5
 350 405 l 5
344 431.5 m 5
 323 420.5 265.037109375 412.301757812 256 407 c 5
 171.918465405 407.000000041 59 379.979589167 59 218 c 4
 59 137.333007812 86 78 135 34 c 5
 135 0 l 5
 68.5828449348 33.2085775326 27 120.069879655 27 221 c 4
 27 352.699751668 99.7561968728 433 239 433 c 4
 248 433 317.225636482 432.160814762 344 431.5 c 5
EndSplineSet
Layer: 2
EndChar

StartChar: uni0DA3
Encoding: 29 3491 48
Width: 1087
VWidth: 1000
Flags: HW
LayerCount: 3
Back
Fore
SplineSet
671 398 m 5
 671 371.5 l 5
 667.651367188 371.7890625 664.31640625 371.936523438 661 371.936523438 c 4
 582 371.936523438 538 307.145507812 538 242 c 4
 538 186.850585938 569.567382812 140 643 140 c 4
 693.911132812 140 738.5 161 738.5 225 c 6
 738.5 249 l 5
 769.25 249 l 5
 769.25 225 l 6
 769.25 161 812.830078125 140 862 140 c 4
 957.709960938 140 976 230.977539062 976 304 c 4
 976 426.934570312 890.908203125 554 744 554 c 4
 663.333007812 554 601.536132812 525.40625 549.25 468 c 5
 515 468 l 5
 571.666992188 542.666992188 649.666992188 580 749 580 c 4
 912 580 1039 446 1039 261 c 4
 1039 139 997.875976562 0 872 0 c 4
 822.666992188 0 783 19.6669921875 753 59 c 5
 722.333007812 20.3330078125 684.671875 0 640 0 c 4
 538 0 483 96 483 195 c 4
 483 288 536.248046875 363.668945312 602 387 c 4
 622.666992188 394.333007812 645.666992188 398 671 398 c 5
113 323 m 4
 104.732279418 305.545923216 87 297 72 297 c 132
 35 297 29 328 29 340 c 4
 29 394.098632812 79.3632281498 433 136 433 c 4
 188.347731079 433 220 399 220 358 c 4
 220 352 220 349 219 341 c 5
 278 396 377 431.5 464 431.5 c 4
 569.163963853 431.5 649.122409915 403.737001099 671 398 c 5
 663.516601562 397.319335938 615.7578125 385.375976562 603.25 384.5 c 5
 563.634765625 395.022460938 515.625 402 471 402 c 4
 331.959020027 402 252.755505443 335.149339557 216.5 304.5 c 5
 246.5 312.5 277.666992188 314 305 314 c 4
 425 314 515 250 515 126 c 4
 515 67.8472233203 482 -1 397 -1 c 4
 351 -1 317.333333333 20.3333333333 296 63 c 5
 278.666666667 21.6666666667 246.021148364 -1 204 -1 c 4
 117 -1 120 73 87 73 c 4
 64.6748046875 73 52 51 49 11 c 5
 21 22 l 5
 28.6966338402 91.2697045622 74.4524773728 184.16496867 109 232 c 4
 135 268 148 280 171 304 c 5
 180 314 191.75 331 191.75 352 c 4
 191.75 371 182 386 158 386 c 4
 144 386 128.438133087 378.533465805 124 363 c 4
 118 342 122 342 113 323 c 4
180 268 m 5
 162.666992188 253.333007812 146.522390704 234.996134377 131 212 c 4
 104 172 101 163 91 143 c 5
 103 153 115 160 129 160 c 4
 161 160 172 140 212 140 c 4
 258 140 280 157 280 214 c 4
 280 216.208984375 280.041015625 214.3046875 280 216 c 5
 308 216 l 5
 307.963867188 214.6640625 308 216.330078125 308 215 c 4
 308 154 332 140 377 140 c 4
 418 140 443 169 443 204 c 4
 443 246 402 287 301 287 c 4
 244.333007812 287 204.666992188 280 180 268 c 5
EndSplineSet
Layer: 2
EndChar

StartChar: uni0DA4
Encoding: 30 3492 49
Width: 1024
VWidth: 1000
Flags: HW
LayerCount: 3
Back
Fore
SplineSet
951 291 m 5
 889.25 291 l 6
 801.25 291 756.25 257 756.25 173 c 4
 756.25 89 807.989257812 44 857.5 44 c 4
 887.848632812 44 912.75 48.25 952.75 94.25 c 5
 979 75 l 5
 948.459960938 39.3701171875 907 -16 907 -92 c 4
 907 -133.841796875 919.4453125 -185.983398438 981 -205.75 c 5
 981 -238 l 5
 960.735351562 -242.8046875 938.184570312 -246 921 -246 c 4
 840.534179688 -246 806.75 -193.268554688 806.75 -136.25 c 4
 806.75 -78.984375 839.2109375 -39.884765625 887 8.5 c 5
 861.784179688 1.806640625 833.333007812 -1 806 -1 c 4
 675 -1 603 69 603 169 c 4
 603 274 676 317 795 317 c 6
 912.25 317 l 5
 898.161553144 364.752017498 846.514648438 390 814 390 c 4
 795 390 780.548828125 378.911132812 772 361 c 132
 761.5 339 744.579101562 333 724.75 333 c 4
 699.75 333 682 349.75 682 370.75 c 4
 682 407.033203125 723 433 778 433 c 4
 863.739257812 433 933.740234375 388.541992188 951 291 c 5
238 323 m 4
 229.732421875 305.545898438 212 297 197 297 c 132
 160 297 154 328 154 340 c 4
 154 394.098632812 204.36328125 433 261 433 c 4
 313.34765625 433 345 399 345 358 c 4
 345 352 345 349 344 341 c 5
 380.112530688 368.974909455 427.488348148 396.378177664 492 417 c 4
 558.128952026 438.138809204 632.859375 442 676.25 442 c 4
 761.634943966 442 805.122070312 432.737304688 827 427 c 5
 819.516601562 426.319335938 734.5078125 410.875976562 722 410 c 5
 706.982398595 410.562546663 686.475585938 412 674 412 c 4
 615.313476562 412 564.895871383 403.342910212 536.5 397 c 4
 449.890617371 377.653682709 387.160734558 337.115349256 345.25 306.25 c 5
 373.415424347 312.696125031 402.666992188 314 430 314 c 4
 550 314 640 250 640 126 c 4
 640 67.84765625 607 -1 522 -1 c 4
 476 -1 442.333007812 20.3330078125 421 63 c 5
 403.666992188 21.6669921875 371.021484375 -1 329 -1 c 4
 242 -1 245 73 212 73 c 4
 189.674804688 73 177 51 174 11 c 5
 146 22 l 5
 153.696289062 91.26953125 199.452148438 184.165039062 234 232 c 4
 260 268 273 280 296 304 c 5
 305 314 316.25 331 316.25 352 c 4
 316.25 371 307 386 283 386 c 4
 269 386 253.438476562 378.533203125 249 363 c 4
 243 342 247 342 238 323 c 4
305 268 m 5
 287.666992188 253.333007812 271.522460938 234.99609375 256 212 c 4
 229 172 226 163 216 143 c 5
 228 153 240 160 254 160 c 4
 286 160 297 140 337 140 c 4
 383 140 405 157 405 214 c 4
 405 216.208984375 405.041015625 214.3046875 405 216 c 5
 433 216 l 5
 432.963867188 214.6640625 433 216.330078125 433 215 c 4
 433 154 457 140 502 140 c 4
 543 140 568 169 568 204 c 4
 568 246 527 287 426 287 c 4
 369.333007812 287 329.666992188 280 305 268 c 5
293 428.25 m 5
 272 417.25 195 404.5 178 398.5 c 5
 106 381.5 59 319.267578125 59 218 c 4
 59 137.333007812 86 78 135 34 c 5
 135 0 l 5
 68.5828449348 33.2085775326 27 120.069879655 27 221 c 4
 27 352.699751668 99.755859375 434.25 239 434.25 c 4
 248 434.25 271 434.25 293 428.25 c 5
EndSplineSet
Layer: 2
EndChar

StartChar: uni0DA5
Encoding: 31 3493 50
Width: 842
VWidth: 1000
Flags: HW
LayerCount: 3
Back
Fore
SplineSet
769 291 m 5
 707.25 291 l 6
 619.25 291 574.25 257 574.25 173 c 4
 574.25 89 625.989257812 44 675.5 44 c 4
 705.848632812 44 730.75 48.25 770.75 94.25 c 5
 797 75 l 5
 766.459960938 39.3701171875 725 -16 725 -92 c 4
 725 -133.841796875 737.4453125 -185.983398438 799 -205.75 c 5
 799 -238 l 5
 778.735351562 -242.8046875 756.184570312 -246 739 -246 c 4
 658.534179688 -246 624.75 -193.268554688 624.75 -136.25 c 4
 624.75 -78.984375 657.2109375 -39.884765625 705 8.5 c 5
 679.784179688 1.806640625 651.333007812 -1 624 -1 c 4
 493 -1 421 69 421 169 c 4
 421 274 494 317 613 317 c 6
 730.25 317 l 5
 720.526367188 363.185546875 690.514648438 390 658 390 c 4
 639 390 624.548828125 378.911132812 616 361 c 132
 605.5 339 588.579101562 333 568.75 333 c 4
 543.75 333 526 349.75 526 370.75 c 4
 526 407.033203125 567 433 622 433 c 4
 707.739257812 433 751.740234375 388.541992188 769 291 c 5
674 426 m 5
 553 408.5 l 5
 547.39453125 408.655273438 545.466796875 408.75 539.75 408.75 c 4
 442.528320312 408.75 370.745708823 347.596127264 349.75 240.75 c 5
 357.75 244.75 363.333007812 245.75 370 245.75 c 4
 418 245.75 452 202 452 136 c 4
 452 56 395 -2 308 -2 c 4xaf80
 197 -2 134 96 134 207 c 4
 134 330 209 431.5 320 431.5 c 4
 323.953125 431.5 328.954101562 431.25 333 431 c 5
 333 405.5 l 5xaf80
 329.64453125 405.784179688 325.310546875 405.950195312 322 405.950195312 c 4
 236 405.950195312 187.75 327.458443612 187.75 258.25 c 4
 187.75 202.543945312 227.270019531 140 308 140 c 4
 367 140 394 160.486328125 394 190.5 c 4
 394 201.481573226 388.871886253 219.75 367 219.75 c 4
 359.666992188 219.75 350.75 216.75 345.75 212.75 c 5
 344.75 206.75 343.5 197.333007812 343.5 194 c 5
 314.5 194 l 5
 328.177734375 354.297851562 406.221009374 438 560 438 c 4x7780
 591 438 640.988111734 436.424769759 674 426 c 5
326 431.25 m 5
 305 420.25 253.83984375 413.67578125 238.25 405.5 c 5
 135.582872659 405.5 59 347.25928153 59 218 c 4
 59 137.333007812 86 78 135 34 c 5
 135 0 l 5
 68.5828449348 33.2085775326 27 120.069879655 27 221 c 4
 27 352.699751668 99.7561968728 433 239 433 c 4
 248 433 299.295898438 432.30859375 326 431.25 c 5
EndSplineSet
Layer: 2
EndChar

StartChar: uni0DA6
Encoding: 32 3494 51
Width: 699
VWidth: 1000
Flags: HW
LayerCount: 3
Back
Fore
SplineSet
586 220 m 4
 586 244 571 288 456 288 c 4
 434 288 415 286 401 285 c 5
 396.333007812 301 394 316.333007812 394 331 c 4
 394 409 451 434 520 434 c 4
 561 434 621 412 621 353 c 4
 621 324.446289062 604 285 539 285 c 4
 485 285 464 331 464 369 c 4
 464 460 508.380859375 536.2890625 552 577 c 4
 582 605 615 618 634 618 c 4
 663 618 669 600 669 587 c 4
 669 555 622.688476562 546.661132812 565 507 c 4
 533 485 493 436 493 370 c 4
 493 337 510 311 540 311 c 4
 569 311 590 328.515625 590 355 c 260
 590 387.991210938 560 406 516 406 c 4
 445 406 425 374 425 334 c 4
 425 326.666992188 426 318.333007812 428 309 c 5
 436 310 444 311 457 311 c 4
 548 311 650 283 650 168 c 4
 650 45 524.685546875 0 399 0 c 4
 261.1484375 0 134 44 134 170 c 4
 134 249.202148438 197 312 309 312 c 4
 327.110351562 312 326 312 334 311 c 5
 335.333007812 317.666992188 336 324.333007812 336 331 c 4
 336 354 325 386 288 386 c 4
 265.990234375 386 250.896484375 369.047851562 244 354 c 4
 233 330 221 320 198 320 c 4
 173 320 157 334.666992188 157 360 c 4
 157 408.774414062 207.8984375 432 255 432 c 4
 321.892578125 432 367 393.392578125 367 326 c 4
 367 314 365.666992188 298.333007812 363 285 c 5
 351 286 339 287 330 287 c 4
 211 287 196 242 196 215 c 4
 196 157 290.23046875 140 393 140 c 4
 499 140 586 161 586 220 c 4
293 427 m 5
 272 416 195 404 178 398 c 5
 106 381 59 319.267578125 59 218 c 4
 59 137.333007812 86 78 135 34 c 5
 135 0 l 5
 68.5828449348 33.2085775326 27 120.069879655 27 221 c 4
 27 352.699751668 99.7561968728 433 239 433 c 4
 248 433 271 433 293 427 c 5
EndSplineSet
Layer: 2
EndChar

StartChar: uni0DA8
Encoding: 34 3496 52
Width: 614
VWidth: 1000
Flags: HW
LayerCount: 3
Back
Fore
SplineSet
589 232 m 4
 589 130 547.875544195 0 422 0 c 4
 372.666666667 0 333 19.6666666667 303 59 c 5
 272.333333333 20.3333333333 234.671641514 0 190 0 c 4
 88 0 33 96 33 195 c 4
 33 288 86.2482372121 363.668729333 152 387 c 4
 172.666666667 394.333333333 195.666666667 398 221 398 c 5
 221 371 l 5
 217.651367188 371.2890625 214.31640625 371.436523438 211 371.436523438 c 4
 132 371.436523438 90 304.536132812 90 246 c 4
 90 193.203682572 113.500976562 140 189.5 140 c 4
 240.411132812 140 288.75 161 288.75 225 c 6
 288.75 248 l 5
 319.25 248 l 5
 319.25 225 l 6
 319.25 161 365.330078125 140 414.5 140 c 4
 510.209960938 140 536 224.62612093 536 280 c 4
 536 338.058524123 523.75 385 502.75 417 c 5
 488.836914062 388.296875 459 367 416 367 c 4
 352.844726562 367 316 422 316 488 c 4
 316 538 331 574 358 605 c 5
 419 572 489.96484375 500.2421875 526 438 c 4
 564.783203125 371.01171875 589 307 589 232 c 4
482.6796875 448.1171875 m 5
 453.573242188 492.747070312 405.0625 537.375976562 368.1953125 564.541015625 c 5
 356.552734375 547.078125 347.8203125 524.440429688 347.8203125 490.806640625 c 4
 347.8203125 442.943359375 367.225585938 404.458984375 422.526367188 404.458984375 c 4
 445.811523438 404.458984375 472.747070312 415.266601562 482.6796875 448.1171875 c 5
EndSplineSet
Layer: 2
EndChar

StartChar: uni0DAF
Encoding: 41 3503 53
Width: 456
VWidth: 1000
Flags: HW
LayerCount: 3
Back
Fore
SplineSet
379 291 m 5
 317.25 291 l 6
 229.25 291 184.25 257 184.25 173 c 4
 184.25 89 235.989117622 44 285.5 44 c 4
 315.848632812 44 340.75 48.25 380.75 94.25 c 5
 407 75 l 5
 376.460069993 39.3700816582 335 -16 335 -92 c 4
 335 -133.841796875 347.445497274 -185.982954025 409 -205.75 c 5
 409 -238 l 5
 388.735351562 -242.8046875 366.184570312 -246 349 -246 c 4
 268.534179688 -246 234.75 -193.268554688 234.75 -136.25 c 4
 234.75 -78.9845778259 267.211316898 -39.8845464438 315 8.5 c 5
 289.783991751 1.80626275399 261.333007812 -1 234 -1 c 4
 103 -1 31 69 31 169 c 4
 31 274 104 317 223 317 c 6
 340.25 317 l 5
 330.526367188 363.185546875 300.514457226 390 268 390 c 4
 249 390 234.548556973 378.911262229 226 361 c 132
 215.5 339 198.578960836 333 178.75 333 c 4
 153.75 333 136 349.75 136 370.75 c 4
 136 407.033203125 177 433 232 433 c 4
 317.739153659 433 361.739984512 388.541710854 379 291 c 5
EndSplineSet
Layer: 2
EndChar

StartChar: uni0DB0
Encoding: 42 3504 54
Width: 638
VWidth: 1000
Flags: HW
LayerCount: 3
Back
Fore
SplineSet
221 398 m 5
 221 371.5 l 5
 217.651367188 371.7890625 214.31640625 371.936523438 211 371.936523438 c 4
 132 371.936523438 88 307.145507812 88 242 c 4
 88 186.850143433 119.567382812 140 193 140 c 4
 243.911132812 140 288.5 161 288.5 225 c 6
 288.5 249 l 5
 319.25 249 l 5
 319.25 225 l 6
 319.25 161 362.830078125 140 412 140 c 4
 507.709960938 140 526 230.977501387 526 304 c 4
 526 426.934570312 440.908203125 554 294 554 c 4
 213.333007812 554 151.536235809 525.406147003 99.25 468 c 5
 65 468 l 5
 121.666666667 542.666666667 199.666666667 580 299 580 c 4
 462 580 589 446 589 261 c 4
 589 139 547.875544195 0 422 0 c 4
 372.666666667 0 333 19.6666666667 303 59 c 5
 272.333333333 20.3333333333 234.671641514 0 190 0 c 4
 88 0 33 96 33 195 c 4
 33 288 86.2482372121 363.668729333 152 387 c 4
 172.666666667 394.333333333 195.666666667 398 221 398 c 5
EndSplineSet
Layer: 2
EndChar

StartChar: uni0DB3
Encoding: 44 3507 55
Width: 538
VWidth: 1000
Flags: HW
LayerCount: 3
Back
Fore
SplineSet
463 291 m 5
 401.25 291 l 6
 313.25 291 268.25 257 268.25 173 c 4
 268.25 89 319.989257812 44 369.5 44 c 4
 399.848632812 44 424.75 48.25 464.75 94.25 c 5
 491 75 l 5
 460.459960938 39.3701171875 419 -16 419 -92 c 4
 419 -133.841796875 431.4453125 -185.983398438 493 -205.75 c 5
 493 -238 l 5
 472.735351562 -242.8046875 450.184570312 -246 433 -246 c 4
 352.534179688 -246 318.75 -193.268554688 318.75 -136.25 c 4
 318.75 -78.984375 351.2109375 -39.884765625 399 8.5 c 5
 373.784179688 1.806640625 345.333007812 -1 318 -1 c 4
 187 -1 115 69 115 169 c 4
 115 274 188 317 307 317 c 6
 424.25 317 l 5
 414.526367188 363.185546875 384.514648438 390 352 390 c 4
 333 390 318.548828125 378.911132812 310 361 c 132
 299.5 339 282.579101562 333 262.75 333 c 4
 237.75 333 220 349.75 220 370.75 c 4
 220 407.033203125 261 433 316 433 c 4
 401.739257812 433 445.740234375 388.541992188 463 291 c 5
354 429.5 m 5
 333 418.5 265.037109375 411.051757812 256 405.75 c 5
 177.193218231 405.75 59 370.057369545 59 218 c 4
 59 137.333007812 86 78 135 34 c 5
 135 0 l 5
 68.5828449348 33.2085775326 27 120.069879655 27 221 c 4
 27 337.212650366 97.5107421875 436.25 265.5 436.25 c 4
 291.563476562 436.25 320.717321961 435.999169995 354 429.5 c 5
EndSplineSet
Layer: 2
EndChar

StartChar: uni0DB6
Encoding: 47 3510 56
Width: 619
VWidth: 1000
Flags: HW
LayerCount: 3
Back
Fore
SplineSet
102.456054688 76 m 4
 102.456054688 50.06640625 124.06640625 28.4560546875 150 28.4560546875 c 4
 175.93359375 28.4560546875 197.543945312 50.06640625 197.543945312 76 c 4
 197.543945312 101.93359375 175.93359375 123.543945312 150 123.543945312 c 4
 124.06640625 123.543945312 102.456054688 101.93359375 102.456054688 76 c 4
77 91 m 5
 81 126 109.4375 153 150 153 c 4
 193 153 229 119 229 77 c 4
 229 29 190 -1 150 -1 c 4
 68 -1 33 91.123046875 33 187 c 4
 33 313.6875 123.971708228 396 238.25 396 c 4
 330.037109375 396 404 353.764648438 404 266 c 4
 404 159.842154631 292 175.782538114 292 127.25 c 4
 292 107.462287426 317.041849852 104 333 104 c 4
 431.193359375 104 504 229.660310224 504 355.25 c 4
 504 472.659578901 424.909663633 558 292 558 c 4
 198 558 135.894634247 528.3828125 97 470 c 5
 64 470 l 5
 98.6666666667 542 178.570940778 585 292 585 c 4
 470 585 575 465.142527885 575 284 c 4
 575 141.309689556 518.060138365 -2 381 -2 c 4
 302.395705096 -2 258.75 49.056640625 258.75 108.5 c 4
 258.75 189.827415336 331 171.618759278 331 230 c 4
 331 251.64453125 308.91015625 275.5 237 275.5 c 4
 146 275.5 70 222.298363667 70 138 c 4
 70 129.590849464 71.7058105469 104.415283203 77 91 c 5
EndSplineSet
Layer: 2
EndChar

StartChar: uni0DB7
Encoding: 48 3511 57
Width: 670
VWidth: 1000
Flags: HW
LayerCount: 3
Back
Fore
SplineSet
140 275.349609375 m 6
 69 274.349609375 22 271.016601562 6 268.349609375 c 5
 6 303.349609375 l 5
 215.25 303.349609375 l 5
 171 275.349609375 l 5
 140 275.349609375 l 6
279.836914062 186 m 5
 254.836914062 195 l 5
 263.836914062 320 344.924804688 432.009765625 446.138671875 432.009765625 c 4
 558.010742188 432.009765625 620.85546875 328.650390625 620.85546875 210.961914062 c 4
 620.85546875 92.0048828125 531.836914062 -1.3037109375 408.836914062 -1.3037109375 c 4
 395.522460938 -1.3037109375 381.830078125 -0.2666015625 367.836914062 2 c 5
 367.836914062 31 l 5
 380.165039062 29.0869140625 392.190429688 28.205078125 403.836914062 28.205078125 c 4
 492.836914062 28.205078125 512.836914062 112 512.836914062 166 c 4
 512.836914062 230 479.836914062 314 389.836914062 314 c 4
 314.836914062 314 297.836914062 264 288.836914062 235 c 5
 298.671875 240.532226562 307.470703125 242.169921875 316.836914062 242.169921875 c 4
 357.836914062 242.169921875 382 199.139648438 382 145.349609375 c 4
 382 52.9931640625 311.338867188 -0.7626953125 216.870117188 -0.7626953125 c 4
 119.3203125 -0.7626953125 48.7919921875 61.0615234375 48.7919921875 155.11328125 c 4
 48.7919921875 246 138.018554688 303.352539062 213.336914062 303.352539062 c 4
 216.145507812 303.352539062 216.974775529 303.249818168 219.836914062 303.25 c 5
 219.836914062 342.140625 195.836914062 378 167.836914062 378 c 4
 152.836914062 378 138.836914062 374 129.836914062 352 c 4
 121.680664062 332.063476562 105.836914062 323 89.8369140625 323 c 4
 67.8369140625 323 48.861328125 336 48.861328125 364 c 4
 48.861328125 394.208007812 77.5400390625 432.033203125 134.291992188 432.033203125 c 4
 213.186523438 432.033203125 254.836914062 360.299804688 254.836914062 276 c 5
 243.157226562 277.352539062 231.790039062 278.020507812 220.836914062 278.020507812 c 4
 149.347956154 278.020507812 109.836914062 244.576001443 109.836914062 208.5 c 4
 109.836914062 155.5 173.836914062 138.86328125 227.836914062 138.86328125 c 4
 265.836914062 138.86328125 333.836914062 152 333.836914062 190 c 4
 333.836914062 208 322.836914062 215.412109375 311.836914062 215.412109375 c 4
 297.836914062 215.412109375 286.590820312 207.010742188 279.836914062 186 c 5
EndSplineSet
Layer: 2
EndChar

StartChar: uni0DB8
Encoding: 49 3512 58
Width: 635
VWidth: 1000
Flags: HW
LayerCount: 3
Back
Fore
SplineSet
264.975585938 352 m 4
 264.975585938 325.537109375 286.537109375 303.975585938 313 303.975585938 c 4
 339.462890625 303.975585938 361.024414062 325.537109375 361.024414062 352 c 4
 361.024414062 378.462890625 339.462890625 400.024414062 313 400.024414062 c 4
 286.537109375 400.024414062 264.975585938 378.462890625 264.975585938 352 c 4
113 469 m 5
 78 469 l 5
 127 544 209.294921875 586 302 586 c 4
 462 586 585 454 585 292 c 4
 585 110 475.091796875 0 310 0 c 4
 143 0 33 94 33 250 c 4
 33 339 79 432 156 432 c 4
 204.891601562 432 209.5 400.288085938 209.5 377.75 c 4
 209.5 350.75 204 343.577636719 204 310.5 c 4
 204 261.436505318 245 230 300 230 c 4
 360 230 401 260.262411697 401 320 c 4
 401 348 392 359 387 366 c 5
 389 356 389 351 389 343 c 4
 389 306 361 271 313 271 c 4
 262 271 233 315 233 351 c 4
 233 397 269.997395904 432 318 432 c 4
 387 432 433 387.228515625 433 315.25 c 4
 433 239.417757609 375 198 302 198 c 4
 242 198 170.5 231.720424652 170.5 304.5 c 4
 170.5 337.25390625 177.75 358.241387047 177.75 376 c 4
 177.75 388.165039062 175.568359375 402 154 402 c 4
 111.994720459 402 93 349.604492188 93 310 c 4
 93 205.221664439 181.259231654 133.75 302.5 133.75 c 4
 419.976436198 133.75 515.5 203.479492188 515.5 333 c 4
 515.5 441.036132812 444 557 303 557 c 4
 222 557 160.177978516 527.856689453 113 469 c 5
EndSplineSet
Layer: 2
EndChar

StartChar: uni0DB9
Encoding: 50 3513 59
Width: 636
VWidth: 1000
Flags: HW
LayerCount: 3
Back
Fore
SplineSet
408 337 m 4
 408 280 363 238 292 238 c 4
 218 238 170.5 282 170.5 357 c 4
 170.5 362.219726562 170.775390625 362.934570312 170.775390625 372 c 4
 170.775390625 392 164 403.75 145 403.75 c 4
 98 403.75 74 329 74 279 c 4
 74 198 109 124.75 180.0859375 124.75 c 4
 197 124.75 211.0859375 128.75 219.0859375 135.75 c 5
 219.0859375 142.75 220.537109375 150.473632812 223.25390625 159.75 c 4
 234.618164062 198.557617188 268.118164062 218.75 310.0859375 218.75 c 4
 352.053710938 218.75 385.553710938 198.557617188 396.916992188 159.75 c 4
 399.633789062 150.473632812 401.0859375 142.75 401.0859375 135.75 c 5
 410 128.75 422 124.75 440.0859375 124.75 c 4
 497 124.75 529 211.25 529 304.25 c 4
 529 418.25 458 553 298 553 c 4
 199 553 142 522 96 466 c 5
 62 466 l 5
 107 531 173 579 300 579 c 4
 488 579 590 431.114542606 590 254 c 4
 590 126.500578052 523 0 424.0859375 0 c 4
 400.0859375 0 389.752929688 4 359.0859375 12 c 5
 356.0859375 16 355.0859375 40.3330078125 355.0859375 47 c 4
 355.0859375 78.6749510765 370.0859375 93.034386456 370.0859375 120.75 c 4
 370.0859375 157.75 354.0859375 186.75 310.0859375 186.75 c 4
 266.0859375 186.75 250.0859375 157.75 250.0859375 120.75 c 4
 250.0859375 92.7341011628 265.0859375 78.4223937988 265.0859375 47 c 4
 265.0859375 40.3330078125 264.0859375 16 261.0859375 12 c 5
 230.418945312 4 220.0859375 0 196.0859375 0 c 4
 86 0 30 119.831844721 30 230 c 4
 30 338 74 431.5 148 431.5 c 4
 167.006835938 431.5 175 428 182 423 c 4
 192.609375 415.421875 200.873046875 401 200.873046875 371 c 4
 200.873046875 357 201 358.014648438 201 355 c 4
 201 302 232 267 297 267 c 4
 350.166992188 267 375.25 299 375.25 315 c 4
 375.25 316 375.25 315 375.25 317 c 5
 371.25 312 358.65625 289 318 289 c 4
 271.278320312 289 245 324.079101562 245 360 c 260
 245 402 277 434 322 434 c 4
 381 434 408 383 408 337 c 4
274.940429688 363 m 4
 274.940429688 337.51953125 295.51953125 316.940429688 321 316.940429688 c 4
 346.48046875 316.940429688 367.059570312 337.51953125 367.059570312 363 c 4
 367.059570312 388.48046875 346.48046875 409.059570312 321 409.059570312 c 4
 295.51953125 409.059570312 274.940429688 388.48046875 274.940429688 363 c 4
EndSplineSet
Layer: 2
EndChar

StartChar: uni0DBA
Encoding: 51 3514 60
Width: 636
VWidth: 1000
Flags: HW
LayerCount: 3
Back
Fore
SplineSet
251 387 m 5
 251 356.75 l 5
 240.333007812 358.75 229.666992188 359.75 219 359.75 c 4
 130.3359375 359.75 82.25 299.044937134 82.25 241 c 4
 82.25 181.881835938 118.286132812 140 193 140 c 4
 242 140 294 160 294 209 c 6
 294 230.75 l 5
 323 230.75 l 5
 323 210 l 6
 323 161.271484375 378 140 435 140 c 4
 516.5546875 140 538 183.775286674 538 213.75 c 4
 538 268.169921875 494 297.75 408 297.75 c 4
 378 297.75 348.666992188 294.083007812 322 286.75 c 5
 321.333007812 294.083007812 321 303.333333333 321 310 c 4
 321 388.666666667 366.93359375 433 451 433 c 4
 511 433 558 409 558 357 c 4
 558 338 548 312 521 303 c 5
 564.333333333 277 592 227.798828125 592 167 c 4
 592 71 528 -1 436 -1 c 4
 369.969703923 -1 327 25 307 71 c 5
 284.333333333 23 244 -1 186 -1 c 4
 85.4659984779 -1 30 82 30 185 c 4
 30 305 106.325380748 389 223 389 c 4
 233 389 242.333333333 388.333333333 251 387 c 5
352.5 319.5 m 5
 368.5 323.5 390 325 410 325 c 4
 446 325 471.75 322.083007812 493.75 314.75 c 5
 506.75 320.75 516 333 516 349 c 4
 516 373.259232711 487 392 452 392 c 4
 393.005859375 392 352.66796875 365.466796875 352.5 319.5 c 5
EndSplineSet
Layer: 2
EndChar

StartChar: uni0DBB
Encoding: 52 3515 61
Width: 528
VWidth: 1000
Flags: HW
LayerCount: 3
Back
Fore
SplineSet
291 434 m 5
 330.493756909 433.988910555 388 413 429.5 366.5 c 132
 465.350590935 326.33006076 482 281.003971989 482 225 c 4
 482 102 383.523302632 0 248 0 c 4
 123.953919804 0 31 89.1821923439 31 213 c 4
 31 322.52211473 95.8887706957 389.731266181 182 423 c 4
 259.700790405 453.019393921 304.21012412 463.514933378 367 512 c 4
 423.434378663 555.577480779 435.244402073 613.5 488 613.5 c 4
 503.36328125 613.5 526 604.43596369 526 580.5 c 4
 526 551.477539062 502.000431556 524.195579327 440 491 c 4
 403.017612457 471.199302673 333.266314091 445.559560379 291 434 c 5
79 256 m 4
 79 198 119.981445312 138 228 138 c 4
 333 138 406 191 406 291 c 4
 406 362 351.594726562 411 260 411 c 4
 182 411 79 352 79 256 c 4
EndSplineSet
Layer: 2
EndChar

StartChar: uni0DBD
Encoding: 53 3517 62
Width: 670
VWidth: 1000
Flags: HW
LayerCount: 3
Back
Fore
SplineSet
265 308 m 5
 518 308 l 5
 518 279.5 l 5
 396 279.5 l 5
 395.838867188 278.159179688 395.747070312 276.825195312 395.747070312 275.5 c 4
 395.747070312 239.5 438 216 486 216 c 4
 541 216 573 245 573 294 c 4
 573 374.59375 477.204101562 399 395.25 399 c 4
 269.258789062 399 178 316.3125 178 171.25 c 4
 178 4.25 279.404346653 -93.5 420.5 -93.5 c 4
 486.918945312 -93.5 591.5 -50 591.5 66 c 4
 591.5 72 589.8984375 80.6025390625 587.5 84 c 5
 624 84 l 5
 624.248734182 79.2740505423 624.335204447 74.6070958657 624.335204447 70.0000108564 c 4
 624.335204447 -72 499.652597213 -154 361 -154 c 4
 180 -154 31 -58 31 135 c 4
 31 322.923338698 169.392391422 432 364 432 c 4
 487.659863223 432 611 392.852912814 611 280 c 4
 611 210.441249513 553 163 485 163 c 4
 417 163 366 209.5 366 279.5 c 5
 265 279.5 l 5
 265 308 l 5
EndSplineSet
Layer: 2
EndChar

StartChar: uni0DC1
Encoding: 55 3521 63
Width: 631
VWidth: 1000
Flags: HW
LayerCount: 3
Back
Fore
SplineSet
480.25 184.5 m 4
 486.987304688 184.5 505.990893491 183.682273902 518 180 c 5
 518.5390625 172.314453125 518.770507812 164.979492188 519 152.5 c 5
 508.681640625 155.766601562 491.190429688 157 482 157 c 4
 436.379882812 157 399.75 125.875 399.75 79 c 4
 399.75 51 409.794181824 28.75 433 28.75 c 4
 458 28.75 469.104492188 55 492.25 55 c 4
 500.25 55 505.966629028 51.8405914307 508.75 46.75 c 5
 513.482911541 69.6895348707 517 102.417262316 517 129 c 4
 517 224.804687505 473.342091129 320 367 320 c 4
 311.681640625 320 253.042235136 293.583149076 242 240 c 5
 249 243 255.333007812 244 262 244 c 4
 310 244 343 208 343 138 c 4
 343 62 289 -1 198 -1 c 4
 90.9953272048 -1 34 92 34 206 c 4
 34 334 106.999015752 432 234 432 c 4
 238 432 248 431.5 251 431 c 5
 251 406.25 l 5
 246.639648438 406.552734375 242.3046875 406.712890625 238 406.712890625 c 4
 140 406.712890625 88 341.401367188 88 266.25 c 260
 88 216.441656115 117.690429688 140 207.5 140 c 4
 252.1953125 140 295 154.289744837 295 191 c 4
 295 201.748046875 286.854989469 218 261.75 218 c 4
 255.75 218 246.75 217 238.75 211 c 5
 236.75 206 235.75 197 234.75 192 c 5
 208 192 l 5
 222 328 276 432 399 432 c 4
 523.00100806 432 582 312.364303026 582 196 c 4
 582 128.199579906 558.073707854 36.9960192483 529 1 c 5
 500.25 1 l 5
 503.583007812 5.6669921875 504.5 10 504.5 14 c 4
 504.5 20.6669921875 500.083007812 27.5 492.75 27.5 c 4
 471.75 27.5 465 -3 427 -3 c 4
 390.405730212 -3 367 36 367 75 c 4
 367 138.084780925 413.734375 184.499023438 480.25 184.5 c 4
EndSplineSet
Layer: 2
EndChar

StartChar: uni0DC2
Encoding: 56 3522 64
Width: 622
VWidth: 1000
Flags: HW
LayerCount: 3
Back
Fore
SplineSet
389 280.5 m 4
 439.352539062 289.538085938 502.228515625 306.337890625 502.228515625 351 c 4
 502.228515625 380 474.540222168 402.387695312 432 402.387695312 c 4
 388.77734375 402.387695312 354.684570312 377.065429688 354.684570312 336 c 4
 354.684570312 332.227539062 354.962890625 330.364257812 355.5 326.5 c 5
 372.455078125 328.5546875 387.344726562 329.59765625 403 329.59765625 c 4
 494.353515625 329.59765625 574.005875264 293.413498729 574.005875264 186.451529958 c 4
 574.005875264 55.5619188946 447.644682871 -7.1054273576e-15 307 0 c 4
 158.589562849 0 31.3313942639 45.9203100819 31.3313942639 183.554236057 c 4xdb40
 31.3313942639 274.623686336 99.2294921875 328.427734375 207 328.427734375 c 4
 220 328.427734375 229.708007812 327.7890625 242.5 326.5 c 5
 242.9609375 330.32421875 243.181640625 332.491210938 243.181640625 336 c 4
 243.181640625 375 216.345723122 392 191 392 c 4
 158.969726562 392 150.906640712 374.802887263 146 356 c 4
 142.346679688 342 127.345703125 326 99 326 c 4
 72.2289886475 326 54.8251953125 341 54.8251953125 366 c 4
 54.8251953125 408.1953125 103 433.625654084 158.189212207 433.625654084 c 4xe7
 230.547628845 433.625654084 274.869626667 401 274.869626667 334.000351519 c 4
 274.869626667 322.637138529 273.631835938 311.303710938 271 298 c 5
 253.180664062 300.375976562 218.23046875 301.717773438 217 301.717773438 c 4
 139.720703125 301.717773438 94 278.626006301 94 228 c 4
 94 161.950720459 193 131 307 131 c 4
 413.55078125 131 514 159.633682856 514 228 c 4
 514 276.973621952 472 303.612307156 394.000002487 303.612307156 c 4
 370.819078063 303.612307156 346.926878013 301.168523275 324 297 c 5
 322.072237276 307.92398877 321.143157328 318.266754681 321.143157328 327.99999265 c 4
 321.143157328 397 365.956884184 433.118522656 438.844851469 433.118522656 c 4xdb40
 505 433.118522656 541.018818118 392.966132064 541.018818118 354.00000109 c 4xd380
 541.018818118 291.661319681 449.03125 269.26171875 399 259.5 c 5
 418.333007812 250.833007812 432 237.419356346 432 220.5 c 4
 432 175.5 375 161.5 296 161.5 c 4
 240.326171875 161.5 172 172.5 172 221.5 c 4
 172 246.551269531 192 273.5 288 273.5 c 4
 311 273.5 358.092773438 274.952148438 389 280.5 c 4
298.080078125 250.860351562 m 4
 234.379882812 250.860351562 204 243.01953125 204 221.459960938 c 4
 204 198.919921875 235.686523438 188.139648438 299.059570312 188.139648438 c 4
 365.700195312 188.139648438 400 198.919921875 400 220.48046875 c 4
 400 244.662109375 366.6796875 250.860351562 298.080078125 250.860351562 c 4
EndSplineSet
Layer: 2
EndChar

StartChar: uni0DC3
Encoding: 57 3523 65
Width: 677
VWidth: 1000
Flags: HW
LayerCount: 3
Back
Fore
SplineSet
460 0 m 4
 395.333007812 0 352 31 333 82 c 5
 312 30 271 -1 203 -1 c 4
 108 -1 51 76 51 154 c 4
 51 226 92 269 144 285 c 5
 177.760742188 297.19921875 231.875 308 269 308 c 6
 280 308 l 5
 280.08203125 310.041015625 280.0859375 309.041015625 280.0859375 311 c 4
 280.0859375 357 246.923448563 388.75 216.5 388.75 c 4
 178.483886719 388.75 170.5 368.5 165 352.5 c 4
 158.451171875 333.448242188 144.166870873 321 119.75 321 c 4
 99.1432647705 321 81.5 333.368164062 81.5 359 c 4
 81.5 404.1953125 132 431.5 187 431.5 c 4
 275 431.5 313.146484375 369 313.146484375 296 c 4
 313.146484375 292.721679688 313.100585938 283.637695312 313 280.25 c 5
 234 280.25 l 6xd7f0
 181 280.25 119.5 266.473216371 119.5 213 c 4
 119.5 176.825511776 151.995117188 140 225 140 c 4
 280.764648438 140 321 156.653320312 321 197.5 c 6
 321 213.75 l 5
 348 213.75 l 5
 348 197.5 l 6
 348 156.6015625 382.237304688 140 443.5 140 c 4
 515.775221784 140 562.25 168.783753395 562.25 217.75 c 4
 562.25 252.067382812 539.759433746 288 450 288 c 4xcff0
 418 288 391 286 353 279 c 5
 352.814453125 282.706054688 352.717070236 287.374324769 352.717070236 290.99999647 c 4
 352.717070236 375 400.57421875 432 476 432 c 4
 530 432 579 408 579 350 c 4
 579 328.666992188 565 306 550 297 c 5
 597.333333333 273.666666667 628 221.08203125 628 166 c 4
 628 58 558 0 460 0 c 4
147 280.25 m 6xd7f0
 76 279.25 21 275.916992188 5 273.25 c 5
 5 308 l 5xe7f0
 278 308 l 5
 309 280.25 l 5
 147 280.25 l 6xd7f0
385 310 m 5
 396 313 421 316 445 316 c 4xcff0
 479 316 499.5 313.5 521.5 306.5 c 5
 530.012099342 315.076973976 536.5 328.050528526 536.5 342.5 c 260
 536.5 370.601732254 506.477539062 384.75 470 384.75 c 4
 418 384.75 388.589305043 355.908459961 385 310 c 5
EndSplineSet
Layer: 2
EndChar

StartChar: uni0DC5
Encoding: 59 3525 66
Width: 636
VWidth: 1000
Flags: HW
LayerCount: 3
Back
Fore
SplineSet
181 297.25 m 4
 181 192.330078125 251.090820312 138 352 138 c 4
 420.567382812 138 477.355418302 158.228127226 501.5 190 c 5
 531.5 190 l 5
 508.691503987 89.427900508 437 43 334 43 c 4
 217.771521071 43 126 138 126 274 c 4
 126 373 187.046491464 432 260 432 c 4
 296 432 333 415 349 377 c 5
 367 415 409 432 445 432 c 4
 532 432 576 363.504348755 576 268.75 c 5
 278 268.75 l 6
 236 268.75 155 264.040039062 155 172 c 4
 155 50.3125 244.248257637 -68 402 -68 c 4
 489.95703125 -68 586.080078125 -29.673828125 589 74 c 5
 618 74 l 5
 618 -68 472 -153 343 -153 c 4
 168 -153 31 -57 31 114 c 4
 31 191.989158132 80 297 179 297 c 6
 540.25 297 l 5
 540.25 349.646484375 510 401.5 444 401.5 c 4
 398 401.5 365 363.1953125 365 329 c 5
 332 329 l 5
 332 362.458984375 302 402.5 259 402.5 c 4
 203 402.5 181 357.938944206 181 297.25 c 4
EndSplineSet
Layer: 2
EndChar

StartChar: uni0DC6
Encoding: 60 3526 67
Width: 607
VWidth: 1000
Flags: HW
LayerCount: 3
Back
Fore
SplineSet
296 359 m 5
 312 398 346 431 406 431 c 4
 514 431 559 316 559 212 c 4
 559 110 511.110351562 -1 410 -1 c 4
 398 -1 385.333007812 1.3330078125 372 6 c 5
 372 33.75 l 5
 382.666992188 29.75 393.666992188 27.75 405 27.75 c 4
 476 27.75 503 98.1560024117 503 170 c 4
 503 217.075994113 490.25 297 404.25 297 c 4
 352.25 297 312.75 271 312.75 200 c 6
 312.75 180 l 5
 279.25 180 l 5
 279.25 200 l 6
 279.25 271 240.25 297 188.25 297 c 4
 102.25 297 87 213.359996499 87 167 c 4
 87 98.1721992876 116 28 187 28 c 4
 198.333007812 28 209.333007812 30 220 34 c 5
 220 6 l 5
 206.666666667 1.33333333333 194 -1 182 -1 c 4
 80.8892185394 -1 33 110 33 212 c 4
 33 316 78 431 186 431 c 4
 246 431 280 398 296 359 c 5
EndSplineSet
Layer: 2
EndChar

StartChar: uni0DCA
Encoding: 61 3530 68
Width: 2
VWidth: 1000
Flags: HW
LayerCount: 3
Back
Fore
SplineSet
-141.5 348 m 5
 -141.5 681 l 5
 -87.5 639 10 634 10 542 c 4
 10 498 -24.8083679498 468 -68 468 c 4
 -82.6666666667 468 -97.6666666667 471.333333333 -113 478 c 5
 -113 331 l 5
 -141.5 348 l 5
-112.89453125 636.586914062 m 5
 -112.89453125 504.2734375 l 5
 -104.400390625 499.69921875 -93.6181640625 497.413085938 -80.5517578125 497.413085938 c 4
 -48.5458646922 497.413085938 -35 521.915039062 -35 545.4375 c 4
 -35 586.6015625 -66.830078125 606.203125 -112.89453125 636.586914062 c 5
EndSplineSet
Layer: 2
EndChar

StartChar: uni0DCF
Encoding: 62 3535 69
Width: 312
VWidth: 1000
Flags: HW
LayerCount: 3
Back
Fore
SplineSet
132 201 m 4
 132 311.459960938 107.036132812 338 85 338 c 4
 74.7802734375 338 49.75 331.393554688 49.75 284.830078125 c 4
 49.75 279.443359375 50.0830078125 274.393554688 50.75 269.6796875 c 5
 23 269.6796875 l 5
 22.3330078125 277.0859375 22 284.494140625 22 291.900390625 c 4
 22 360.728515625 74 403 133 403 c 4
 224 403 270 329.26953125 270 201 c 4
 270 72.73046875 224 -1 133 -1 c 4
 65.587890625 -1 22 41.271484375 22 110.099609375 c 4
 22 117.506835938 22.3330078125 124.9140625 23 132.3203125 c 5
 50.75 132.3203125 l 5
 50.0830078125 127.606445312 49.75 122.556640625 49.75 117.169921875 c 4
 49.75 70.4501953125 73.486328125 66 85 66 c 4
 107.64453125 66 132 90.5400390625 132 201 c 4
EndSplineSet
Layer: 2
EndChar

StartChar: uni0DD1
Encoding: 64 3537 70
Width: 336
VWidth: 1000
Flags: HW
LayerCount: 3
Back
Fore
SplineSet
4 339 m 5
 249 339 l 5
 249 317 l 5
 122 223 l 5
 272 223 l 5
 272 200.5 l 5
 226.4375 165.340332031 188 118.344726562 188 36 c 4
 188 -28.852555871 226.107421875 -99.75 306 -99.75 c 5
 306 -126.75 l 5
 272.6484375 -141.067382812 237.351365879 -148 207.25 -148 c 4
 116.658203125 -148 55.75 -100.616210938 55.75 -18 c 4
 55.75 96.337890625 159.166733993 155.980802876 227.5 196.5 c 5
 72 196.5 l 5
 72 221.25 l 5
 197.75 312.5 l 5
 4 312.5 l 5
 4 339 l 5
EndSplineSet
Layer: 2
EndChar

StartChar: uni0DD2
Encoding: 65 3538 71
Width: 2
VWidth: 1000
Flags: HW
LayerCount: 3
Back
Fore
SplineSet
-313 671 m 4
 -193.62109375 671 -81 626.291015625 -81 518 c 4
 -81 443.45703125 -147.142578125 408.07421875 -224 405 c 5
 -224 427.75 l 5
 -170.32421875 430.575195312 -148.25 447.041015625 -148.25 479 c 4
 -148.25 521.433410645 -226.562799454 535.75 -313 535.75 c 4
 -401.908203125 535.75 -482 521.776367188 -482 479 c 4
 -482 450.303925514 -455.67578125 430.575195312 -402 427.75 c 5
 -402 405 l 5
 -478.857421875 408.07421875 -545 443.45703125 -545 518 c 4
 -545 626.291015625 -432.37890625 671 -313 671 c 4
EndSplineSet
Layer: 2
EndChar

StartChar: uni0DD3
Encoding: 66 3539 72
Width: 2
VWidth: 1000
Flags: HW
LayerCount: 3
Back
Fore
SplineSet
-248.686523438 514 m 4
 -248.686523438 483.616210938 -219.283203125 459.114257812 -184 459.114257812 c 4
 -148.716796875 459.114257812 -119.313476562 483.616210938 -119.313476562 514 c 4
 -119.313476562 544.383789062 -148.716796875 568.885742188 -184 568.885742188 c 4
 -219.283203125 568.885742188 -248.686523438 544.383789062 -248.686523438 514 c 4
-497 406 m 5
 -550.245580402 410.73294048 -587 456 -587 517 c 4
 -587 624.2109375 -463.053882536 671 -336 671 c 260
 -219.285943513 671 -83 627.398935547 -83 524 c 4
 -83 468.768116676 -127.72265625 429 -184 429 c 4
 -242 429 -282 470 -282 515 c 4
 -282 525.451630443 -279.231326394 549.089154676 -266 562 c 5
 -274.849075317 563.390396118 -315.498046875 565 -348 565 c 4
 -442.1640625 565 -538 542.7109375 -538 482 c 4
 -538 459.934570312 -525.458984375 437 -490 428 c 5
 -497 406 l 5
EndSplineSet
Layer: 2
EndChar

StartChar: uni0DD4
Encoding: 67 3540 73
Width: 2
VWidth: 1000
Flags: HW
LayerCount: 3
Back
Fore
SplineSet
-56 219 m 5
 -56 -235 l 5
 -489 -235 l 6
 -568.542781819 -235 -594.5 -186.09165757 -594.5 -142.5 c 4
 -594.5 -90.4910449982 -548.207519531 -50.5 -493 -50.5 c 4
 -451.09375 -50.5 -413.750026189 -74.1412406281 -399 -110 c 5
 -431.75 -121.5 l 5
 -438.573772788 -104.35831368 -460 -81.75 -493 -81.75 c 4
 -529.704101562 -81.75 -559 -109.715663347 -559 -142.5 c 4
 -559 -171.663085938 -537.252151489 -192.5 -467.5 -192.5 c 6
 -91.25 -192.5 l 5
 -91.25 128 l 5
 -56 219 l 5
EndSplineSet
Layer: 2
EndChar

StartChar: uni0DD6
Encoding: 68 3542 74
Width: 2
VWidth: 1000
Flags: HW
LayerCount: 3
Back
Fore
SplineSet
-58 212 m 5
 -58 -231 l 5
 -83.5 -231 l 5
 -98.5 -195 -144.050338745 -146.25 -207 -146.25 c 4
 -298 -146.25 -373 -237 -471 -237 c 4
 -526 -237 -582 -206 -582 -138 c 4
 -582 -80 -533 -40 -480 -40 c 4
 -438 -40 -405.666992188 -55 -383 -91 c 5
 -416 -102 l 5
 -427.31640625 -84.69921875 -446 -70 -475 -70 c 4
 -514 -70 -539 -95.0757320896 -539 -120 c 4
 -539 -151.99539593 -510.184570312 -167 -476 -167 c 4
 -399.78515625 -167 -324.672616094 -114.5 -217 -114.5 c 4
 -165.917666256 -114.5 -120 -133.75 -93 -165.75 c 5
 -93 152 l 5
 -58 212 l 5
EndSplineSet
Layer: 2
EndChar

StartChar: uni0DD8
Encoding: 69 3544 75
Width: 313
VWidth: 1000
Flags: HW
LayerCount: 3
Back
Fore
SplineSet
59.25 242 m 5xbc
 33 242 l 5
 32.91796875 244.677734375 32.8818359375 246.344726562 32.8818359375 249 c 4
 32.8818359375 329 68.0497114062 393 147.75 393 c 4
 234.646484375 393 270.75 313.77734375 270.75 203 c 4xba
 270.75 144 253.75 52.4365234375 253.75 23 c 4
 253.75 15.6669921875 254.083007812 9 254.75 3 c 5
 180 3 l 5
 177.333007812 12.3330078125 172.333007812 17 165 17 c 4x7c
 152.846679688 17 144.646816254 -1 115.75 -1 c 4
 56.75 -1 33 65.5631445334 33 106 c 4
 33 153.333007812 55.0079451537 188.315089316 99 207 c 4
 121.245986938 216.448621586 146.077726686 220.008908974 153.5 220.5 c 5
 153.5 310.5 144.536132812 340 116 340 c 4
 82.4028968811 340 59.203125 308 59.203125 246 c 4
 59.203125 244.333007812 59.2138671875 243.666015625 59.25 242 c 5xbc
153.5 192 m 5
 149.96774994 192 131.153320312 187.953125 123 185.5 c 4
 86.6982421875 174.578125 64.25 150.544921875 64.25 107 c 4
 64.25 76.3349609375 78.1198616028 29.5 117.75 29.5 c 4xba
 144.6484375 29.5 147.000976562 40.626953125 161.25 42 c 5
 153.142110712 47.1438532837 152.5 75.8330078125 152.5 113.5 c 4x7c
 152.5 144.87890625 153.657226562 165 153.657226562 183 c 4
 153.657226562 185.99609375 153.611328125 189.663085938 153.5 192 c 5
EndSplineSet
Layer: 2
EndChar

StartChar: uni0DD9
Encoding: 70 3545 76
Width: 603
VWidth: 1000
Flags: HW
LayerCount: 3
Back
Fore
SplineSet
220.549804688 276 m 4
 220.549804688 250.751953125 245.299804688 229.544921875 275 229.544921875 c 4
 304.700195312 229.544921875 329.450195312 250.751953125 329.450195312 276 c 4
 329.450195312 301.248046875 304.700195312 322.455078125 275 322.455078125 c 4
 245.299804688 322.455078125 220.549804688 301.248046875 220.549804688 276 c 4
584 206 m 5
 553 206 l 5
 534.421875 321.7578125 430 401.5 301 401.5 c 4
 187.17578125 401.5 106 344.137829781 106 264 c 4
 106 197.009990692 163.286132812 137 269 137 c 4
 358 137 417 179.166015625 417 243.5 c 4
 417 275.496359751 393.476813078 311.27989006 344.25 322.5 c 5
 357.150631845 310.589205205 364.25 291.5 364.25 275.5 c 4
 364.25 231.434570312 320.099609375 199.75 275.25 199.75 c 4
 230.303710938 199.75 185.75 231.25 185.75 275.25 c 260
 185.75 322.265113831 230.716796875 354.5 289.75 354.5 c 4
 399.51171875 354.5 491 292.002780139 491 176.75 c 4
 491 80.4303454757 412 0 269 0 c 4
 134 0 33 83.6284822101 33 212 c 4
 33 346.856925545 160.549331826 432 301 432 c 4
 448.707025307 432 571.822206459 339.955728948 584 206 c 5
EndSplineSet
Layer: 2
EndChar

StartChar: uni0DDF
Encoding: 76 3551 77
Width: 441
VWidth: 1000
Flags: HW
LayerCount: 3
Back
Fore
SplineSet
106.25 428 m 5
 70 428 l 5
 49 404 33 369.666666667 33 321 c 4
 33 261.448089092 66.29296875 212 121.75 212 c 4
 172.243164062 212 201 237.916015625 201 288 c 4
 201 312 188 332.833007812 164 345.5 c 5
 163.86328125 347.884765625 163.861328125 350.21875 163.861328125 352.5 c 4
 163.861328125 381.923324108 184.153320312 389 198.5 389 c 4
 227.099293709 389 252 343.73617837 252 238 c 4
 252 111.573844985 234.351821911 63 193 63 c 4
 171.959960938 63 145.25 75.693359375 145.25 125 c 4
 145.25 135.666992188 146.25 146.333007812 148.25 157 c 5
 121 157 l 5
 118.333007812 144.333007812 117 132 117 120 c 4
 117 53.9697265625 151.486665792 -2 233.5 -2 c 4
 347.715191775 -2 393 101 393 220 c 4
 393 315.586702165 354.4375 432.25 235 432.25 c 4
 174.8203125 432.25 135.138671875 398 135.138671875 349 c 4
 135.138671875 344.20703125 135.43359375 342.20703125 136 337 c 5
 149.333007812 323 156 307.333007812 156 290 c 4
 156 261.458007812 140.388671875 246.5 116.5 246.5 c 4
 85.3600301743 246.5 63.75 276.290039062 63.75 322 c 4
 63.75 374.666992188 84.25 410 106.25 428 c 5
EndSplineSet
Layer: 2
EndChar

StartChar: uni0DF3
Encoding: 77 3571 78
Width: 441
VWidth: 1000
Flags: HW
LayerCount: 3
Back
Fore
SplineSet
106.25 428 m 5
 70 428 l 5
 49 404 33 369.666666667 33 321 c 4
 33 261.448089092 66.29296875 212 121.75 212 c 4
 172.243164062 212 201 237.916015625 201 288 c 4
 201 312 188 332.833007812 164 345.5 c 5
 163.86328125 347.884765625 163.861328125 350.21875 163.861328125 352.5 c 4
 163.861328125 381.923324108 184.153320312 389 198.5 389 c 4
 227.099293709 389 252 343.73617837 252 238 c 4
 252 111.573844985 234.351821911 63 193 63 c 4
 171.959960938 63 145.25 75.693359375 145.25 125 c 4
 145.25 135.666992188 146.25 146.333007812 148.25 157 c 5
 121 157 l 5
 118.333007812 144.333007812 117 132 117 120 c 4
 117 53.9697265625 151.486665792 -2 233.5 -2 c 4
 347.715191775 -2 393 101 393 220 c 4
 393 315.586702165 354.4375 432.25 235 432.25 c 4
 174.8203125 432.25 135.138671875 398 135.138671875 349 c 4
 135.138671875 344.20703125 135.43359375 342.20703125 136 337 c 5
 149.333007812 323 156 307.333007812 156 290 c 4
 156 261.458007812 140.388671875 246.5 116.5 246.5 c 4
 85.3600301743 246.5 63.75 276.290039062 63.75 322 c 4
 63.75 374.666992188 84.25 410 106.25 428 c 5
EndSplineSet
Layer: 2
EndChar

StartChar: uni0DF2
Encoding: 78 3570 79
Width: 571
VWidth: 1000
Flags: HW
HStem: -1 29<92.9054 189.11 351.905 448.11> 17 26<164.146 204.775 423.146 463.775> 195 27<113.639 203 372.639 462> 358 35<89.521 170.434 348.521 429.434>
VStem: 33 30<58.5465 155.33 242 326.823> 202 45<40.6339 194.498> 203.157 60.8428<40.9875 195 222 319.732> 292 30<58.5465 155.33 242 326.823> 461 45<40.6339 194.498> 462.157 60.8428<40.9875 195 222 319.732>
LayerCount: 3
Back
Fore
SplineSet
312.5 242 m 5xbc
 286.25 242 l 5
 286.16796875 244.677734375 286.131835938 246.344726562 286.131835938 249 c 4
 286.131835938 329 321.299804688 393 401 393 c 4
 487.896484375 393 524 313.77734375 524 203 c 4xba
 524 144 507 52.4365234375 507 23 c 4
 507 15.6669921875 507.333007812 9 508 3 c 5
 433.25 3 l 5
 430.583007812 12.3330078125 425.583007812 17 418.25 17 c 4x7c
 406.096679688 17 397.896484375 -1 369 -1 c 4
 310 -1 286.25 65.5634765625 286.25 106 c 4
 286.25 153.333007812 308.2578125 188.315429688 352.25 207 c 4
 374.49609375 216.448242188 399.328125 220.008789062 406.75 220.5 c 5
 406.75 310.5 397.786132812 340 369.25 340 c 4
 335.653320312 340 312.453125 308 312.453125 246 c 4
 312.453125 244.333007812 312.463867188 243.666015625 312.5 242 c 5xbc
406.75 192 m 5
 403.217773438 192 384.403320312 187.953125 376.25 185.5 c 4
 339.948242188 174.578125 317.5 150.544921875 317.5 107 c 4
 317.5 76.3349609375 331.370117188 29.5 371 29.5 c 4xba
 397.8984375 29.5 400.250976562 40.626953125 414.5 42 c 5
 406.392578125 47.1435546875 405.75 75.8330078125 405.75 113.5 c 4x7c
 405.75 144.87890625 406.907226562 165 406.907226562 183 c 4
 406.907226562 185.99609375 406.861328125 189.663085938 406.75 192 c 5
59.25 242 m 1xbc
 33 242 l 1
 32.91796875 244.677734375 32.8818359375 246.344726562 32.8818359375 249 c 0
 32.8818359375 329 68.0497114062 393 147.75 393 c 0
 234.646484375 393 270.75 313.77734375 270.75 203 c 0xba
 270.75 144 253.75 52.4365234375 253.75 23 c 0
 253.75 15.6669921875 254.083007812 9 254.75 3 c 1
 180 3 l 1
 177.333007812 12.3330078125 172.333007812 17 165 17 c 0x7c
 152.846679688 17 144.646816254 -1 115.75 -1 c 0
 56.75 -1 33 65.5631445334 33 106 c 0
 33 153.333007812 55.0079451537 188.315089316 99 207 c 0
 121.245986938 216.448621586 146.077726686 220.008908974 153.5 220.5 c 1
 153.5 310.5 144.536132812 340 116 340 c 0
 82.4028968811 340 59.203125 308 59.203125 246 c 0
 59.203125 244.333007812 59.2138671875 243.666015625 59.25 242 c 1xbc
153.5 192 m 1
 149.96774994 192 131.153320312 187.953125 123 185.5 c 0
 86.6982421875 174.578125 64.25 150.544921875 64.25 107 c 0
 64.25 76.3349609375 78.1198616028 29.5 117.75 29.5 c 0xba
 144.6484375 29.5 147.000976562 40.626953125 161.25 42 c 1
 153.142110712 47.1438532837 152.5 75.8330078125 152.5 113.5 c 0x7c
 152.5 144.87890625 153.657226562 165 153.657226562 183 c 0
 153.657226562 185.99609375 153.611328125 189.663085938 153.5 192 c 1
EndSplineSet
Layer: 2
EndChar

StartChar: si_MatraU.alt
Encoding: 85 -1 80
Width: 2
VWidth: 1000
Flags: HW
LayerCount: 3
Back
Fore
SplineSet
-37 -36 m 5
 -34.6455078125 -45.416015625 -34.5654296875 -60.2900390625 -34.5654296875 -69.5 c 4
 -34.5654296875 -122.145507812 -78.298828125 -191.5 -179 -191.5 c 4
 -246.73828125 -191.5 -314 -149.233398438 -314 -80 c 4
 -314 -30 -285.143184174 5.07406131771 -245 20.75 c 5
 -236 2 l 5
 -258.686313436 -10.6410716563 -269 -26.0911937226 -269 -48.25 c 4
 -269 -84.6162109375 -225.952148438 -105 -174.5 -105 c 4
 -113.5 -105 -66.3076171875 -82.5621660267 -66.3076171875 -45 c 4
 -66.3076171875 -42.0390625 -66.5810546875 -39.0380859375 -67 -36 c 5
 -37 -36 l 5
EndSplineSet
Layer: 2
EndChar

StartChar: si_MatraUu.alt
Encoding: 86 -1 81
Width: 746
VWidth: 1000
Flags: HW
LayerCount: 3
Back
Fore
SplineSet
-43 -59 m 5
 -39.4094514099 -71.1181014917 -38.6962890625 -82.8329789469 -38.6962890625 -94 c 4
 -38.6962890625 -161 -90 -205 -172 -205 c 4
 -230 -205 -294 -187.465871249 -294 -129 c 4
 -294 -93.3489953573 -267 -72 -230 -67 c 5
 -285 -39 l 5
 -199.75 -14.5 l 5
 -234 -1.25 l 5
 -233.75 21 l 5
 -137.75 -15 l 5
 -222.25 -43.25 l 5
 -162 -76 l 5
 -190 -83 -244 -83.4661131457 -244 -104.5 c 4
 -244 -120.921875 -212.076171875 -129 -170 -129 c 4
 -116 -129 -71.771484375 -112.984375 -71.771484375 -82 c 4
 -71.771484375 -77 -72.50390625 -66.9287109375 -77.75 -59 c 5
 -43 -59 l 5
EndSplineSet
Layer: 2
EndChar

StartChar: si_Reph
Encoding: 95 -1 82
Width: 2
VWidth: 1000
Flags: HW
LayerCount: 3
Back
Fore
SplineSet
-357.099609375 516 m 4
 -357.099609375 495.854492188 -338.872070312 479.546875 -317 479.546875 c 4
 -295.127929688 479.546875 -276.900390625 495.854492188 -276.900390625 516 c 4
 -276.900390625 536.145507812 -295.127929688 552.453125 -317 552.453125 c 4
 -338.872070312 552.453125 -357.099609375 536.145507812 -357.099609375 516 c 4
-366.5 476.25 m 5
 -374.5 482.25 -385 496 -385 517 c 4
 -385 552 -353.646484375 577 -318 577 c 4
 -277 577 -249 550 -249 515 c 4
 -249 476 -284 450 -342 450 c 4
 -401 450 -460 479 -460 535 c 4
 -460 599 -401.879882812 636 -320 636 c 4
 -243 636 -179 593 -179 522 c 4
 -179 498 -187.333333333 476.333333333 -204 457 c 5
 -239.75 457 l 5
 -226.580078125 469.38671875 -211 493.734375 -211 521 c 260
 -211 575.52169013 -260 607.5 -321 607.5 c 4
 -373.778320312 607.5 -427.25 584.990234375 -427.25 535 c 4
 -427.25 495.924804688 -384.098826672 478.68872105 -366.5 476.25 c 5
EndSplineSet
Layer: 2
EndChar

StartChar: si_Rakar
Encoding: 101 -1 83
Width: 2
VWidth: 1000
Flags: HW
LayerCount: 3
Back
Fore
SplineSet
-569.5 -44 m 5
 -536.95635565 -87.7113773314 -474.333007812 -114 -369 -114 c 4
 -226 -114 -96 -31.0107421875 -96 63.25 c 4
 -96 78.2841796875 -98.0244140625 92.0718918443 -103 102 c 5
 -90 133 l 5
 -72 106.333333333 -63 74.6666666667 -63 38 c 4
 -63 -123.729769303 -201 -219 -345 -219 c 4
 -478 -219 -561.666666667 -153.333333333 -599 -44 c 5
 -569.5 -44 l 5
EndSplineSet
Layer: 2
EndChar

StartChar: si_Yanse
Encoding: 103 -1 84
Width: 544
VWidth: 1000
Flags: HW
LayerCount: 3
Back
Fore
SplineSet
35 422 m 5
 48 429 69.3333333333 432 86 432 c 4
 162.26461908 432 216 360 216 273 c 4
 216 214 204.668493055 179.185939856 190 148 c 5
 206.749474954 140.219738398 241.20432574 130 284 130 c 4
 371.146153801 130 418 169.301408299 418 214 c 4
 418 237.532782885 405 277.75 344 277.75 c 4
 312 277.75 249 286.868076152 249 352 c 4
 249 402 295.176757812 432 356 432 c 4
 415 432 461 400 461 341 c 4
 461 334.333333333 460.333333333 327.666666667 459 321 c 5
 426.25 321 l 5
 427.583007812 327 428.25 333 428.25 339 c 4
 428.25 379.340332031 398 404.25 355 404.25 c 4
 318.638671875 404.25 281 387.7578125 281 353 c 4
 281 315.962890625 308 306 347 306 c 4
 424 306 497 265.807617188 497 164 c 4
 497 66 409 0 322 0 c 4
 244.379882812 0 195 21 147 83 c 5
 115.985348228 47.9399588663 71.9292388107 14.8888713799 29 1 c 5
 12 23.75 l 5
 101.278845544 61.9112822938 184.75 141 184.75 268 c 4
 184.75 335.123785496 149.041992188 404.25 84 404.25 c 4
 68.6669921875 404.25 50 400.25 35 393.25 c 5
 35 422 l 5
EndSplineSet
Layer: 2
EndChar

StartChar: si_Ka.halant
Encoding: 104 -1 85
Width: 746
VWidth: 1000
Flags: HW
LayerCount: 3
Back
Fore
SplineSet
549.5 348 m 5
 549.5 681 l 5
 603.5 639 701 634 701 542 c 4
 701 498 666.19140625 468 623 468 c 4
 608.333007812 468 593.333007812 471.333007812 578 478 c 5
 578 331 l 5
 549.5 348 l 5
578.10546875 636.586914062 m 5
 578.10546875 504.2734375 l 5
 586.599609375 499.69921875 597.381835938 497.413085938 610.448242188 497.413085938 c 4
 642.454101562 497.413085938 656 521.915039062 656 545.4375 c 4
 656 586.6015625 624.169921875 606.203125 578.10546875 636.586914062 c 5
113 323 m 4
 104.732279418 305.545923216 87 297 72 297 c 132
 35 297 29 328 29 340 c 4
 29 394.098632812 79.3632281498 433 136 433 c 4
 188.347731079 433 220 399 220 358 c 4
 220 352 220 349 219 341 c 5
 278 396 366 434 453 434 c 4
 603 434 701 326.97064209 701 194 c 4
 701 81.36601758 638.458984398 -1 555 -1 c 4
 534.650220008 -1 519.659179688 2.97242259979 504 12 c 5
 504 40 l 5
 518 33 531 30 543 30 c 4
 584 30 597 77 597 123 c 4
 597 288 469 348 358 348 c 4
 294 348 244 330 214 304 c 5
 244 312 277.666992188 314 305 314 c 4
 425 314 515 250 515 126 c 4
 515 67.8472233203 482 -1 397 -1 c 4
 351 -1 317.333333333 20.3333333333 296 63 c 5
 278.666666667 21.6666666667 246.021148364 -1 204 -1 c 4
 117 -1 120 73 87 73 c 4
 64.6748046875 73 52 51 49 11 c 5
 21 22 l 5
 28.6966338402 91.2697045622 74.4524773728 184.16496867 109 232 c 4
 135 268 148 280 171 304 c 5
 180 314 191.75 331 191.75 352 c 4
 191.75 371 182 386 158 386 c 4
 144 386 128.438133087 378.533465805 124 363 c 4
 118 342 122 342 113 323 c 4
180 268 m 5
 162.666992188 253.333007812 146.522390704 234.996134377 131 212 c 4
 104 172 101 163 91 143 c 5
 103 153 115 160 129 160 c 4
 161 160 172 140 212 140 c 4
 258 140 280 157 280 214 c 4
 280 216.208984375 280.041015625 214.3046875 280 216 c 5
 308 216 l 5
 307.963867188 214.6640625 308 216.330078125 308 215 c 4
 308 154 332 140 377 140 c 4
 418 140 443 169 443 204 c 4
 443 246 402 287 301 287 c 4
 244.333007812 287 204.666992188 280 180 268 c 5
EndSplineSet
Layer: 2
EndChar

StartChar: si_KI
Encoding: 105 -1 86
Width: 746
VWidth: 1000
Flags: HW
LayerCount: 3
Back
Fore
SplineSet
610 383 m 5
 578.75 403.5 l 5
 612.844726562 407.907226562 633 426.337890625 633 456 c 4
 633 514.546212673 555 549.75 473 549.75 c 4
 336 549.75 246.5 473.840780973 246.5 396.25 c 4
 246.5 386.950195312 247.657329559 375.107318878 250.25 365.5 c 5
 225 343 l 5
 220.903461411 360.75166722 218 389.836914062 218 421 c 4
 218 590 330 671 473 671 c 4
 603 671 688 610 688 505 c 4
 688 444 658 402 610 383 c 5
113 323 m 4
 104.732279418 305.545923216 87 297 72 297 c 132
 35 297 29 328 29 340 c 4
 29 394.098632812 79.3632281498 433 136 433 c 4
 188.347731079 433 220 399 220 358 c 4
 220 352 220 349 219 341 c 5
 278 396 366 434 453 434 c 4
 603 434 701 326.97064209 701 194 c 4
 701 81.36601758 638.458984398 -1 555 -1 c 4
 534.650220008 -1 519.659179688 2.97242259979 504 12 c 5
 504 40 l 5
 518 33 531 30 543 30 c 4
 584 30 597 77 597 123 c 4
 597 288 469 348 358 348 c 4
 294 348 244 330 214 304 c 5
 244 312 277.666992188 314 305 314 c 4
 425 314 515 250 515 126 c 4
 515 67.8472233203 482 -1 397 -1 c 4
 351 -1 317.333333333 20.3333333333 296 63 c 5
 278.666666667 21.6666666667 246.021148364 -1 204 -1 c 4
 117 -1 120 73 87 73 c 4
 64.6748046875 73 52 51 49 11 c 5
 21 22 l 5
 28.6966338402 91.2697045622 74.4524773728 184.16496867 109 232 c 4
 135 268 148 280 171 304 c 5
 180 314 191.75 331 191.75 352 c 4
 191.75 371 182 386 158 386 c 4
 144 386 128.438133087 378.533465805 124 363 c 4
 118 342 122 342 113 323 c 4
180 268 m 5
 162.666992188 253.333007812 146.522390704 234.996134377 131 212 c 4
 104 172 101 163 91 143 c 5
 103 153 115 160 129 160 c 4
 161 160 172 140 212 140 c 4
 258 140 280 157 280 214 c 4
 280 216.208984375 280.041015625 214.3046875 280 216 c 5
 308 216 l 5
 307.963867188 214.6640625 308 216.330078125 308 215 c 4
 308 154 332 140 377 140 c 4
 418 140 443 169 443 204 c 4
 443 246 402 287 301 287 c 4
 244.333007812 287 204.666992188 280 180 268 c 5
EndSplineSet
Layer: 2
EndChar

StartChar: si_KIi
Encoding: 106 -1 87
Width: 746
VWidth: 1000
Flags: HW
LayerCount: 3
Back
Fore
SplineSet
532.301757812 476 m 4
 532.301757812 444.706054688 559.077148438 418.458007812 591 418.458007812 c 4
 622.922851562 418.458007812 649.698242188 444.706054688 649.698242188 476 c 4
 649.698242188 507.293945312 622.922851562 533.541992188 591 533.541992188 c 4
 559.077148438 533.541992188 532.301757812 507.293945312 532.301757812 476 c 4
593 388 m 4
 535 388 500 433 500 477 c 4
 500 509.014887004 514.197265625 528.212890625 531.25 543.25 c 5
 517.943346262 547.273111582 491.614369921 550 474.25 550 c 4
 323.9921875 550 246.25 464.060274052 246.25 398 c 4
 246.25 383.333007812 248.332510158 376.010648564 250.25 365 c 5
 225 343 l 5
 220.903461411 360.75166722 218 389.836914062 218 421 c 4
 218 590 330 671 473 671 c 4
 603 671 689 600 689 495 c 4
 689 444 651 388 593 388 c 4
113 323 m 4
 104.732279418 305.545923216 87 297 72 297 c 132
 35 297 29 328 29 340 c 4
 29 394.098632812 79.3632281498 433 136 433 c 4
 188.347731079 433 220 399 220 358 c 4
 220 352 220 349 219 341 c 5
 278 396 366 434 453 434 c 4
 603 434 701 326.97064209 701 194 c 4
 701 81.36601758 638.458984398 -1 555 -1 c 4
 534.650220008 -1 519.659179688 2.97242259979 504 12 c 5
 504 40 l 5
 518 33 531 30 543 30 c 4
 584 30 597 77 597 123 c 4
 597 288 469 348 358 348 c 4
 294 348 244 330 214 304 c 5
 244 312 277.666992188 314 305 314 c 4
 425 314 515 250 515 126 c 4
 515 67.8472233203 482 -1 397 -1 c 4
 351 -1 317.333333333 20.3333333333 296 63 c 5
 278.666666667 21.6666666667 246.021148364 -1 204 -1 c 4
 117 -1 120 73 87 73 c 4
 64.6748046875 73 52 51 49 11 c 5
 21 22 l 5
 28.6966338402 91.2697045622 74.4524773728 184.16496867 109 232 c 4
 135 268 148 280 171 304 c 5
 180 314 191.75 331 191.75 352 c 4
 191.75 371 182 386 158 386 c 4
 144 386 128.438133087 378.533465805 124 363 c 4
 118 342 122 342 113 323 c 4
180 268 m 5
 162.666992188 253.333007812 146.522390704 234.996134377 131 212 c 4
 104 172 101 163 91 143 c 5
 103 153 115 160 129 160 c 4
 161 160 172 140 212 140 c 4
 258 140 280 157 280 214 c 4
 280 216.208984375 280.041015625 214.3046875 280 216 c 5
 308 216 l 5
 307.963867188 214.6640625 308 216.330078125 308 215 c 4
 308 154 332 140 377 140 c 4
 418 140 443 169 443 204 c 4
 443 246 402 287 301 287 c 4
 244.333007812 287 204.666992188 280 180 268 c 5
EndSplineSet
Layer: 2
EndChar

StartChar: si_KU
Encoding: 107 -1 88
Width: 746
VWidth: 1000
Flags: HW
LayerCount: 3
Back
Fore
SplineSet
721.065429688 -36 m 5
 723.419921875 -45.416015625 723.5 -60.2900390625 723.5 -69.5 c 4
 723.5 -122.145507812 679.766601562 -191.5 579.065429688 -191.5 c 4
 511.327148438 -191.5 444.065429688 -149.233398438 444.065429688 -80 c 4
 444.065429688 -30 473.817077637 6.66508483887 513.565429688 23 c 5
 523 -5.5 l 5
 507.994140625 -11.1513671875 489.065429688 -26.0908203125 489.065429688 -48.25 c 4
 489.065429688 -84.6162109375 532.11328125 -105 583.565429688 -105 c 4
 644.565429688 -105 691.7578125 -82.5625 691.7578125 -45 c 4
 691.7578125 -42.0390625 691.484375 -39.0380859375 691.065429688 -36 c 5
 721.065429688 -36 l 5
113 323 m 4
 104.732279418 305.545923216 87 297 72 297 c 132
 35 297 29 328 29 340 c 4
 29 394.098632812 79.3632281498 433 136 433 c 4
 188.347731079 433 220 399 220 358 c 4
 220 352 220 349 219 341 c 5
 278 396 366 434 453 434 c 4
 603 434 701 326.97064209 701 194 c 4
 701 81.36601758 638.458984398 -1 555 -1 c 4
 534.650220008 -1 527.123046875 -3.65234375 519.25 -7 c 5
 510.25 21.5 l 5
 516.12689209 24.8438873291 533.461914062 29 546.75 29 c 4
 582.485866547 29 597 77 597 123 c 4
 597 288 469 348 358 348 c 4
 294 348 244 330 214 304 c 5
 244 312 277.666992188 314 305 314 c 4
 425 314 515 250 515 126 c 4
 515 67.8472233203 482 -1 397 -1 c 4
 351 -1 317.333333333 20.3333333333 296 63 c 5
 278.666666667 21.6666666667 246.021148364 -1 204 -1 c 4
 117 -1 120 73 87 73 c 4
 64.6748046875 73 52 51 49 11 c 5
 21 22 l 5
 28.6966338402 91.2697045622 74.4524773728 184.16496867 109 232 c 4
 135 268 148 280 171 304 c 5
 180 314 191.75 331 191.75 352 c 4
 191.75 371 182 386 158 386 c 4
 144 386 128.438133087 378.533465805 124 363 c 4
 118 342 122 342 113 323 c 4
180 268 m 5
 162.666992188 253.333007812 146.522390704 234.996134377 131 212 c 4
 104 172 101 163 91 143 c 5
 103 153 115 160 129 160 c 4
 161 160 172 140 212 140 c 4
 258 140 280 157 280 214 c 4
 280 216.208984375 280.041015625 214.3046875 280 216 c 5
 308 216 l 5
 307.963867188 214.6640625 308 216.330078125 308 215 c 4
 308 154 332 140 377 140 c 4
 418 140 443 169 443 204 c 4
 443 246 402 287 301 287 c 4
 244.333007812 287 204.666992188 280 180 268 c 5
EndSplineSet
Layer: 2
EndChar

StartChar: si_KUu
Encoding: 108 -1 89
Width: 746
VWidth: 1000
Flags: HW
LayerCount: 3
Back
Fore
SplineSet
696.946289062 -59 m 5
 700.537109375 -71.1181640625 701.25 -82.8330078125 701.25 -94 c 4
 701.25 -161 649.946289062 -205 567.946289062 -205 c 4
 509.946289062 -205 445.946289062 -187.465820312 445.946289062 -129 c 4
 445.946289062 -93.3486328125 474.933555841 -72 509.946289062 -67 c 5
 454.946289062 -39 l 5
 540.196289062 -14.5 l 5
 504 -0.5 l 5
 504 22 l 5
 602.196289062 -15 l 5
 517.696289062 -43.25 l 5
 577.946289062 -76 l 5
 549.946289062 -83 495.946289062 -83.4658203125 495.946289062 -104.5 c 4
 495.946289062 -120.921875 527.870117188 -129 569.946289062 -129 c 4
 623.946289062 -129 668.174804688 -112.984375 668.174804688 -82 c 4
 668.174804688 -77 667.442382812 -66.9287109375 662.196289062 -59 c 5
 696.946289062 -59 l 5
113 323 m 4
 104.732279418 305.545923216 87 297 72 297 c 132
 35 297 29 328 29 340 c 4
 29 394.098632812 79.3632281498 433 136 433 c 4
 188.347731079 433 220 399 220 358 c 4
 220 352 220 349 219 341 c 5
 278 396 366 434 453 434 c 4
 603 434 701 326.97064209 701 194 c 4
 701 81.36601758 638.458984398 -1 555 -1 c 4
 534.650220008 -1 519.659179688 2.97242259979 504 12 c 5
 504 40 l 5
 518 33 531 30 543 30 c 4
 584 30 597 77 597 123 c 4
 597 288 469 348 358 348 c 4
 294 348 244 330 214 304 c 5
 244 312 277.666992188 314 305 314 c 4
 425 314 515 250 515 126 c 4
 515 67.8472233203 482 -1 397 -1 c 4
 351 -1 317.333333333 20.3333333333 296 63 c 5
 278.666666667 21.6666666667 246.021148364 -1 204 -1 c 4
 117 -1 120 73 87 73 c 4
 64.6748046875 73 52 51 49 11 c 5
 21 22 l 5
 28.6966338402 91.2697045622 74.4524773728 184.16496867 109 232 c 4
 135 268 148 280 171 304 c 5
 180 314 191.75 331 191.75 352 c 4
 191.75 371 182 386 158 386 c 4
 144 386 128.438133087 378.533465805 124 363 c 4
 118 342 122 342 113 323 c 4
180 268 m 5
 162.666992188 253.333007812 146.522390704 234.996134377 131 212 c 4
 104 172 101 163 91 143 c 5
 103 153 115 160 129 160 c 4
 161 160 172 140 212 140 c 4
 258 140 280 157 280 214 c 4
 280 216.208984375 280.041015625 214.3046875 280 216 c 5
 308 216 l 5
 307.963867188 214.6640625 308 216.330078125 308 215 c 4
 308 154 332 140 377 140 c 4
 418 140 443 169 443 204 c 4
 443 246 402 287 301 287 c 4
 244.333007812 287 204.666992188 280 180 268 c 5
EndSplineSet
Layer: 2
EndChar

StartChar: si_Ka.reph
Encoding: 109 -1 90
Width: 746
VWidth: 1000
Flags: HW
LayerCount: 3
Back
Fore
SplineSet
390.900390625 511 m 4
 390.900390625 490.854492188 409.127929688 474.546875 431 474.546875 c 4
 452.872070312 474.546875 471.099609375 490.854492188 471.099609375 511 c 4
 471.099609375 531.145507812 452.872070312 547.453125 431 547.453125 c 4
 409.127929688 547.453125 390.900390625 531.145507812 390.900390625 511 c 4
381.5 471.25 m 5
 373.5 477.25 363 491 363 512 c 4
 363 547 394.353515625 572 430 572 c 4
 471 572 499 545 499 510 c 4
 499 471 464 445 406 445 c 4
 347 445 288 474 288 530 c 4
 288 594 346.120117188 631 428 631 c 4
 505 631 569 588 569 517 c 4
 569 493 560.666992188 471.333007812 544 452 c 5
 508.25 452 l 5
 521.419921875 464.38671875 537 488.734375 537 516 c 260
 537 570.521484375 488 602.5 427 602.5 c 4
 374.221679688 602.5 320.75 579.990234375 320.75 530 c 4
 320.75 490.924804688 363.901367188 473.688476562 381.5 471.25 c 5
113 323 m 4
 104.732279418 305.545923216 87 297 72 297 c 132
 35 297 29 328 29 340 c 4
 29 394.098632812 79.3632281498 433 136 433 c 4
 188.347731079 433 220 399 220 358 c 4
 220 352 220 349 219 341 c 5
 278 396 366 434 453 434 c 4
 603 434 701 326.97064209 701 194 c 4
 701 81.36601758 638.458984398 -1 555 -1 c 4
 534.650220008 -1 519.659179688 2.97242259979 504 12 c 5
 504 40 l 5
 518 33 531 30 543 30 c 4
 584 30 597 77 597 123 c 4
 597 288 469 348 358 348 c 4
 294 348 244 330 214 304 c 5
 244 312 277.666992188 314 305 314 c 4
 425 314 515 250 515 126 c 4
 515 67.8472233203 482 -1 397 -1 c 4
 351 -1 317.333333333 20.3333333333 296 63 c 5
 278.666666667 21.6666666667 246.021148364 -1 204 -1 c 4
 117 -1 120 73 87 73 c 4
 64.6748046875 73 52 51 49 11 c 5
 21 22 l 5
 28.6966338402 91.2697045622 74.4524773728 184.16496867 109 232 c 4
 135 268 148 280 171 304 c 5
 180 314 191.75 331 191.75 352 c 4
 191.75 371 182 386 158 386 c 4
 144 386 128.438133087 378.533465805 124 363 c 4
 118 342 122 342 113 323 c 4
180 268 m 5
 162.666992188 253.333007812 146.522390704 234.996134377 131 212 c 4
 104 172 101 163 91 143 c 5
 103 153 115 160 129 160 c 4
 161 160 172 140 212 140 c 4
 258 140 280 157 280 214 c 4
 280 216.208984375 280.041015625 214.3046875 280 216 c 5
 308 216 l 5
 307.963867188 214.6640625 308 216.330078125 308 215 c 4
 308 154 332 140 377 140 c 4
 418 140 443 169 443 204 c 4
 443 246 402 287 301 287 c 4
 244.333007812 287 204.666992188 280 180 268 c 5
EndSplineSet
Layer: 2
EndChar

StartChar: si_KU.reph
Encoding: 110 -1 91
Width: 997
VWidth: 1000
Flags: HW
LayerCount: 3
Back
Fore
SplineSet
817 201 m 4
 817 311.459960938 792.036132812 338 770 338 c 4
 759.780273438 338 734.75 331.393554688 734.75 284.830078125 c 4
 734.75 279.443359375 735.083007812 274.393554688 735.75 269.6796875 c 5
 708 269.6796875 l 5
 707.333007812 277.0859375 707 284.494140625 707 291.900390625 c 4
 707 360.728515625 759 403 818 403 c 4
 909 403 955 329.26953125 955 201 c 4
 955 72.73046875 909 -1 818 -1 c 4
 750.587890625 -1 707 41.271484375 707 110.099609375 c 4
 707 117.506835938 707.333007812 124.9140625 708 132.3203125 c 5
 735.75 132.3203125 l 5
 735.083007812 127.606445312 734.75 122.556640625 734.75 117.169921875 c 4
 734.75 70.4501953125 758.486328125 66 770 66 c 4
 792.64453125 66 817 90.5400390625 817 201 c 4
390.900390625 511 m 4
 390.900390625 490.854492188 409.127929688 474.546875 431 474.546875 c 4
 452.872070312 474.546875 471.099609375 490.854492188 471.099609375 511 c 4
 471.099609375 531.145507812 452.872070312 547.453125 431 547.453125 c 4
 409.127929688 547.453125 390.900390625 531.145507812 390.900390625 511 c 4
381.5 471.25 m 5
 373.5 477.25 363 491 363 512 c 4
 363 547 394.353515625 572 430 572 c 4
 471 572 499 545 499 510 c 4
 499 471 464 445 406 445 c 4
 347 445 288 474 288 530 c 4
 288 594 346.120117188 631 428 631 c 4
 505 631 569 588 569 517 c 4
 569 493 560.666992188 471.333007812 544 452 c 5
 508.25 452 l 5
 521.419921875 464.38671875 537 488.734375 537 516 c 260
 537 570.521484375 488 602.5 427 602.5 c 4
 374.221679688 602.5 320.75 579.990234375 320.75 530 c 4
 320.75 490.924804688 363.901367188 473.688476562 381.5 471.25 c 5
113 323 m 4
 104.732279418 305.545923216 87 297 72 297 c 132
 35 297 29 328 29 340 c 4
 29 394.098632812 79.3632281498 433 136 433 c 4
 188.347731079 433 220 399 220 358 c 4
 220 352 220 349 219 341 c 5
 278 396 366 434 453 434 c 4
 603 434 701 326.97064209 701 194 c 4
 701 81.36601758 638.458984398 -1 555 -1 c 4
 534.650220008 -1 519.659179688 2.97242259979 504 12 c 5
 504 40 l 5
 518 33 531 30 543 30 c 4
 584 30 597 77 597 123 c 4
 597 288 469 348 358 348 c 4
 294 348 244 330 214 304 c 5
 244 312 277.666992188 314 305 314 c 4
 425 314 515 250 515 126 c 4
 515 67.8472233203 482 -1 397 -1 c 4
 351 -1 317.333333333 20.3333333333 296 63 c 5
 278.666666667 21.6666666667 246.021148364 -1 204 -1 c 4
 117 -1 120 73 87 73 c 4
 64.6748046875 73 52 51 49 11 c 5
 21 22 l 5
 28.6966338402 91.2697045622 74.4524773728 184.16496867 109 232 c 4
 135 268 148 280 171 304 c 5
 180 314 191.75 331 191.75 352 c 4
 191.75 371 182 386 158 386 c 4
 144 386 128.438133087 378.533465805 124 363 c 4
 118 342 122 342 113 323 c 4
180 268 m 5
 162.666992188 253.333007812 146.522390704 234.996134377 131 212 c 4
 104 172 101 163 91 143 c 5
 103 153 115 160 129 160 c 4
 161 160 172 140 212 140 c 4
 258 140 280 157 280 214 c 4
 280 216.208984375 280.041015625 214.3046875 280 216 c 5
 308 216 l 5
 307.963867188 214.6640625 308 216.330078125 308 215 c 4
 308 154 332 140 377 140 c 4
 418 140 443 169 443 204 c 4
 443 246 402 287 301 287 c 4
 244.333007812 287 204.666992188 280 180 268 c 5
EndSplineSet
Layer: 2
EndChar

StartChar: si_Ka.Rakar
Encoding: 111 -1 92
Width: 746
VWidth: 1000
Flags: HW
LayerCount: 3
Back
Fore
SplineSet
143.5 -44 m 5
 177.033203125 -93.2900390625 247.552091762 -112.75 360.75 -112.75 c 4
 512.3141222 -112.75 655.75 -31.0107421875 655.75 63.25 c 4
 655.75 78.2841796875 653 90.79296875 646 102 c 5
 659 133 l 5
 677 106.333007812 686 74.6669921875 686 38 c 4
 686 -123.729492188 536.300217628 -219 384.75 -219 c 4
 244.906581879 -219 151.333007812 -153.333007812 114 -44 c 5
 143.5 -44 l 5
113 323 m 4
 104.732279418 305.545923216 87 297 72 297 c 132
 35 297 29 328 29 340 c 4
 29 394.098632812 79.3632281498 433 136 433 c 4
 188.347731079 433 220 399 220 358 c 4
 220 352 220 349 219 341 c 5
 278 396 366 434 453 434 c 4
 603 434 701 326.97064209 701 194 c 4
 701 81.36601758 638.458984398 -1 555 -1 c 4
 534.650220008 -1 519.659179688 2.97242259979 504 12 c 5
 504 40 l 5
 518 33 531 30 543 30 c 4
 584 30 597 77 597 123 c 4
 597 288 469 348 358 348 c 4
 294 348 244 330 214 304 c 5
 244 312 277.666992188 314 305 314 c 4
 425 314 515 250 515 126 c 4
 515 67.8472233203 482 -1 397 -1 c 4
 351 -1 317.333333333 20.3333333333 296 63 c 5
 278.666666667 21.6666666667 246.021148364 -1 204 -1 c 4
 117 -1 120 73 87 73 c 4
 64.6748046875 73 52 51 49 11 c 5
 21 22 l 5
 28.6966338402 91.2697045622 74.4524773728 184.16496867 109 232 c 4
 135 268 148 280 171 304 c 5
 180 314 191.75 331 191.75 352 c 4
 191.75 371 182 386 158 386 c 4
 144 386 128.438133087 378.533465805 124 363 c 4
 118 342 122 342 113 323 c 4
180 268 m 5
 162.666992188 253.333007812 146.522390704 234.996134377 131 212 c 4
 104 172 101 163 91 143 c 5
 103 153 115 160 129 160 c 4
 161 160 172 140 212 140 c 4
 258 140 280 157 280 214 c 4
 280 216.208984375 280.041015625 214.3046875 280 216 c 5
 308 216 l 5
 307.963867188 214.6640625 308 216.330078125 308 215 c 4
 308 154 332 140 377 140 c 4
 418 140 443 169 443 204 c 4
 443 246 402 287 301 287 c 4
 244.333007812 287 204.666992188 280 180 268 c 5
EndSplineSet
Layer: 2
EndChar

StartChar: si_KI.Rakar
Encoding: 112 -1 93
Width: 746
VWidth: 1000
Flags: HW
LayerCount: 3
Back
Fore
SplineSet
610 383 m 5
 578.75 403.5 l 5
 612.844726562 407.907226562 633 426.337890625 633 456 c 4
 633 514.546212673 555 549.75 473 549.75 c 4
 336 549.75 246.5 473.840780973 246.5 396.25 c 4
 246.5 386.950195312 247.657329559 375.107318878 250.25 365.5 c 5
 225 343 l 5
 220.903461411 360.75166722 218 389.836914062 218 421 c 4
 218 590 330 671 473 671 c 4
 603 671 688 610 688 505 c 4
 688 444 658 402 610 383 c 5
143.5 -44 m 5
 177.033203125 -93.2900390625 247.552091762 -112.75 360.75 -112.75 c 4
 512.3141222 -112.75 655.75 -31.0107421875 655.75 63.25 c 4
 655.75 78.2841796875 653 90.79296875 646 102 c 5
 659 133 l 5
 677 106.333007812 686 74.6669921875 686 38 c 4
 686 -123.729492188 536.300217628 -219 384.75 -219 c 4
 244.906581879 -219 151.333007812 -153.333007812 114 -44 c 5
 143.5 -44 l 5
113 323 m 4
 104.732279418 305.545923216 87 297 72 297 c 132
 35 297 29 328 29 340 c 4
 29 394.098632812 79.3632281498 433 136 433 c 4
 188.347731079 433 220 399 220 358 c 4
 220 352 220 349 219 341 c 5
 278 396 366 434 453 434 c 4
 603 434 701 326.97064209 701 194 c 4
 701 81.36601758 638.458984398 -1 555 -1 c 4
 534.650220008 -1 519.659179688 2.97242259979 504 12 c 5
 504 40 l 5
 518 33 531 30 543 30 c 4
 584 30 597 77 597 123 c 4
 597 288 469 348 358 348 c 4
 294 348 244 330 214 304 c 5
 244 312 277.666992188 314 305 314 c 4
 425 314 515 250 515 126 c 4
 515 67.8472233203 482 -1 397 -1 c 4
 351 -1 317.333333333 20.3333333333 296 63 c 5
 278.666666667 21.6666666667 246.021148364 -1 204 -1 c 4
 117 -1 120 73 87 73 c 4
 64.6748046875 73 52 51 49 11 c 5
 21 22 l 5
 28.6966338402 91.2697045622 74.4524773728 184.16496867 109 232 c 4
 135 268 148 280 171 304 c 5
 180 314 191.75 331 191.75 352 c 4
 191.75 371 182 386 158 386 c 4
 144 386 128.438133087 378.533465805 124 363 c 4
 118 342 122 342 113 323 c 4
180 268 m 5
 162.666992188 253.333007812 146.522390704 234.996134377 131 212 c 4
 104 172 101 163 91 143 c 5
 103 153 115 160 129 160 c 4
 161 160 172 140 212 140 c 4
 258 140 280 157 280 214 c 4
 280 216.208984375 280.041015625 214.3046875 280 216 c 5
 308 216 l 5
 307.963867188 214.6640625 308 216.330078125 308 215 c 4
 308 154 332 140 377 140 c 4
 418 140 443 169 443 204 c 4
 443 246 402 287 301 287 c 4
 244.333007812 287 204.666992188 280 180 268 c 5
EndSplineSet
Layer: 2
EndChar

StartChar: si_KIi.rakar
Encoding: 113 -1 94
Width: 746
VWidth: 1000
Flags: HW
LayerCount: 3
Back
Fore
SplineSet
532.301757812 476 m 4
 532.301757812 444.706054688 559.077148438 418.458007812 591 418.458007812 c 4
 622.922851562 418.458007812 649.698242188 444.706054688 649.698242188 476 c 4
 649.698242188 507.293945312 622.922851562 533.541992188 591 533.541992188 c 4
 559.077148438 533.541992188 532.301757812 507.293945312 532.301757812 476 c 4
593 388 m 4
 535 388 500 433 500 477 c 4
 500 509.014887004 514.197265625 528.212890625 531.25 543.25 c 5
 517.943346262 547.273111582 491.614369921 550 474.25 550 c 4
 323.9921875 550 246.25 464.060274052 246.25 398 c 4
 246.25 383.333007812 248.332510158 376.010648564 250.25 365 c 5
 225 343 l 5
 220.903461411 360.75166722 218 389.836914062 218 421 c 4
 218 590 330 671 473 671 c 4
 603 671 689 600 689 495 c 4
 689 444 651 388 593 388 c 4
143.5 -44 m 5
 177.033203125 -93.2900390625 247.552091762 -112.75 360.75 -112.75 c 4
 512.3141222 -112.75 655.75 -31.0107421875 655.75 63.25 c 4
 655.75 78.2841796875 653 90.79296875 646 102 c 5
 659 133 l 5
 677 106.333007812 686 74.6669921875 686 38 c 4
 686 -123.729492188 536.300217628 -219 384.75 -219 c 4
 244.906581879 -219 151.333007812 -153.333007812 114 -44 c 5
 143.5 -44 l 5
113 323 m 4
 104.732279418 305.545923216 87 297 72 297 c 132
 35 297 29 328 29 340 c 4
 29 394.098632812 79.3632281498 433 136 433 c 4
 188.347731079 433 220 399 220 358 c 4
 220 352 220 349 219 341 c 5
 278 396 366 434 453 434 c 4
 603 434 701 326.97064209 701 194 c 4
 701 81.36601758 638.458984398 -1 555 -1 c 4
 534.650220008 -1 519.659179688 2.97242259979 504 12 c 5
 504 40 l 5
 518 33 531 30 543 30 c 4
 584 30 597 77 597 123 c 4
 597 288 469 348 358 348 c 4
 294 348 244 330 214 304 c 5
 244 312 277.666992188 314 305 314 c 4
 425 314 515 250 515 126 c 4
 515 67.8472233203 482 -1 397 -1 c 4
 351 -1 317.333333333 20.3333333333 296 63 c 5
 278.666666667 21.6666666667 246.021148364 -1 204 -1 c 4
 117 -1 120 73 87 73 c 4
 64.6748046875 73 52 51 49 11 c 5
 21 22 l 5
 28.6966338402 91.2697045622 74.4524773728 184.16496867 109 232 c 4
 135 268 148 280 171 304 c 5
 180 314 191.75 331 191.75 352 c 4
 191.75 371 182 386 158 386 c 4
 144 386 128.438133087 378.533465805 124 363 c 4
 118 342 122 342 113 323 c 4
180 268 m 5
 162.666992188 253.333007812 146.522390704 234.996134377 131 212 c 4
 104 172 101 163 91 143 c 5
 103 153 115 160 129 160 c 4
 161 160 172 140 212 140 c 4
 258 140 280 157 280 214 c 4
 280 216.208984375 280.041015625 214.3046875 280 216 c 5
 308 216 l 5
 307.963867188 214.6640625 308 216.330078125 308 215 c 4
 308 154 332 140 377 140 c 4
 418 140 443 169 443 204 c 4
 443 246 402 287 301 287 c 4
 244.333007812 287 204.666992188 280 180 268 c 5
EndSplineSet
Layer: 2
EndChar

StartChar: si_Kh.halant
Encoding: 114 -1 95
Width: 630
VWidth: 1000
Flags: HW
LayerCount: 3
Back
Fore
SplineSet
160 508 m 5
 193 514 232.674804688 519 279 519 c 4
 387 519 469.076171875 489.188476562 524.5 425.25 c 5
 491.617531674 535.950591655 400 574.25 284 574.25 c 4
 212 574.25 144 557.5390625 144 538 c 4
 144 526 163 526 163 515 c 4
 163 513 162 510 160 508 c 5
42 440 m 13
 42 473 l 21
 74 485 123.5 499 123.5 508 c 4
 123.5 520 95.5 520.304077148 95.5 546 c 4
 95.5 583 163 629 278 629 c 4
 486 629 557 490 569 356 c 5
 577.288779066 332.716026697 582 292.24609375 582 265.75 c 5
 529.75 293 l 5
 529.75 301 529.576171875 297 529.576171875 301 c 4
 529.576171875 407.590642594 445 491.75 276 491.75 c 4
 200 491.75 123 478 42 440 c 13
93.333984375 73 m 4
 93.333984375 49.0869140625 113.086914062 29.333984375 137 29.333984375 c 4
 160.913085938 29.333984375 180.666015625 49.0869140625 180.666015625 73 c 4
 180.666015625 96.9130859375 160.913085938 116.666015625 137 116.666015625 c 4
 113.086914062 116.666015625 93.333984375 96.9130859375 93.333984375 73 c 4
73 106 m 5
 82 132 107 148 137 148 c 4
 179 148 212 120 212 74 c 4
 212 37 182 -1 141 -1 c 4
 56 -1 32 108 32 183 c 4
 32 322 123.838867188 396 240 396 c 4
 333 396 413 343.14453125 413 258 c 4
 413 201 388 172 381 161 c 5
 384.333007812 161.666992188 387.333007812 162 390 162 c 4
 419 162 410 136 444 136 c 4
 504 136 529.75 231.124051722 529.75 295 c 5
 545.922851562 281.970703125 563.69140625 287.215820312 582 267.75 c 5
 582 154.388495363 524 0 416 0 c 4
 352 0 348 54 321 54 c 260
 308 54 284 34 242 -21 c 5
 202 -18 l 5
 215.333007812 -4.6669921875 244.0859375 34.025390625 286 84 c 4
 338 146 347 180 347 200 c 4
 347 235 328 275 236 275 c 4
 149 275 70 225 70 140 c 4
 70 128 70 118 73 106 c 5
EndSplineSet
Layer: 2
EndChar

StartChar: si_KhI
Encoding: 115 -1 96
Width: 630
VWidth: 1000
Flags: HW
LayerCount: 3
Back
Fore
SplineSet
583.75 274 m 5
 531.75 302.75 l 5
 531.75 329.472374117 526.110573428 382.723749494 496 416.5 c 4
 449.99806879 468.102230558 386.018532566 470.324801541 285 476 c 4
 196 481 75 476 75 562 c 4
 75 652 206 670 306 670 c 4
 442 670 552 639 552 554 c 4
 552 502 498 480 464 474 c 5
 414 490 l 5
 450 491 477 504.566830786 477 527 c 4
 477 564.308339606 414 581 306 581 c 4
 230.34375 581 134 573.210524741 134 538 c 4
 134 511.058813955 182 508 284 504 c 4
 348.869306786 501.456105616 443 499 498 459 c 4
 547.146355231 423.257196196 583.75 356 583.75 274 c 5
93.333984375 73 m 4
 93.333984375 49.0869140625 113.086914062 29.333984375 137 29.333984375 c 4
 160.913085938 29.333984375 180.666015625 49.0869140625 180.666015625 73 c 4
 180.666015625 96.9130859375 160.913085938 116.666015625 137 116.666015625 c 4
 113.086914062 116.666015625 93.333984375 96.9130859375 93.333984375 73 c 4
73 106 m 5
 82 132 107 148 137 148 c 4
 179 148 212 120 212 74 c 4
 212 37 182 -1 141 -1 c 4
 56 -1 32 108 32 183 c 4
 32 322 123.838867188 396 240 396 c 4
 333 396 413 343.14453125 413 258 c 4
 413 201 388 172 381 161 c 5
 384.333007812 161.666992188 387.333007812 162 390 162 c 4
 419 162 410 136 444 136 c 4
 504 136 531.75 218.612512518 531.75 305.75 c 5
 552.291015625 299.69140625 567.051757812 288.299804688 583.75 278 c 5
 583.75 151.879480988 524 0 416 0 c 4
 352 0 348 54 321 54 c 260
 308 54 284 34 242 -21 c 5
 202 -18 l 5
 215.333007812 -4.6669921875 244.0859375 34.025390625 286 84 c 4
 338 146 347 180 347 200 c 4
 347 235 328 275 236 275 c 4
 149 275 70 225 70 140 c 4
 70 128 70 118 73 106 c 5
EndSplineSet
Layer: 2
EndChar

StartChar: si_KhIi
Encoding: 116 -1 97
Width: 630
VWidth: 1000
Flags: HW
LayerCount: 3
Back
Fore
SplineSet
400.897460938 538.75 m 4
 400.897460938 509.168945312 427.526367188 485.376953125 460 485.376953125 c 4
 492.473632812 485.376953125 519.102539062 509.168945312 519.102539062 538.75 c 4
 519.102539062 568.331054688 492.473632812 592.123046875 460 592.123046875 c 4
 427.526367188 592.123046875 400.897460938 568.331054688 400.897460938 538.75 c 4
304 588.5 m 4
 228.34375 588.5 130 580.368671894 130 540 c 4
 130 510.989490509 182 508 284 504 c 4
 348.869306786 501.456105616 443 499 498 459 c 4
 547.146355231 423.257196196 583.75 356 583.75 274 c 5
 531.75 302.75 l 5
 531.75 329.472374117 526.110573428 382.723749494 496 416.5 c 4
 449.99806879 468.102230558 386.018532566 470.324801541 285 476 c 4
 196 481 75 476 75 562 c 4
 75 652 205.75 670 306 670 c 4
 442 670 552 640.053654049 552 541.75 c 4
 552 488.75 504 457.75 460 457.75 c 4
 416 457.75 368 488.75 368 541.75 c 4
 368 565.349853516 378.022216797 578.984863281 382 584 c 5
 373.659179688 585.578125 340.48159067 588.5 304 588.5 c 4
93.333984375 73 m 4
 93.333984375 49.0869140625 113.086914062 29.333984375 137 29.333984375 c 4
 160.913085938 29.333984375 180.666015625 49.0869140625 180.666015625 73 c 4
 180.666015625 96.9130859375 160.913085938 116.666015625 137 116.666015625 c 4
 113.086914062 116.666015625 93.333984375 96.9130859375 93.333984375 73 c 4
73 106 m 5
 82 132 107 148 137 148 c 4
 179 148 212 120 212 74 c 4
 212 37 182 -1 141 -1 c 4
 56 -1 32 108 32 183 c 4
 32 322 123.838867188 396 240 396 c 4
 333 396 413 343.14453125 413 258 c 4
 413 201 388 172 381 161 c 5
 384.333007812 161.666992188 387.333007812 162 390 162 c 4
 419 162 410 136 444 136 c 4
 504 136 531.75 218.612512518 531.75 305.75 c 5
 552.291015625 299.69140625 567.051757812 288.299804688 583.75 278 c 5
 583.75 151.879480988 524 0 416 0 c 4
 352 0 348 54 321 54 c 260
 308 54 284 34 242 -21 c 5
 202 -18 l 5
 215.333007812 -4.6669921875 244.0859375 34.025390625 286 84 c 4
 338 146 347 180 347 200 c 4
 347 235 328 275 236 275 c 4
 149 275 70 225 70 140 c 4
 70 128 70 118 73 106 c 5
EndSplineSet
Layer: 2
EndChar

StartChar: si_KhU
Encoding: 117 -1 98
Width: 630
VWidth: 1000
Flags: HW
LayerCount: 3
Back
Fore
SplineSet
575 219 m 5
 575 -235 l 5
 157 -235 l 6
 77.45703125 -235 51.5 -186.091796875 51.5 -142.5 c 4
 51.5 -90.4912109375 97.79296875 -50.5 153 -50.5 c 4
 194.90625 -50.5 232.25 -74.1416015625 247 -110 c 5
 214.25 -121.5 l 5
 207.42578125 -104.358398438 186 -81.75 153 -81.75 c 4
 116.295898438 -81.75 87 -109.715820312 87 -142.5 c 4
 87 -171.663085938 108.748046875 -192.5 178.5 -192.5 c 6
 539.75 -192.5 l 5
 539.75 128 l 5
 575 219 l 5
93.333984375 73 m 4
 93.333984375 49.0869140625 113.086914062 29.333984375 137 29.333984375 c 4
 160.913085938 29.333984375 180.666015625 49.0869140625 180.666015625 73 c 4
 180.666015625 96.9130859375 160.913085938 116.666015625 137 116.666015625 c 4
 113.086914062 116.666015625 93.333984375 96.9130859375 93.333984375 73 c 4
73 106 m 5
 82 132 107 148 137 148 c 4
 179 148 212 120 212 74 c 4
 212 37 182 -1 141 -1 c 4
 56 -1 32 108 32 183 c 4
 32 322 123.838867188 396 240 396 c 4
 333 396 413 343.14453125 413 258 c 4
 413 201 388 172 381 161 c 5
 384.333007812 161.666992188 387.333007812 162 390 162 c 4
 419 162 410 136 444 136 c 4
 504 136 532 215 532 318 c 4
 532 455 445 574 294 574 c 4
 205 574 140 540 99 470 c 5
 64 470 l 5
 108.666666667 553.333333333 186 601 298 601 c 4
 464 601 584 473 584 286 c 4
 584 150 524 0 416 0 c 4
 352 0 348 54 321 54 c 260
 308 54 284 34 242 -21 c 5
 202 -18 l 5
 215.333007812 -4.6669921875 244.0859375 34.025390625 286 84 c 4
 338 146 347 180 347 200 c 4
 347 235 328 275 236 275 c 4
 149 275 70 225 70 140 c 4
 70 128 70 118 73 106 c 5
EndSplineSet
Layer: 2
EndChar

StartChar: si_KhaUu
Encoding: 118 -1 99
Width: 630
VWidth: 1000
Flags: HW
LayerCount: 3
Back
Fore
SplineSet
575 212 m 5
 575 -231 l 5
 549.5 -231 l 5
 534.5 -195 488.94921875 -146.25 426 -146.25 c 4
 335 -146.25 260 -237 162 -237 c 4
 107 -237 51 -206 51 -138 c 4
 51 -80 100 -40 153 -40 c 4
 195 -40 227.333007812 -55 250 -91 c 5
 217 -102 l 5
 205.68359375 -84.69921875 187 -70 158 -70 c 4
 119 -70 94 -95.076171875 94 -120 c 4
 94 -151.995117188 122.815429688 -167 157 -167 c 4
 233.21484375 -167 308.327148438 -114.5 416 -114.5 c 4
 467.08203125 -114.5 513 -133.75 540 -165.75 c 5
 540 152 l 5
 575 212 l 5
93.333984375 73 m 4
 93.333984375 49.0869140625 113.086914062 29.333984375 137 29.333984375 c 4
 160.913085938 29.333984375 180.666015625 49.0869140625 180.666015625 73 c 4
 180.666015625 96.9130859375 160.913085938 116.666015625 137 116.666015625 c 4
 113.086914062 116.666015625 93.333984375 96.9130859375 93.333984375 73 c 4
73 106 m 5
 82 132 107 148 137 148 c 4
 179 148 212 120 212 74 c 4
 212 37 182 -1 141 -1 c 4
 56 -1 32 108 32 183 c 4
 32 322 123.838867188 396 240 396 c 4
 333 396 413 343.14453125 413 258 c 4
 413 201 388 172 381 161 c 5
 384.333007812 161.666992188 387.333007812 162 390 162 c 4
 419 162 410 136 444 136 c 4
 504 136 532 215 532 318 c 4
 532 455 445 574 294 574 c 4
 205 574 140 540 99 470 c 5
 64 470 l 5
 108.666666667 553.333333333 186 601 298 601 c 4
 464 601 584 473 584 286 c 4
 584 150 524 0 416 0 c 4
 352 0 348 54 321 54 c 260
 308 54 284 34 242 -21 c 5
 202 -18 l 5
 215.333007812 -4.6669921875 244.0859375 34.025390625 286 84 c 4
 338 146 347 180 347 200 c 4
 347 235 328 275 236 275 c 4
 149 275 70 225 70 140 c 4
 70 128 70 118 73 106 c 5
EndSplineSet
Layer: 2
EndChar

StartChar: si_Kha.rakr
Encoding: 119 -1 100
Width: 630
VWidth: 1000
Flags: HW
LayerCount: 3
Back
Fore
SplineSet
85.25 -44 m 5
 122.725921975 -86.9578051725 180.416992188 -114.25 285.75 -114.25 c 4
 428.75 -114.25 549 -31.0107421875 549 63.25 c 4
 549 78.2841796875 547.4375 90.4460449219 542 102 c 5
 555 133 l 5
 573 106.333007812 582 74.6669921875 582 38 c 4
 582 -123.729492188 453.75 -219 309.75 -219 c 4
 176.75 -219 93.0830078125 -153.333007812 55.75 -44 c 5
 85.25 -44 l 5
93.333984375 73 m 4
 93.333984375 49.0869140625 113.086914062 29.333984375 137 29.333984375 c 4
 160.913085938 29.333984375 180.666015625 49.0869140625 180.666015625 73 c 4
 180.666015625 96.9130859375 160.913085938 116.666015625 137 116.666015625 c 4
 113.086914062 116.666015625 93.333984375 96.9130859375 93.333984375 73 c 4
73 106 m 5
 82 132 107 148 137 148 c 4
 179 148 212 120 212 74 c 4
 212 37 182 -1 141 -1 c 4
 56 -1 32 108 32 183 c 4
 32 322 123.838867188 396 240 396 c 4
 333 396 413 343.14453125 413 258 c 4
 413 201 388 172 381 161 c 5
 384.333007812 161.666992188 387.333007812 162 390 162 c 4
 419 162 410 136 444 136 c 4
 504 136 532 215 532 318 c 4
 532 455 445 574 294 574 c 4
 205 574 140 540 99 470 c 5
 64 470 l 5
 108.666666667 553.333333333 186 601 298 601 c 4
 464 601 584 473 584 286 c 4
 584 150 524 0 416 0 c 4
 352 0 348 54 321 54 c 260
 308 54 284 34 242 -21 c 5
 202 -18 l 5
 215.333007812 -4.6669921875 244.0859375 34.025390625 286 84 c 4
 338 146 347 180 347 200 c 4
 347 235 328 275 236 275 c 4
 149 275 70 225 70 140 c 4
 70 128 70 118 73 106 c 5
EndSplineSet
Layer: 2
EndChar

StartChar: si_Kh.rakr
Encoding: 120 -1 101
Width: 630
VWidth: 1000
Flags: HW
LayerCount: 3
Back
Fore
SplineSet
160 508 m 5
 193 514 232.674804688 519 279 519 c 4
 387 519 469.076171875 489.188476562 524.5 425.25 c 5
 491.617531674 535.950591655 400 574.25 284 574.25 c 4
 212 574.25 144 557.5390625 144 538 c 4
 144 526 163 526 163 515 c 4
 163 513 162 510 160 508 c 5
42 440 m 13
 42 473 l 21
 74 485 123.5 499 123.5 508 c 4
 123.5 520 95.5 520.304077148 95.5 546 c 4
 95.5 583 163 629 278 629 c 4
 486 629 557 490 569 356 c 5
 577.288779066 332.716026697 582 292.24609375 582 265.75 c 5
 529.75 293 l 5
 529.75 301 529.576171875 297 529.576171875 301 c 4
 529.576171875 407.590642594 445 491.75 276 491.75 c 4
 200 491.75 123 478 42 440 c 13
93.333984375 73 m 4
 93.333984375 49.0869140625 113.086914062 29.333984375 137 29.333984375 c 4
 160.913085938 29.333984375 180.666015625 49.0869140625 180.666015625 73 c 4
 180.666015625 96.9130859375 160.913085938 116.666015625 137 116.666015625 c 4
 113.086914062 116.666015625 93.333984375 96.9130859375 93.333984375 73 c 4
73 106 m 5
 82 132 107 148 137 148 c 4
 179 148 212 120 212 74 c 4
 212 37 182 -1 141 -1 c 4
 56 -1 32 108 32 183 c 4
 32 322 123.838867188 396 240 396 c 4
 333 396 413 343.14453125 413 258 c 4
 413 201 388 172 381 161 c 5
 384.333007812 161.666992188 387.333007812 162 390 162 c 4
 419 162 410 136 444 136 c 4
 504 136 529.75 231.124051722 529.75 295 c 5
 545.922851562 281.970703125 563.69140625 287.215820312 582 267.75 c 5
 582 154.388495363 524 0 416 0 c 4
 352 0 348 54 321 54 c 260
 308 54 284 34 242 -21 c 5
 202 -18 l 5
 215.333007812 -4.6669921875 244.0859375 34.025390625 286 84 c 4
 338 146 347 180 347 200 c 4
 347 235 328 275 236 275 c 4
 149 275 70 225 70 140 c 4
 70 128 70 118 73 106 c 5
85.25 -44 m 5
 122.725921975 -86.9578051725 180.416992188 -114.25 285.75 -114.25 c 4
 428.75 -114.25 549 -31.0107421875 549 63.25 c 4
 549 78.2841796875 547.4375 90.4460449219 542 102 c 5
 555 133 l 5
 573 106.333007812 582 74.6669921875 582 38 c 4
 582 -123.729492188 453.75 -219 309.75 -219 c 4
 176.75 -219 93.0830078125 -153.333007812 55.75 -44 c 5
 85.25 -44 l 5
EndSplineSet
Layer: 2
EndChar

StartChar: si_KhI.rakr
Encoding: 121 -1 102
Width: 630
VWidth: 1000
Flags: HW
LayerCount: 3
Back
Fore
SplineSet
85.25 -44 m 5
 122.725921975 -86.9578051725 180.416992188 -114.25 285.75 -114.25 c 4
 428.75 -114.25 549 -31.0107421875 549 63.25 c 4
 549 78.2841796875 547.4375 90.4460449219 542 102 c 5
 555 133 l 5
 573 106.333007812 582 74.6669921875 582 38 c 4
 582 -123.729492188 453.75 -219 309.75 -219 c 4
 176.75 -219 93.0830078125 -153.333007812 55.75 -44 c 5
 85.25 -44 l 5
583.75 274 m 5
 531.75 302.75 l 5
 531.75 329.472374117 526.110573428 382.723749494 496 416.5 c 4
 449.99806879 468.102230558 386.018532566 470.324801541 285 476 c 4
 196 481 75 476 75 562 c 4
 75 652 206 670 306 670 c 4
 442 670 552 639 552 554 c 4
 552 502 498 480 464 474 c 5
 414 490 l 5
 450 491 477 504.566830786 477 527 c 4
 477 564.308339606 414 581 306 581 c 4
 230.34375 581 134 573.210524741 134 538 c 4
 134 511.058813955 182 508 284 504 c 4
 348.869306786 501.456105616 443 499 498 459 c 4
 547.146355231 423.257196196 583.75 356 583.75 274 c 5
93.333984375 73 m 4
 93.333984375 49.0869140625 113.086914062 29.333984375 137 29.333984375 c 4
 160.913085938 29.333984375 180.666015625 49.0869140625 180.666015625 73 c 4
 180.666015625 96.9130859375 160.913085938 116.666015625 137 116.666015625 c 4
 113.086914062 116.666015625 93.333984375 96.9130859375 93.333984375 73 c 4
73 106 m 5
 82 132 107 148 137 148 c 4
 179 148 212 120 212 74 c 4
 212 37 182 -1 141 -1 c 4
 56 -1 32 108 32 183 c 4
 32 322 123.838867188 396 240 396 c 4
 333 396 413 343.14453125 413 258 c 4
 413 201 388 172 381 161 c 5
 384.333007812 161.666992188 387.333007812 162 390 162 c 4
 419 162 410 136 444 136 c 4
 504 136 531.75 218.612512518 531.75 305.75 c 5
 552.291015625 299.69140625 567.051757812 288.299804688 583.75 278 c 5
 583.75 151.879480988 524 0 416 0 c 4
 352 0 348 54 321 54 c 260
 308 54 284 34 242 -21 c 5
 202 -18 l 5
 215.333007812 -4.6669921875 244.0859375 34.025390625 286 84 c 4
 338 146 347 180 347 200 c 4
 347 235 328 275 236 275 c 4
 149 275 70 225 70 140 c 4
 70 128 70 118 73 106 c 5
EndSplineSet
Layer: 2
EndChar

StartChar: si_KhIi.rakr
Encoding: 122 -1 103
Width: 630
VWidth: 1000
Flags: HW
LayerCount: 3
Back
Fore
SplineSet
400.897460938 538.75 m 4
 400.897460938 509.168945312 427.526367188 485.376953125 460 485.376953125 c 4
 492.473632812 485.376953125 519.102539062 509.168945312 519.102539062 538.75 c 4
 519.102539062 568.331054688 492.473632812 592.123046875 460 592.123046875 c 4
 427.526367188 592.123046875 400.897460938 568.331054688 400.897460938 538.75 c 4
304 588.5 m 4
 228.34375 588.5 130 580.368671894 130 540 c 4
 130 510.989490509 182 508 284 504 c 4
 348.869306786 501.456105616 443 499 498 459 c 4
 547.146355231 423.257196196 583.75 356 583.75 274 c 5
 531.75 302.75 l 5
 531.75 329.472374117 526.110573428 382.723749494 496 416.5 c 4
 449.99806879 468.102230558 386.018532566 470.324801541 285 476 c 4
 196 481 75 476 75 562 c 4
 75 652 205.75 670 306 670 c 4
 442 670 552 640.053654049 552 541.75 c 4
 552 488.75 504 457.75 460 457.75 c 4
 416 457.75 368 488.75 368 541.75 c 4
 368 565.349853516 378.022216797 578.984863281 382 584 c 5
 373.659179688 585.578125 340.48159067 588.5 304 588.5 c 4
93.333984375 73 m 4
 93.333984375 49.0869140625 113.086914062 29.333984375 137 29.333984375 c 4
 160.913085938 29.333984375 180.666015625 49.0869140625 180.666015625 73 c 4
 180.666015625 96.9130859375 160.913085938 116.666015625 137 116.666015625 c 4
 113.086914062 116.666015625 93.333984375 96.9130859375 93.333984375 73 c 4
73 106 m 5
 82 132 107 148 137 148 c 4
 179 148 212 120 212 74 c 4
 212 37 182 -1 141 -1 c 4
 56 -1 32 108 32 183 c 4
 32 322 123.838867188 396 240 396 c 4
 333 396 413 343.14453125 413 258 c 4
 413 201 388 172 381 161 c 5
 384.333007812 161.666992188 387.333007812 162 390 162 c 4
 419 162 410 136 444 136 c 4
 504 136 531.75 218.612512518 531.75 305.75 c 5
 552.291015625 299.69140625 567.051757812 288.299804688 583.75 278 c 5
 583.75 151.879480988 524 0 416 0 c 4
 352 0 348 54 321 54 c 260
 308 54 284 34 242 -21 c 5
 202 -18 l 5
 215.333007812 -4.6669921875 244.0859375 34.025390625 286 84 c 4
 338 146 347 180 347 200 c 4
 347 235 328 275 236 275 c 4
 149 275 70 225 70 140 c 4
 70 128 70 118 73 106 c 5
85.25 -44 m 5
 122.725921975 -86.9578051725 180.416992188 -114.25 285.75 -114.25 c 4
 428.75 -114.25 549 -31.0107421875 549 63.25 c 4
 549 78.2841796875 547.4375 90.4460449219 542 102 c 5
 555 133 l 5
 573 106.333007812 582 74.6669921875 582 38 c 4
 582 -123.729492188 453.75 -219 309.75 -219 c 4
 176.75 -219 93.0830078125 -153.333007812 55.75 -44 c 5
 85.25 -44 l 5
EndSplineSet
Layer: 2
EndChar

StartChar: si_Ga.halant
Encoding: 123 -1 104
Width: 636
VWidth: 1000
Flags: HW
LayerCount: 3
Back
Fore
SplineSet
434.5 348 m 5
 434.5 681 l 5
 488.5 639 586 634 586 542 c 4
 586 498 551.19140625 468 508 468 c 4
 493.333007812 468 478.333007812 471.333007812 463 478 c 5
 463 331 l 5
 434.5 348 l 5
463.10546875 636.586914062 m 5
 463.10546875 504.2734375 l 5
 471.599609375 499.69921875 482.381835938 497.413085938 495.448242188 497.413085938 c 4
 527.454101562 497.413085938 541 521.915039062 541 545.4375 c 4
 541 586.6015625 509.169921875 606.203125 463.10546875 636.586914062 c 5
233 405 m 5
 229.64453125 405.284179688 225.310546875 405.450195312 222 405.450195312 c 4
 138 405.450195312 88 329 88 258 c 4
 88 186 142 140 211 140 c 4
 270 140 294 164 294 191 c 4
 294 216 276 220 269 220 c 4
 258 220 251 217 246 214 c 5
 245 208 244 197.333007812 244 194 c 5
 216 194 l 5
 225 321 288 431.5 410 431.5 c 4
 522 431.5 586 332 586 217 c 4
 586 95 500.052817527 -1 369 -1 c 4
 359 -1 348.666666667 -0.333333333333 338 1 c 5
 338 29 l 5
 346 28 354 27 362 27 c 4
 466 27 498 110 498 175 c 4
 498 255 461 320 363 320 c 4
 292 320 257 277 250 241 c 5
 256 244 263.333007812 246 270 246 c 4
 320 246 352 202 352 136 c 4
 352 56 295 -2 208 -2 c 4
 97 -2 34 96 34 207 c 4
 34 330 109 431.5 220 431.5 c 4
 223.953128016 431.5 228.954101562 431.25 233 431 c 5
 233 405 l 5
EndSplineSet
Layer: 2
EndChar

StartChar: si_GI
Encoding: 124 -1 105
Width: 636
VWidth: 1000
Flags: HW
LayerCount: 3
Back
Fore
SplineSet
397 408.5 m 5
 237 411.833007812 150 462 150 537 c 4
 150 628 248.984240721 667 351 667 c 4
 456.344340239 667 559 618 559 523 c 4
 559 461 520 415 439 409 c 5
 421 431 l 5
 423.693006943 430.867557036 426.360675308 430.806027059 428.999997673 430.806027059 c 4
 487 430.806027059 517 465.788036794 517 498 c 4
 517 552.286132812 437.673828125 566 358 566 c 4
 276.52734375 566 221 537.781145764 221 503 c 4
 221 453.810337067 324.999999645 431.4921875 411 431.4921875 c 4
 412.005859375 431.4921875 412.006172073 431.494288345 413 431.5 c 5
 397 408.5 l 5
212 405.5 m 5
 208.64453125 405.784179688 208.060546875 405.950195312 204.75 405.950195312 c 4
 135.24634783 405.950195312 88 334.840637207 88 258 c 4
 88 186 142 140 211 140 c 4
 270 140 294 164 294 191 c 4
 294 216 276 220 269 220 c 4
 258 220 251 217 246 214 c 5
 245 208 244 197.333007812 244 194 c 5
 216 194 l 5
 225 321 288 431.5 410 431.5 c 4
 522 431.5 586 332 586 217 c 4
 586 95 500.052817527 -1 369 -1 c 4
 359 -1 348.666666667 -0.333333333333 338 1 c 5
 338 29 l 5
 346 28 354 27 362 27 c 4
 466 27 498 110 498 175 c 4
 498 255 461 320 363 320 c 4
 292 320 257 277 250 241 c 5
 256 244 263.333007812 246 270 246 c 4
 320 246 352 202 352 136 c 4
 352 56 295 -2 208 -2 c 4
 97 -2 34 96 34 207 c 4
 34 330 112.280033059 431.5 202.75 431.5 c 4
 206.703125 431.5 207.954101562 431.25 212 431 c 5
 212 405.5 l 5
EndSplineSet
Layer: 2
EndChar

StartChar: si_GIi
Encoding: 125 -1 106
Width: 636
VWidth: 1000
Flags: HW
LayerCount: 3
Back
Fore
SplineSet
393.545898438 520 m 4
 393.545898438 487.107421875 423.08203125 460.2578125 460 460.2578125 c 4
 496.91796875 460.2578125 526.454101562 487.107421875 526.454101562 520 c 4
 526.454101562 552.892578125 496.91796875 579.7421875 460 579.7421875 c 4
 423.08203125 579.7421875 393.545898438 552.892578125 393.545898438 520 c 4
397 406.5 m 5
 237 409.833007812 150 462 150 537 c 4
 150 628 248.984375 667 351 667 c 4
 456.344726562 667 559 618.415039062 559 525 c 4
 559 456.817382812 502.169921875 431 460 431 c 4
 414.356445312 431 361 463.284179688 361 520 c 4
 361 538.98828125 367.642578125 554.465820312 375 565.78125 c 5
 369.354492188 565.930664062 363.677734375 566 358 566 c 4
 276.52734375 566 221 537.78125 221 503 c 4
 221 453.810546875 325 431.4921875 411 431.4921875 c 4
 412.005859375 431.4921875 412.005859375 431.494140625 413 431.5 c 5
 397 406.5 l 5
212 405.5 m 5
 208.64453125 405.784179688 208.060546875 405.950195312 204.75 405.950195312 c 4
 135.24634783 405.950195312 88 334.840637207 88 258 c 4
 88 186 142 140 211 140 c 4
 270 140 294 164 294 191 c 4
 294 216 276 220 269 220 c 4
 258 220 251 217 246 214 c 5
 245 208 244 197.333007812 244 194 c 5
 216 194 l 5
 225 321 288 431.5 410 431.5 c 4
 522 431.5 586 332 586 217 c 4
 586 95 500.052817527 -1 369 -1 c 4
 359 -1 348.666666667 -0.333333333333 338 1 c 5
 338 29 l 5
 346 28 354 27 362 27 c 4
 466 27 498 110 498 175 c 4
 498 255 461 320 363 320 c 4
 292 320 257 277 250 241 c 5
 256 244 263.333007812 246 270 246 c 4
 320 246 352 202 352 136 c 4
 352 56 295 -2 208 -2 c 4
 97 -2 34 96 34 207 c 4
 34 330 112.280033059 431.5 202.75 431.5 c 4
 206.703125 431.5 207.954101562 431.25 212 431 c 5
 212 405.5 l 5
EndSplineSet
Layer: 2
EndChar

StartChar: si_GU
Encoding: 126 -1 107
Width: 636
VWidth: 1000
Flags: HW
LayerCount: 3
Back
Fore
SplineSet
583.065429688 -36 m 5
 585.419921875 -45.416015625 585.5 -60.2900390625 585.5 -69.5 c 4
 585.5 -122.145507812 541.766601562 -191.5 441.065429688 -191.5 c 4
 373.327148438 -191.5 306.065429688 -149.233398438 306.065429688 -80 c 4
 306.065429688 -24.6569442749 331.817382812 6.6650390625 371.565429688 23 c 5
 381 -5.5 l 5
 365.994140625 -11.1513671875 351.065429688 -26.0908203125 351.065429688 -48.25 c 4
 351.065429688 -84.6162109375 394.11328125 -105 445.565429688 -105 c 4
 506.565429688 -105 553.7578125 -82.5625 553.7578125 -45 c 4
 553.7578125 -42.0390625 553.484375 -39.0380859375 553.065429688 -36 c 5
 583.065429688 -36 l 5
404.75 29 m 4
 465.888373375 29 498 110 498 175 c 4
 498 255 461 320 363 320 c 4
 292 320 257 277 250 241 c 5
 256 244 263.333007812 246 270 246 c 4
 320 246 352 202 352 136 c 4
 352 56 295 -2 208 -2 c 4
 97 -2 34 96 34 207 c 4
 34 330 109 431.5 220 431.5 c 4
 223.953128016 431.5 228.954101562 431.25 233 431 c 5
 233 405 l 5
 229.64453125 405.284179688 225.310546875 405.450195312 222 405.450195312 c 4
 138 405.450195312 88 329 88 258 c 4
 88 186 142 140 211 140 c 4
 270 140 294 164 294 191 c 4
 294 216 276 220 269 220 c 4
 258 220 251 217 246 214 c 5
 245 208 244 197.333007812 244 194 c 5
 216 194 l 5
 225 321 288 431.5 410 431.5 c 4
 522 431.5 586 332 586 217 c 4
 586 95 508.19415158 -1 417 -1 c 4
 396.650390625 -1 385.123046875 -3.65234375 377.25 -7 c 5
 368.25 21.5 l 5
 374.126953125 24.84375 391.461914062 29 404.75 29 c 4
EndSplineSet
Layer: 2
EndChar

StartChar: si_GUu
Encoding: 127 -1 108
Width: 636
VWidth: 1000
Flags: HW
LayerCount: 3
Back
Fore
SplineSet
586.946289062 -59 m 5
 590.537109375 -71.1181640625 591.25 -82.8330078125 591.25 -94 c 4
 591.25 -161 539.946289062 -205 457.946289062 -205 c 4
 399.946289062 -205 335.946289062 -187.465820312 335.946289062 -129 c 4
 335.946289062 -93.3486328125 362.946289062 -72 399.946289062 -67 c 5
 344.946289062 -39 l 5
 430.196289062 -14.5 l 5
 338.5 1 l 5
 393 14 l 5
 515 -6 l 5
 407.696289062 -43.25 l 5
 467.946289062 -76 l 5
 439.946289062 -83 385.946289062 -83.4658203125 385.946289062 -104.5 c 4
 385.946289062 -120.921875 417.870117188 -129 459.946289062 -129 c 4
 513.946289062 -129 558.174804688 -112.984375 558.174804688 -82 c 4
 558.174804688 -77 557.442382812 -66.9287109375 552.196289062 -59 c 5
 586.946289062 -59 l 5
233 405 m 5
 229.64453125 405.284179688 225.310546875 405.450195312 222 405.450195312 c 4
 138 405.450195312 88 329 88 258 c 4
 88 186 142 140 211 140 c 4
 270 140 294 164 294 191 c 4
 294 216 276 220 269 220 c 4
 258 220 251 217 246 214 c 5
 245 208 244 197.333007812 244 194 c 5
 216 194 l 5
 225 321 288 431.5 410 431.5 c 4
 522 431.5 586 332 586 217 c 4
 586 95 500.052817527 -1 369 -1 c 4
 359 -1 348.666666667 -0.333333333333 338 1 c 5
 338 29 l 5
 346 28 354 27 362 27 c 4
 466 27 498 110 498 175 c 4
 498 255 461 320 363 320 c 4
 292 320 257 277 250 241 c 5
 256 244 263.333007812 246 270 246 c 4
 320 246 352 202 352 136 c 4
 352 56 295 -2 208 -2 c 4
 97 -2 34 96 34 207 c 4
 34 330 109 431.5 220 431.5 c 4
 223.953128016 431.5 228.954101562 431.25 233 431 c 5
 233 405 l 5
EndSplineSet
Layer: 2
EndChar

StartChar: si_Ga.reph
Encoding: 128 -1 109
Width: 636
VWidth: 1000
Flags: HW
LayerCount: 3
Back
Fore
SplineSet
279.400390625 511 m 4
 279.400390625 490.854492188 297.627929688 474.546875 319.5 474.546875 c 4
 341.372070312 474.546875 359.599609375 490.854492188 359.599609375 511 c 4
 359.599609375 531.145507812 341.372070312 547.453125 319.5 547.453125 c 4
 297.627929688 547.453125 279.400390625 531.145507812 279.400390625 511 c 4
270 471.25 m 5
 262 477.25 251.5 491 251.5 512 c 4
 251.5 547 282.853515625 572 318.5 572 c 4
 359.5 572 387.5 545 387.5 510 c 4
 387.5 471 352.5 445 294.5 445 c 4
 235.5 445 176.5 474 176.5 530 c 4
 176.5 594 234.620117188 631 316.5 631 c 4
 393.5 631 457.5 588 457.5 517 c 4
 457.5 493 449.166992188 471.333007812 432.5 452 c 5
 396.75 452 l 5
 409.919921875 464.38671875 425.5 488.734375 425.5 516 c 260
 425.5 570.521484375 376.5 602.5 315.5 602.5 c 4
 262.721679688 602.5 209.25 579.990234375 209.25 530 c 4
 209.25 490.924804688 252.401367188 473.688476562 270 471.25 c 5
233 405 m 5
 229.64453125 405.284179688 225.310546875 405.450195312 222 405.450195312 c 4
 138 405.450195312 88 329 88 258 c 4
 88 186 142 140 211 140 c 4
 270 140 294 164 294 191 c 4
 294 216 276 220 269 220 c 4
 258 220 251 217 246 214 c 5
 245 208 244 197.333007812 244 194 c 5
 216 194 l 5
 225 321 288 431.5 410 431.5 c 4
 522 431.5 586 332 586 217 c 4
 586 95 500.052817527 -1 369 -1 c 4
 359 -1 348.666666667 -0.333333333333 338 1 c 5
 338 29 l 5
 346 28 354 27 362 27 c 4
 466 27 498 110 498 175 c 4
 498 255 461 320 363 320 c 4
 292 320 257 277 250 241 c 5
 256 244 263.333007812 246 270 246 c 4
 320 246 352 202 352 136 c 4
 352 56 295 -2 208 -2 c 4
 97 -2 34 96 34 207 c 4
 34 330 109 431.5 220 431.5 c 4
 223.953128016 431.5 228.954101562 431.25 233 431 c 5
 233 405 l 5
EndSplineSet
Layer: 2
EndChar

StartChar: si_GA.reph
Encoding: 129 -1 110
Width: 889
VWidth: 1000
Flags: HW
LayerCount: 3
Back
Fore
SplineSet
709 201 m 4
 709 311.459960938 684.036132812 338 662 338 c 4
 651.780273438 338 626.75 331.393554688 626.75 284.830078125 c 4
 626.75 279.443359375 627.083007812 274.393554688 627.75 269.6796875 c 5
 600 269.6796875 l 5
 599.333007812 277.0859375 599 284.494140625 599 291.900390625 c 4
 599 360.728515625 651 403 710 403 c 4
 801 403 847 329.26953125 847 201 c 4
 847 72.73046875 801 -1 710 -1 c 4
 642.587890625 -1 599 41.271484375 599 110.099609375 c 4
 599 117.506835938 599.333007812 124.9140625 600 132.3203125 c 5
 627.75 132.3203125 l 5
 627.083007812 127.606445312 626.75 122.556640625 626.75 117.169921875 c 4
 626.75 70.4501953125 650.486328125 66 662 66 c 4
 684.64453125 66 709 90.5400390625 709 201 c 4
279.400390625 511 m 4
 279.400390625 490.854492188 297.627929688 474.546875 319.5 474.546875 c 4
 341.372070312 474.546875 359.599609375 490.854492188 359.599609375 511 c 4
 359.599609375 531.145507812 341.372070312 547.453125 319.5 547.453125 c 4
 297.627929688 547.453125 279.400390625 531.145507812 279.400390625 511 c 4
270 471.25 m 5
 262 477.25 251.5 491 251.5 512 c 4
 251.5 547 282.853515625 572 318.5 572 c 4
 359.5 572 387.5 545 387.5 510 c 4
 387.5 471 352.5 445 294.5 445 c 4
 235.5 445 176.5 474 176.5 530 c 4
 176.5 594 234.620117188 631 316.5 631 c 4
 393.5 631 457.5 588 457.5 517 c 4
 457.5 493 449.166992188 471.333007812 432.5 452 c 5
 396.75 452 l 5
 409.919921875 464.38671875 425.5 488.734375 425.5 516 c 260
 425.5 570.521484375 376.5 602.5 315.5 602.5 c 4
 262.721679688 602.5 209.25 579.990234375 209.25 530 c 4
 209.25 490.924804688 252.401367188 473.688476562 270 471.25 c 5
233 405 m 5
 229.64453125 405.284179688 225.310546875 405.450195312 222 405.450195312 c 4
 138 405.450195312 88 329 88 258 c 4
 88 186 142 140 211 140 c 4
 270 140 294 164 294 191 c 4
 294 216 276 220 269 220 c 4
 258 220 251 217 246 214 c 5
 245 208 244 197.333007812 244 194 c 5
 216 194 l 5
 225 321 288 431.5 410 431.5 c 4
 522 431.5 586 332 586 217 c 4
 586 95 500.052817527 -1 369 -1 c 4
 359 -1 348.666666667 -0.333333333333 338 1 c 5
 338 29 l 5
 346 28 354 27 362 27 c 4
 466 27 498 110 498 175 c 4
 498 255 461 320 363 320 c 4
 292 320 257 277 250 241 c 5
 256 244 263.333007812 246 270 246 c 4
 320 246 352 202 352 136 c 4
 352 56 295 -2 208 -2 c 4
 97 -2 34 96 34 207 c 4
 34 330 109 431.5 220 431.5 c 4
 223.953128016 431.5 228.954101562 431.25 233 431 c 5
 233 405 l 5
EndSplineSet
Layer: 2
EndChar

StartChar: si_Ga.rakar
Encoding: 130 -1 111
Width: 636
VWidth: 1000
Flags: HW
LayerCount: 3
Back
Fore
SplineSet
85.25 -44 m 5
 118.783203125 -93.2900390625 175.551757812 -113.75 288.75 -113.75 c 4
 440.314453125 -113.75 551.75 -31.0107421875 551.75 63.25 c 4
 551.75 78.2841796875 549 90.79296875 542 102 c 5
 555 133 l 5
 573 106.333007812 582 74.6669921875 582 38 c 4
 582 -123.729492188 462.799804688 -219 311.25 -219 c 4
 171.40625 -219 93.0830078125 -153.333007812 55.75 -44 c 5
 85.25 -44 l 5
233 405 m 5
 229.64453125 405.284179688 225.310546875 405.450195312 222 405.450195312 c 4
 138 405.450195312 88 329 88 258 c 4
 88 186 142 140 211 140 c 4
 270 140 294 164 294 191 c 4
 294 216 276 220 269 220 c 4
 258 220 251 217 246 214 c 5
 245 208 244 197.333007812 244 194 c 5
 216 194 l 5
 225 321 288 431.5 410 431.5 c 4
 522 431.5 586 332 586 217 c 4
 586 95 500.052817527 -1 369 -1 c 4
 359 -1 348.666666667 -0.333333333333 338 1 c 5
 338 29 l 5
 346 28 354 27 362 27 c 4
 466 27 498 110 498 175 c 4
 498 255 461 320 363 320 c 4
 292 320 257 277 250 241 c 5
 256 244 263.333007812 246 270 246 c 4
 320 246 352 202 352 136 c 4
 352 56 295 -2 208 -2 c 4
 97 -2 34 96 34 207 c 4
 34 330 109 431.5 220 431.5 c 4
 223.953128016 431.5 228.954101562 431.25 233 431 c 5
 233 405 l 5
EndSplineSet
Layer: 2
EndChar

StartChar: si_Ga.Rakar.Halant
Encoding: 131 -1 112
Width: 636
VWidth: 1000
Flags: HW
LayerCount: 3
Back
Fore
SplineSet
434.5 348 m 5
 434.5 681 l 5
 488.5 639 586 634 586 542 c 4
 586 498 551.19140625 468 508 468 c 4
 493.333007812 468 478.333007812 471.333007812 463 478 c 5
 463 331 l 5
 434.5 348 l 5
463.10546875 636.586914062 m 5
 463.10546875 504.2734375 l 5
 471.599609375 499.69921875 482.381835938 497.413085938 495.448242188 497.413085938 c 4
 527.454101562 497.413085938 541 521.915039062 541 545.4375 c 4
 541 586.6015625 509.169921875 606.203125 463.10546875 636.586914062 c 5
85.25 -44 m 5
 118.783203125 -93.2900390625 175.551757812 -113.75 288.75 -113.75 c 4
 440.314453125 -113.75 551.75 -31.0107421875 551.75 63.25 c 4
 551.75 78.2841796875 549 90.79296875 542 102 c 5
 555 133 l 5
 573 106.333007812 582 74.6669921875 582 38 c 4
 582 -123.729492188 462.799804688 -219 311.25 -219 c 4
 171.40625 -219 93.0830078125 -153.333007812 55.75 -44 c 5
 85.25 -44 l 5
233 405 m 5
 229.64453125 405.284179688 225.310546875 405.450195312 222 405.450195312 c 4
 138 405.450195312 88 329 88 258 c 4
 88 186 142 140 211 140 c 4
 270 140 294 164 294 191 c 4
 294 216 276 220 269 220 c 4
 258 220 251 217 246 214 c 5
 245 208 244 197.333007812 244 194 c 5
 216 194 l 5
 225 321 288 431.5 410 431.5 c 4
 522 431.5 586 332 586 217 c 4
 586 95 500.052817527 -1 369 -1 c 4
 359 -1 348.666666667 -0.333333333333 338 1 c 5
 338 29 l 5
 346 28 354 27 362 27 c 4
 466 27 498 110 498 175 c 4
 498 255 461 320 363 320 c 4
 292 320 257 277 250 241 c 5
 256 244 263.333007812 246 270 246 c 4
 320 246 352 202 352 136 c 4
 352 56 295 -2 208 -2 c 4
 97 -2 34 96 34 207 c 4
 34 330 109 431.5 220 431.5 c 4
 223.953128016 431.5 228.954101562 431.25 233 431 c 5
 233 405 l 5
EndSplineSet
Layer: 2
EndChar

StartChar: si_GI.rakar
Encoding: 132 -1 113
Width: 636
VWidth: 1000
Flags: HW
LayerCount: 3
Back
Fore
SplineSet
397 407.25 m 5
 237 410.583007812 150 462 150 537 c 4
 150 628 248.984240721 667 351 667 c 4
 456.344340239 667 559 618 559 523 c 4
 559 461 520 415 439 409 c 5
 421 431 l 5
 423.693006943 430.867557036 426.360675308 430.806027059 428.999997673 430.806027059 c 4
 487 430.806027059 517 465.788036794 517 498 c 4
 517 552.286132812 437.673828125 566 358 566 c 4
 276.52734375 566 221 537.781145764 221 503 c 4
 221 453.810337067 324.999999645 431.4921875 411 431.4921875 c 4
 412.005859375 431.4921875 412.006172073 431.494288345 413 431.5 c 5
 397 407.25 l 5
212 405.5 m 5
 208.64453125 405.784179688 208.060546875 405.950195312 204.75 405.950195312 c 4
 135.24634783 405.950195312 88 334.840637207 88 258 c 4
 88 186 142 140 211 140 c 4
 270 140 294 164 294 191 c 4
 294 216 276 220 269 220 c 4
 258 220 251 217 246 214 c 5
 245 208 244 197.333007812 244 194 c 5
 216 194 l 5
 225 321 288 431.5 410 431.5 c 4
 522 431.5 586 332 586 217 c 4
 586 95 500.052817527 -1 369 -1 c 4
 359 -1 348.666666667 -0.333333333333 338 1 c 5
 338 29 l 5
 346 28 354 27 362 27 c 4
 466 27 498 110 498 175 c 4
 498 255 461 320 363 320 c 4
 292 320 257 277 250 241 c 5
 256 244 263.333007812 246 270 246 c 4
 320 246 352 202 352 136 c 4
 352 56 295 -2 208 -2 c 4
 97 -2 34 96 34 207 c 4
 34 330 112.280033059 431.5 202.75 431.5 c 4
 206.703125 431.5 207.954101562 431.25 212 431 c 5
 212 405.5 l 5
85.25 -44 m 5
 118.783203125 -93.2900390625 175.551757812 -113.75 288.75 -113.75 c 4
 440.314453125 -113.75 551.75 -31.0107421875 551.75 63.25 c 4
 551.75 78.2841796875 549 90.79296875 542 102 c 5
 555 133 l 5
 573 106.333007812 582 74.6669921875 582 38 c 4
 582 -123.729492188 462.799804688 -219 311.25 -219 c 4
 171.40625 -219 93.0830078125 -153.333007812 55.75 -44 c 5
 85.25 -44 l 5
EndSplineSet
Layer: 2
EndChar

StartChar: si_GIi.rakar
Encoding: 133 -1 114
Width: 636
VWidth: 1000
Flags: HW
LayerCount: 3
Back
Fore
SplineSet
393.545898438 520 m 4
 393.545898438 487.107421875 423.08203125 460.2578125 460 460.2578125 c 4
 496.91796875 460.2578125 526.454101562 487.107421875 526.454101562 520 c 4
 526.454101562 552.892578125 496.91796875 579.7421875 460 579.7421875 c 4
 423.08203125 579.7421875 393.545898438 552.892578125 393.545898438 520 c 4
397 406.5 m 5
 237 409.833007812 150 462 150 537 c 4
 150 628 248.984375 667 351 667 c 4
 456.344726562 667 559 618.415039062 559 525 c 4
 559 456.817382812 502.169921875 431 460 431 c 4
 414.356445312 431 361 463.284179688 361 520 c 4
 361 538.98828125 367.642578125 554.465820312 375 565.78125 c 5
 369.354492188 565.930664062 363.677734375 566 358 566 c 4
 276.52734375 566 221 537.78125 221 503 c 4
 221 453.810546875 325 431.4921875 411 431.4921875 c 4
 412.005859375 431.4921875 412.005859375 431.494140625 413 431.5 c 5
 397 406.5 l 5
212 405.5 m 5
 208.64453125 405.784179688 208.060546875 405.950195312 204.75 405.950195312 c 4
 135.24634783 405.950195312 88 334.840637207 88 258 c 4
 88 186 142 140 211 140 c 4
 270 140 294 164 294 191 c 4
 294 216 276 220 269 220 c 4
 258 220 251 217 246 214 c 5
 245 208 244 197.333007812 244 194 c 5
 216 194 l 5
 225 321 288 431.5 410 431.5 c 4
 522 431.5 586 332 586 217 c 4
 586 95 500.052817527 -1 369 -1 c 4
 359 -1 348.666666667 -0.333333333333 338 1 c 5
 338 29 l 5
 346 28 354 27 362 27 c 4
 466 27 498 110 498 175 c 4
 498 255 461 320 363 320 c 4
 292 320 257 277 250 241 c 5
 256 244 263.333007812 246 270 246 c 4
 320 246 352 202 352 136 c 4
 352 56 295 -2 208 -2 c 4
 97 -2 34 96 34 207 c 4
 34 330 112.280033059 431.5 202.75 431.5 c 4
 206.703125 431.5 207.954101562 431.25 212 431 c 5
 212 405.5 l 5
85.25 -44 m 5
 118.783203125 -93.2900390625 175.551757812 -113.75 288.75 -113.75 c 4
 440.314453125 -113.75 551.75 -31.0107421875 551.75 63.25 c 4
 551.75 78.2841796875 549 90.79296875 542 102 c 5
 555 133 l 5
 573 106.333007812 582 74.6669921875 582 38 c 4
 582 -123.729492188 462.799804688 -219 311.25 -219 c 4
 171.40625 -219 93.0830078125 -153.333007812 55.75 -44 c 5
 85.25 -44 l 5
EndSplineSet
Layer: 2
EndChar

StartChar: si_Gh.halant
Encoding: 134 -1 115
Width: 677
VWidth: 1000
Flags: HW
LayerCount: 3
Back
Fore
SplineSet
476.5 406 m 5
 476.5 681 l 5
 530.5 639 628 634 628 542 c 4
 628 498 593.19140625 468 550 468 c 4
 535.333007812 468 520.333007812 471.333007812 505 478 c 5
 505 389 l 5
 476.5 406 l 5
505.10546875 636.586914062 m 5
 505.10546875 504.2734375 l 5
 513.599609375 499.69921875 524.381835938 497.413085938 537.448242188 497.413085938 c 4
 569.454101562 497.413085938 583 521.915039062 583 545.4375 c 4
 583 586.6015625 551.169921875 606.203125 505.10546875 636.586914062 c 5
200 0 m 4
 109.173828125 0 51 76 51 154 c 4
 51 226 92 267 144 283 c 5
 177.760742188 295.19921875 232 308 269 308 c 6
 278 308 l 5
 278.08203125 310.041015625 278.0859375 310.041015625 278.0859375 312 c 4
 278.0859375 355 250 387 213 387 c 132
 190 387 175.573242188 374.8046875 168.5 355 c 132
 161 334 147 320 121 320 c 4
 98 320 82 333.368164062 82 359 c 4
 82 406 132 431.5 187 431.5 c 4
 275 431.5 313.146484375 369 313.146484375 293 c 4
 313.146484375 289.721679688 313.100585938 283.387695312 313 280 c 5
 224 280 l 6
 164 280 112 245 112 201 c 4
 112 157 146.083709717 138 182 138 c 4
 213.294921875 138 233 142 241 149 c 5
 241 156 242.451171875 163.723632812 245.16796875 173 c 4
 256.532226562 211.807617188 290.032226562 232 332 232 c 4
 373.967773438 232 407.467808359 211.807637325 418.831859094 173.000012663 c 4
 421.548385035 163.723222056 423 156 423 149 c 5
 431 142 450.705078125 138 482 138 c 4
 526 138 569 164 569 214 c 4
 569 251 535 288 448 288 c 4
 412 288 386 286 353 279 c 5
 352.814453125 282.706054688 352.717070236 287.374324769 352.717070236 290.99999647 c 4
 352.717070236 375 400 432 478 432 c 4
 532 432 579 405 579 351 c 4
 579 329.666992188 569 308 550 297 c 5
 597.333333333 273.666666667 628 221.08203125 628 166 c 4
 628 58 555.929102634 0 464 0 c 4
 440 0 411.666992188 4 381 12 c 5
 378 16 377 40.3330078125 377 47 c 4
 377 84 392 95 392 134 c 4
 392 171 376 200 332 200 c 4
 288 200 272 171 272 134 c 4
 272 95 287 84 287 47 c 4
 287 40.3330078125 286 16 283 12 c 5
 252.333007812 4 224 0 200 0 c 4
147 280 m 6
 76 279 21 275.666992188 5 273 c 5
 5 308 l 5
 276 308 l 5
 309 280 l 5
 147 280 l 6
385 310 m 5
 398 314 419 316 445 316 c 4
 479 316 507 312 521 307 c 5
 530 314 537 326 537 344 c 260
 537 376 500 390 471 390 c 4
 419 390 389.666992188 364.666992188 385 310 c 5
EndSplineSet
Layer: 2
EndChar

